<svg xmlns="http://www.w3.org/2000/svg" xmlns:xlink="http://www.w3.org/1999/xlink" width="1920" height="1080" viewBox="0 0 1920 1080"><defs><style>.cls-1{isolation:isolate;}.cls-2{fill:#8c6239;}.cls-3,.cls-5{stroke:#42210b;stroke-miterlimit:10;stroke-width:12px;}.cls-3{fill:url(#linear-gradient);}.cls-4{fill:url(#linear-gradient-2);}.cls-5{fill:url(#linear-gradient-3);}.cls-6{fill:#fbb03b;}.cls-7{fill:#fff;}.cls-8{fill:#534741;}.cls-9{fill:url(#linear-gradient-4);}.cls-10{fill:#603813;}.cls-11{fill:url(#linear-gradient-5);}.cls-12{fill:url(#linear-gradient-6);}.cls-13{fill:url(#linear-gradient-7);}.cls-14{fill:#ed1e79;}.cls-15{fill:#b3b3b3;}.cls-16{fill:#e6e6e6;}.cls-17{fill:#f2f2f2;opacity:0.6;}.cls-18{fill:#8cc63f;}.cls-19{fill:#39b54a;}.cls-20,.cls-21{opacity:0.25;}.cls-20{fill:url(#Sky);}.cls-21{fill:url(#Sky-2);}.cls-22,.cls-28{mix-blend-mode:overlay;}.cls-23{fill:url(#New_Gradient_Swatch_1);}.cls-24{fill:url(#New_Gradient_Swatch_1-2);}.cls-25{fill:url(#New_Gradient_Swatch_1-3);}.cls-26{fill:url(#New_Gradient_Swatch_1-4);}.cls-27{fill:none;}.cls-28,.cls-29{opacity:0.5;}.cls-29{fill:#333;mix-blend-mode:multiply;}</style><linearGradient id="linear-gradient" x1="494" y1="97" x2="494" y2="513.17" gradientUnits="userSpaceOnUse"><stop offset="0" stop-color="#1b1464"/><stop offset="1" stop-color="#662d91"/></linearGradient><linearGradient id="linear-gradient-2" x1="272.5" y1="107.23" x2="272.5" y2="395.73" gradientUnits="userSpaceOnUse"><stop offset="0" stop-color="#fff"/><stop offset="1" stop-color="#f2f2f2" stop-opacity="0"/></linearGradient><linearGradient id="linear-gradient-3" x1="1421" x2="1421" y2="513.17" xlink:href="#linear-gradient"/><linearGradient id="linear-gradient-4" x1="26" y1="625.5" x2="696" y2="625.5" gradientUnits="userSpaceOnUse"><stop offset="0" stop-color="#b3b3b3"/><stop offset="0.51" stop-color="#4d4d4d"/><stop offset="1" stop-color="#ccc"/></linearGradient><linearGradient id="linear-gradient-5" y1="547.5" y2="547.5" xlink:href="#linear-gradient-4"/><linearGradient id="linear-gradient-6" x1="1086" y1="628.5" x2="1756" y2="628.5" xlink:href="#linear-gradient-4"/><linearGradient id="linear-gradient-7" x1="1086" y1="550.5" x2="1756" y2="550.5" xlink:href="#linear-gradient-4"/><linearGradient id="Sky" x1="1579.65" y1="597.04" x2="1577.28" y2="485.11" gradientUnits="userSpaceOnUse"><stop offset="0" stop-color="#cce0f4"/><stop offset="0.06" stop-color="#c3dcf2"/><stop offset="0.17" stop-color="#a9d2ee"/><stop offset="0.31" stop-color="#80c2e7"/><stop offset="0.46" stop-color="#47acde"/><stop offset="0.57" stop-color="#1e9cd7"/><stop offset="0.87" stop-color="#0075be"/><stop offset="0.99" stop-color="#005b97"/></linearGradient><linearGradient id="Sky-2" x1="1195.65" y1="591.04" x2="1193.28" y2="479.11" xlink:href="#Sky"/><linearGradient id="New_Gradient_Swatch_1" x1="1474.51" y1="195.85" x2="1753.25" y2="195.85" gradientUnits="userSpaceOnUse"><stop offset="0" stop-color="#fff"/><stop offset="1" stop-color="#fff" stop-opacity="0"/></linearGradient><linearGradient id="New_Gradient_Swatch_1-2" x1="586.91" y1="342.9" x2="822.45" y2="388.29" xlink:href="#New_Gradient_Swatch_1"/><linearGradient id="New_Gradient_Swatch_1-3" x1="423.91" y1="142.9" x2="659.45" y2="188.29" xlink:href="#New_Gradient_Swatch_1"/><linearGradient id="New_Gradient_Swatch_1-4" x1="1112.68" y1="236.62" x2="1259.72" y2="258.52" xlink:href="#New_Gradient_Swatch_1"/></defs><title>Baggrund</title><g class="cls-1"><g id="baggrund"><rect class="cls-2" width="1920" height="1080"/><rect class="cls-3" x="112" y="101" width="764" height="414"/><circle class="cls-4" cx="272.5" cy="253.5" r="143.5"/><rect class="cls-5" x="1039" y="101" width="764" height="414"/><path class="cls-6" d="M1025.85,430.26,1013.62,435l-13.19,2.76a1,1,0,0,0-.64,1.17l.53,3a.89.89,0,0,0,1.08.78l13.1-2.74,12.32-4.76a1,1,0,0,0,.64-1.17l-.53-3A.89.89,0,0,0,1025.85,430.26Z"/><path class="cls-7" d="M1132,471.52c1.23,17.58,2.79,67.66,2,121.46-.71,53.15-3.75,110-9.63,126.06-10.78,26.75-25.41-58.55-46.67-65-17.5-4.83-33.33,76-52.83,74-20.42-2.36-46.28-54.27-65.09-45.89-19.32,7.87-13.3,55-23.31,39.69-7.06-8.53-11.65-61.28-13.4-121.17-1.87-59-.89-125.19.46-140.59,7.17-81.29,48.52-69.89,101.86-68.23C1078.57,392.89,1124.72,380.1,1132,471.52Z"/><path class="cls-8" d="M967,367.86l-8.67,2.46c-7.15,2-11.54,10.39-9.77,18.56l6.74,30.95C957.1,428,964.41,433,971.56,431l8.67-2.47c7.15-2,11.54-10.38,9.77-18.55l-6.74-31C981.48,370.85,974.17,365.82,967,367.86Z"/><ellipse class="cls-8" cx="977.11" cy="426.86" rx="33.72" ry="12.67" transform="translate(-74.54 250.82) rotate(-14.1)"/><ellipse cx="1072.08" cy="477.02" rx="14.41" ry="14.25"/><path d="M1115.54,536.8c0,14-1.4-28.27-17.53-28.27s-17.53,49.41-17.53,35.39.22-49,16.36-49S1115.54,522.78,1115.54,536.8Z"/><ellipse cx="1108.27" cy="474.85" rx="14.41" ry="14.25"/><path class="cls-7" d="M1705.91,568.72c-.88,17.83-10.24,45.38-18.49,74.88-8.14,29-15.15,60-8.69,74.28,11.82,21.49,26.66,2.27,51.3-3.89,20.41-6.75,29.38,11.5,50.78,12,22.35,1,41-30.9,62.74-20.9,21.87,11.67,32.89,35.48,44.06,14.81,7.74-12.4,2.52-45.3-4.26-83.07-6.89-37.16-15.34-79.17-16.36-95.7-2.39-41.47-1.74-80.62-10.53-107-8.81-26.74-27.06-40.7-67.64-40.15-29.39-1.86-48.37,23.68-61.2,56.59C1714.88,484.13,1708.3,525,1705.91,568.72Z"/><path d="M1751.46,525.38c0,3.12,3.57,9.89,12.14,9.89s17.55-6.77,17.55-9.89-8.3,0-16.87,0S1751.46,522.26,1751.46,525.38Z"/><ellipse cx="1797.88" cy="502.91" rx="16.07" ry="14.55"/><ellipse cx="1748.05" cy="497.26" rx="16.07" ry="14.55"/><rect class="cls-9" x="26" y="618" width="670" height="15"/><rect class="cls-10" x="334" y="633" width="55" height="254"/><polygon class="cls-11" points="696 618 26 618 112 477 624 477 696 618"/><rect class="cls-12" x="1086" y="621" width="670" height="15"/><rect class="cls-10" x="1394" y="636" width="55" height="254"/><polygon class="cls-13" points="1756 621 1086 621 1172 480 1684 480 1756 621"/><path class="cls-14" d="M1599.06,539H1682a4.19,4.19,0,0,0,4-5.17l-13-60.82a4.09,4.09,0,0,0-3.86-3.3l-55.65-1.27a4.1,4.1,0,0,0-4,3.25l-14.23,62.08A4.2,4.2,0,0,0,1599.06,539Z"/><path class="cls-14" d="M1668,477.53l.16-4.18q0-.72,0-1.44c0-18.31-12.42-33.2-27.67-33.2s-27.67,14.89-27.67,33.2V476Zm-27.48-30.34c9.79,0,18.17,9.63,19.41,21.65l-38.69-1C1622.8,456.26,1631,447.19,1640.48,447.19Z"/><path class="cls-15" d="M1560,476h37a7,7,0,0,1,7,7V607a3,3,0,0,1-3,3h-45a3,3,0,0,1-3-3V483A7,7,0,0,1,1560,476Z"/><path class="cls-16" d="M1561,476.63h35a7,7,0,0,1,7,7V602.37a3,3,0,0,1-3,3h-43a3,3,0,0,1-3-3V483.63A7,7,0,0,1,1561,476.63Z"/><rect class="cls-17" x="1572" y="574" width="31" height="31" rx="12" ry="12"/><rect class="cls-17" x="1555" y="546" width="31" height="31" rx="12" ry="12" transform="translate(-95.55 639.08) rotate(-22.34)"/><rect class="cls-17" x="1571" y="517" width="31" height="31" rx="12" ry="12" transform="translate(478.8 -721.91) rotate(30)"/><rect class="cls-17" x="1556" y="487" width="31" height="31" rx="12" ry="12" transform="translate(-53.57 787.6) rotate(-27.68)"/><path class="cls-18" d="M1585.51,475.5,1570,482c3.76,8.36,14.41,12.76,23,9a17.88,17.88,0,0,0,9-23Z"/><path class="cls-19" d="M1602.49,467.78l-1.35.59c3.62,8.59-.13,18.57-8.4,22.19s-18-.33-22-8.73l-1.21.54a18,18,0,0,0,32.91-14.59Z"/><polygon class="cls-7" points="1585.84 477.5 1587.26 492.12 1586 492.04 1585.84 477.5"/><polygon class="cls-7" points="1584.71 477.34 1578.6 490.71 1577.55 490.01 1584.71 477.34"/><polygon class="cls-7" points="1584.22 477.15 1570.97 483.51 1570.61 482.3 1584.22 477.15"/><polygon class="cls-7" points="1589.16 475 1602.45 468.74 1602.8 469.95 1589.16 475"/><polygon class="cls-7" points="1588.66 476.02 1603.29 477.38 1602.98 478.6 1588.66 476.02"/><polygon class="cls-7" points="1587.6 477.04 1597.05 488.28 1595.97 488.93 1587.6 477.04"/><path class="cls-20" d="M1554,483h49a0,0,0,0,1,0,0V602.37a3,3,0,0,1-3,3h-43a3,3,0,0,1-3-3V483A0,0,0,0,1,1554,483Z"/><path class="cls-15" d="M1176,470h37a7,7,0,0,1,7,7V601a3,3,0,0,1-3,3h-45a3,3,0,0,1-3-3V477A7,7,0,0,1,1176,470Z"/><path class="cls-16" d="M1177,470.63h35a7,7,0,0,1,7,7V596.37a3,3,0,0,1-3,3h-43a3,3,0,0,1-3-3V477.63A7,7,0,0,1,1177,470.63Z"/><rect class="cls-17" x="1188" y="568" width="31" height="31" rx="12" ry="12"/><rect class="cls-17" x="1171" y="540" width="31" height="31" rx="12" ry="12" transform="matrix(0.92, -0.38, 0.38, 0.92, -122.09, 492.68)"/><rect class="cls-17" x="1187" y="511" width="31" height="31" rx="12" ry="12" transform="translate(424.35 -530.71) rotate(30)"/><rect class="cls-17" x="1172" y="481" width="31" height="31" rx="12" ry="12" transform="translate(-94.73 608.52) rotate(-27.68)"/><path class="cls-18" d="M1201.51,469.5,1186,476c3.76,8.36,14.41,12.76,23,9a17.88,17.88,0,0,0,9-23Z"/><path class="cls-19" d="M1218.49,461.78l-1.35.59c3.62,8.59-.13,18.57-8.4,22.19s-18-.33-22-8.73l-1.21.54a18,18,0,0,0,32.91-14.59Z"/><polygon class="cls-7" points="1201.84 471.5 1203.26 486.12 1202 486.04 1201.84 471.5"/><polygon class="cls-7" points="1200.71 471.34 1194.6 484.71 1193.55 484.01 1200.71 471.34"/><polygon class="cls-7" points="1200.22 471.15 1186.97 477.51 1186.61 476.3 1200.22 471.15"/><polygon class="cls-7" points="1205.16 469 1218.45 462.74 1218.8 463.95 1205.16 469"/><polygon class="cls-7" points="1204.66 470.02 1219.29 471.38 1218.98 472.6 1204.66 470.02"/><polygon class="cls-7" points="1203.6 471.04 1213.05 482.28 1211.97 482.93 1203.6 471.04"/><path class="cls-21" d="M1170,477h49a0,0,0,0,1,0,0V596.37a3,3,0,0,1-3,3h-43a3,3,0,0,1-3-3V477A0,0,0,0,1,1170,477Z"/><g class="cls-22"><path class="cls-23" d="M1474.51,242.58l278.24-96.29.5,1.42L1475,244ZM1475,244l277.75-97.71.5,1.42-277.76,97.71Z"/></g><g class="cls-22"><path class="cls-24" d="M578.22,388l252.64-47.77.28,1.48L578.5,389.5Zm.28,1.47,252.36-49.24.28,1.48L578.78,391Z"/></g><g class="cls-22"><path class="cls-25" d="M415.22,188l252.64-47.77.28,1.48L415.5,189.5Zm.28,1.47,252.36-49.24.28,1.48L415.78,191Z"/></g><g class="cls-22"><path class="cls-26" d="M1106.43,278.61l158.78-64.8.58,1.38L1107,280ZM1107,280l158.21-66.19.58,1.38-158.22,66.2Z"/></g><g class="cls-22"><rect class="cls-27" x="1289.21" y="410.99" width="3.66" height="3.66"/><circle class="cls-7" cx="1291.04" cy="412.82" r="1.83"/><rect class="cls-27" x="1122.9" y="385.68" width="3.4" height="3.4"/><circle class="cls-7" cx="1124.6" cy="387.38" r="1.7"/><rect class="cls-27" x="1097.99" y="395.61" width="5.44" height="5.44"/><circle class="cls-7" cx="1100.71" cy="398.33" r="2.72"/><rect class="cls-27" x="1279.17" y="356.93" width="8.99" height="8.99"/><circle class="cls-7" cx="1283.67" cy="361.43" r="4.49"/><rect class="cls-27" x="1374.01" y="356.94" width="3.81" height="3.81"/><circle class="cls-7" cx="1375.91" cy="358.85" r="1.91"/><rect class="cls-27" x="1229.53" y="270.34" width="7.02" height="7.02"/><circle class="cls-7" cx="1233.04" cy="273.85" r="3.51"/><rect class="cls-27" x="1435.29" y="348.92" width="8.87" height="8.87"/><circle class="cls-7" cx="1439.72" cy="353.35" r="4.44"/><rect class="cls-27" x="1526.83" y="329.41" width="7.15" height="7.15"/><circle class="cls-7" cx="1530.41" cy="332.98" r="3.57"/><rect class="cls-27" x="1530.58" y="307.1" width="8.69" height="8.69"/><circle class="cls-7" cx="1534.92" cy="311.44" r="4.34"/><rect class="cls-27" x="1387.04" y="307.92" width="5.52" height="5.52"/><circle class="cls-7" cx="1389.8" cy="310.68" r="2.76"/><rect class="cls-27" x="1364.09" y="341.42" width="6.53" height="6.53"/><circle class="cls-7" cx="1367.35" cy="344.68" r="3.26"/><rect class="cls-27" x="1603.94" y="328.14" width="6.31" height="6.31"/><circle class="cls-7" cx="1607.1" cy="331.29" r="3.15"/><rect class="cls-27" x="1715.32" y="370.43" width="4.32" height="4.32"/><circle class="cls-7" cx="1717.48" cy="372.59" r="2.16"/><rect class="cls-27" x="1650.92" y="193.9" width="7.12" height="7.12"/><circle class="cls-7" cx="1654.48" cy="197.46" r="3.56"/><rect class="cls-27" x="1576.66" y="174.14" width="3.23" height="3.23"/><circle class="cls-7" cx="1578.28" cy="175.75" r="1.61"/><rect class="cls-27" x="1473.48" y="203.84" width="7.28" height="7.28"/><circle class="cls-7" cx="1477.12" cy="207.48" r="3.64"/><rect class="cls-27" x="1176.12" y="216.03" width="3.23" height="3.23"/><circle class="cls-7" cx="1177.74" cy="217.65" r="1.62"/><rect class="cls-27" x="1090.27" y="205.4" width="4.54" height="4.54"/><circle class="cls-7" cx="1092.54" cy="207.67" r="2.27"/><rect class="cls-27" x="1135.26" y="174" width="4.54" height="4.54"/><circle class="cls-7" cx="1137.53" cy="176.27" r="2.27"/><rect class="cls-27" x="1321.08" y="239.59" width="3.97" height="3.97"/><circle class="cls-7" cx="1323.06" cy="241.58" r="1.98"/><rect class="cls-27" x="1500.2" y="187.43" width="5.12" height="5.12"/><circle class="cls-7" cx="1502.76" cy="189.99" r="2.56"/><rect class="cls-27" x="1577.68" y="180.8" width="7.11" height="7.11"/><circle class="cls-7" cx="1581.24" cy="184.36" r="3.56"/></g><g class="cls-22"><rect class="cls-27" x="404.21" y="410.99" width="3.66" height="3.66"/><circle class="cls-7" cx="406.04" cy="412.82" r="1.83"/></g><g class="cls-22"><rect class="cls-27" x="212.99" y="395.61" width="5.44" height="5.44"/><circle class="cls-7" cx="215.71" cy="398.33" r="2.72"/></g><g class="cls-22"><rect class="cls-27" x="394.17" y="356.93" width="8.99" height="8.99"/><circle class="cls-7" cx="398.67" cy="361.43" r="4.49"/></g><g class="cls-22"><rect class="cls-27" x="489.01" y="356.94" width="3.81" height="3.81"/><circle class="cls-7" cx="490.91" cy="358.85" r="1.91"/></g><g class="cls-22"><rect class="cls-27" x="550.29" y="348.92" width="8.87" height="8.87"/><circle class="cls-7" cx="554.72" cy="353.35" r="4.44"/></g><g class="cls-22"><rect class="cls-27" x="641.83" y="329.41" width="7.15" height="7.15"/><circle class="cls-7" cx="645.41" cy="332.98" r="3.57"/></g><g class="cls-22"><rect class="cls-27" x="645.58" y="307.1" width="8.69" height="8.69"/><circle class="cls-7" cx="649.92" cy="311.44" r="4.34"/></g><g class="cls-22"><rect class="cls-27" x="502.04" y="307.92" width="5.52" height="5.52"/><circle class="cls-7" cx="504.8" cy="310.68" r="2.76"/></g><g class="cls-22"><rect class="cls-27" x="479.09" y="341.42" width="6.53" height="6.53"/><circle class="cls-7" cx="482.35" cy="344.68" r="3.26"/></g><g class="cls-22"><rect class="cls-27" x="718.94" y="328.14" width="6.31" height="6.31"/><circle class="cls-7" cx="722.1" cy="331.29" r="3.15"/></g><g class="cls-22"><rect class="cls-27" x="830.32" y="370.43" width="4.32" height="4.32"/><circle class="cls-7" cx="832.48" cy="372.59" r="2.16"/></g><g class="cls-22"><rect class="cls-27" x="765.92" y="193.9" width="7.12" height="7.12"/><circle class="cls-7" cx="769.48" cy="197.46" r="3.56"/></g><g class="cls-22"><rect class="cls-27" x="691.66" y="174.14" width="3.23" height="3.23"/><circle class="cls-7" cx="693.28" cy="175.75" r="1.61"/></g><g class="cls-22"><rect class="cls-27" x="588.48" y="203.84" width="7.28" height="7.28"/><circle class="cls-7" cx="592.12" cy="207.48" r="3.64"/></g><g class="cls-22"><rect class="cls-27" x="436.08" y="239.59" width="3.97" height="3.97"/><circle class="cls-7" cx="438.06" cy="241.58" r="1.98"/></g><g class="cls-22"><rect class="cls-27" x="615.2" y="187.43" width="5.12" height="5.12"/><circle class="cls-7" cx="617.76" cy="189.99" r="2.56"/></g><g class="cls-22"><rect class="cls-27" x="692.68" y="180.8" width="7.11" height="7.11"/><circle class="cls-7" cx="696.24" cy="184.36" r="3.56"/></g><g class="cls-22"><rect class="cls-27" x="189.93" y="409.18" width="8.74" height="8.74"/><circle class="cls-7" cx="194.3" cy="413.55" r="4.37"/></g><g class="cls-22"><rect class="cls-27" x="519.16" y="341.71" width="4.95" height="4.95"/><circle class="cls-7" cx="521.64" cy="344.18" r="2.48"/></g><g class="cls-22"><rect class="cls-27" x="500.33" y="332.68" width="7.7" height="7.7"/><circle class="cls-7" cx="504.18" cy="336.53" r="3.85"/></g><g class="cls-22"><rect class="cls-27" x="541.3" y="348.12" width="8.69" height="8.69"/><circle class="cls-7" cx="545.64" cy="352.46" r="4.34"/></g><g class="cls-22"><rect class="cls-27" x="765.62" y="379.26" width="3.89" height="3.89"/><circle class="cls-7" cx="767.57" cy="381.21" r="1.95"/></g><g class="cls-22"><rect class="cls-27" x="669.33" y="329.09" width="4.79" height="4.79"/><circle class="cls-7" cx="671.72" cy="331.48" r="2.4"/></g><g class="cls-22"><rect class="cls-27" x="595.51" y="312.73" width="5.91" height="5.91"/><circle class="cls-7" cx="598.46" cy="315.68" r="2.95"/></g><g class="cls-22"><rect class="cls-27" x="773.7" y="315.63" width="4.16" height="4.16"/><circle class="cls-7" cx="775.78" cy="317.71" r="2.08"/></g><g class="cls-22"><rect class="cls-27" x="618.75" y="186.62" width="4.16" height="4.16"/><circle class="cls-7" cx="620.83" cy="188.7" r="2.08"/></g><g class="cls-22"><rect class="cls-27" x="518.49" y="137.69" width="4.6" height="4.6"/><circle class="cls-7" cx="520.79" cy="139.98" r="2.3"/></g><g class="cls-22"><rect class="cls-27" x="603.2" y="201.21" width="7.32" height="7.32"/><circle class="cls-7" cx="606.87" cy="204.87" r="3.66"/></g><g class="cls-22"><rect class="cls-27" x="670.45" y="259.59" width="7.74" height="7.74"/><circle class="cls-7" cx="674.32" cy="263.45" r="3.87"/></g><g class="cls-28"><rect class="cls-27" x="1095.93" y="419.18" width="8.74" height="8.74"/><circle class="cls-7" cx="1100.3" cy="423.55" r="4.37"/><rect class="cls-27" x="1244.03" y="350.31" width="6.01" height="6.01"/><circle class="cls-7" cx="1247.03" cy="353.31" r="3"/><rect class="cls-27" x="1232.44" y="379.19" width="4.13" height="4.13"/><circle class="cls-7" cx="1234.5" cy="381.25" r="2.06"/><rect class="cls-27" x="1193.84" y="340.35" width="4.92" height="4.92"/><circle class="cls-7" cx="1196.3" cy="342.81" r="2.46"/><rect class="cls-27" x="1425.16" y="351.71" width="4.95" height="4.95"/><circle class="cls-7" cx="1427.64" cy="354.18" r="2.48"/><rect class="cls-27" x="1406.33" y="342.68" width="7.7" height="7.7"/><circle class="cls-7" cx="1410.18" cy="346.53" r="3.85"/><rect class="cls-27" x="1447.3" y="358.12" width="8.69" height="8.69"/><circle class="cls-7" cx="1451.64" cy="362.46" r="4.34"/><rect class="cls-27" x="1671.62" y="389.26" width="3.89" height="3.89"/><circle class="cls-7" cx="1673.57" cy="391.21" r="1.95"/><rect class="cls-27" x="1575.33" y="339.09" width="4.79" height="4.79"/><circle class="cls-7" cx="1577.72" cy="341.48" r="2.4"/><rect class="cls-27" x="1501.51" y="322.73" width="5.91" height="5.91"/><circle class="cls-7" cx="1504.46" cy="325.68" r="2.95"/><rect class="cls-27" x="1679.7" y="325.63" width="4.16" height="4.16"/><circle class="cls-7" cx="1681.78" cy="327.71" r="2.08"/><rect class="cls-27" x="1524.75" y="196.62" width="4.16" height="4.16"/><circle class="cls-7" cx="1526.83" cy="198.7" r="2.08"/><rect class="cls-27" x="1424.49" y="147.69" width="4.6" height="4.6"/><circle class="cls-7" cx="1426.79" cy="149.98" r="2.3"/><rect class="cls-27" x="1509.2" y="211.21" width="7.32" height="7.32"/><circle class="cls-7" cx="1512.87" cy="214.87" r="3.66"/><rect class="cls-27" x="1576.45" y="269.59" width="7.74" height="7.74"/><circle class="cls-7" cx="1580.32" cy="273.45" r="3.87"/></g><rect class="cls-29" width="1920" height="1080"/></g></g></svg>
