<svg xmlns="http://www.w3.org/2000/svg" xmlns:xlink="http://www.w3.org/1999/xlink" width="1920" height="1080" viewBox="0 0 1920 1080"><defs><style>.cls-1{fill:none;}.cls-2{fill:#754c24;}.cls-3{filter:url(#AI_GaussianBlur_4);}.cls-4{fill:url(#linear-gradient);}.cls-5{fill:#4d4d4d;}.cls-6{fill:url(#White_Black);}.cls-7{fill:url(#White_Black-2);}.cls-8{fill:url(#linear-gradient-2);}.cls-9{fill:url(#linear-gradient-3);}.cls-10{fill:url(#linear-gradient-4);}.cls-11{fill:url(#White_Black-3);}.cls-12,.cls-16{opacity:0.61;}.cls-12{fill:url(#linear-gradient-5);}.cls-13{fill:url(#White_Black-4);}.cls-14{fill:#8c6239;}.cls-15{fill:url(#linear-gradient-6);}.cls-16{fill:url(#linear-gradient-7);}.cls-17{clip-path:url(#clip-path);}</style><filter id="AI_GaussianBlur_4" name="AI_GaussianBlur_4"><feGaussianBlur stdDeviation="4"/></filter><linearGradient id="linear-gradient" x1="959.55" y1="588.15" x2="960.22" y2="706.82" gradientUnits="userSpaceOnUse"><stop offset="0" stop-color="#fff"/><stop offset="1" stop-color="#fff" stop-opacity="0"/></linearGradient><linearGradient id="White_Black" x1="959.25" y1="610.05" x2="963.25" y2="372.05" gradientUnits="userSpaceOnUse"><stop offset="0" stop-color="#fff"/><stop offset="1"/></linearGradient><linearGradient id="White_Black-2" x1="956.55" y1="756.06" x2="962.55" y2="1118.06" xlink:href="#White_Black"/><linearGradient id="linear-gradient-2" x1="703" y1="939.5" x2="1396" y2="939.5" gradientUnits="userSpaceOnUse"><stop offset="0" stop-color="#e6e6e6"/><stop offset="1" stop-color="#999"/></linearGradient><linearGradient id="linear-gradient-3" y1="938.5" x2="829" y2="938.5" xlink:href="#linear-gradient-2"/><linearGradient id="linear-gradient-4" x1="4982" x2="5068" gradientTransform="matrix(-1, 0, 0, 1, 6390, 0)" xlink:href="#linear-gradient-2"/><linearGradient id="White_Black-3" x1="245" y1="479" x2="338" y2="479" xlink:href="#White_Black"/><linearGradient id="linear-gradient-5" x1="250" y1="520" x2="333" y2="520" xlink:href="#linear-gradient-2"/><linearGradient id="White_Black-4" x1="140" y1="479" x2="233" y2="479" xlink:href="#White_Black"/><linearGradient id="linear-gradient-6" x1="1365" y1="933.5" x2="1570" y2="933.5" gradientUnits="userSpaceOnUse"><stop offset="0" stop-color="#8c6239"/><stop offset="1" stop-color="#c69c6d"/></linearGradient><linearGradient id="linear-gradient-7" x1="145" y1="520" x2="228" y2="520" xlink:href="#linear-gradient-2"/><clipPath id="clip-path"><rect class="cls-1" x="-1970" width="1920" height="1080"/></clipPath></defs><title>Bar</title><g id="Forgrund"><rect class="cls-2" y="617" width="1920" height="463"/><g class="cls-3"><rect class="cls-4" y="632" width="1920" height="73"/></g><rect class="cls-5" y="617" width="1920" height="15"/><rect class="cls-6" y="514" width="1920" height="103"/><rect class="cls-7" y="848" width="1920" height="232"/><rect x="380" y="572" width="684" height="5"/><polygon points="1064 572 380 573 428 541 1042 541 1064 572"/><rect x="1079" y="570" width="684" height="5"/><polygon points="1763 570 1079 571 1112 539 1724 539 1763 570"/><polygon class="cls-8" points="1396 1001 703 1001 829 878 1311 878 1396 1001"/><polygon class="cls-9" points="703 1000 829 1000 829 877 703 1000"/><polygon class="cls-10" points="1408 1001 1322 1001 1322 878.01 1408 1001"/><path class="cls-11" d="M245,557l21.19-146a12.15,12.15,0,0,1,11.95-10h36.43a10.05,10.05,0,0,1,10,9.41L338,557H245Z"/><path class="cls-12" d="M250,589.61l18.91-130.32a10.85,10.85,0,0,1,10.67-8.9h32.51a9,9,0,0,1,9,8.4l12,130.82H250Z"/><path class="cls-13" d="M140,557l21.19-146a12.15,12.15,0,0,1,11.95-10h36.43a10.05,10.05,0,0,1,10,9.41L233,557H140Z"/><polygon class="cls-14" points="1570 1007 1455 1007 1365 878 1365 869 1570 998 1570 1007"/><polygon class="cls-15" points="1570 998 1455 998 1365 869 1467 869 1570 998"/><path class="cls-16" d="M145,589.61l18.91-130.32a10.85,10.85,0,0,1,10.67-8.9h32.51a9,9,0,0,1,8.95,8.4l12,130.82H145Z"/></g></svg>
