<svg xmlns="http://www.w3.org/2000/svg" width="270" height="350" viewBox="0 0 270 350"><defs><style>.cls-1{fill:#000b00;}.cls-2{fill:#ffe6b4;}</style></defs><title>Gin</title><g id="Forgrund"><path class="cls-1" d="M70.47,44.5h174a5,5,0,0,1,5,5v199a2,2,0,0,1-2,2h-180a2,2,0,0,1-2-2V49.5A5,5,0,0,1,70.47,44.5Z"/><path class="cls-1" d="M144.47,11.5h27a4,4,0,0,1,4,4v42a12,12,0,0,1-12,12h-11a12,12,0,0,1-12-12v-42A4,4,0,0,1,144.47,11.5Z"/><rect class="cls-2" x="96.41" y="82.47" width="123.07" height="123.07" transform="translate(148.08 -69.51) rotate(45)"/><path d="M110.12,129.17v-.37h-.52v-.44h.15v.08a.6.6,0,0,0,.15-.37l.8.37a.45.45,0,0,1,.07.29v.15c-.07,0-.07,0-.07.07s.51.22.58.22v.22A3.4,3.4,0,0,1,110.12,129.17Zm-.52,1v-.3h.15c.07-.07.15-.07.15-.14a.56.56,0,0,1,.14.36v.08Zm.44.29c.08-.08.08-.15.08-.29l.21.29Zm.29.65v-.21h.37v.21Zm.37-18.9v-.08h-.29v-.51c.14.08.22.22.36.3v.29Zm-.22,5.33h-.07a.59.59,0,0,1,.07-.37l.22-.29h.22A2.18,2.18,0,0,0,110.48,117.49ZM139,162.23l.07.22.3.22c-.3.44-.44,1-.95,1.1,0,.51.14.87.65.87-.22.73-.07,1.39-.51,2.05l-.87.22v-.3h-.81v.3c-.07.07-.07.07-.14.07s0-.37-.37-.37v.3c-.07-.08-.44-.37-.44-.37s-.29.29-.29.37c-.58-.08-.44-.15-.87-.37l-.22-.58c.07,0,.36.07.51.07s.14-.15.29-.29h.07l-.51-.29-.73.07v-.44c.07-.07.15-.22.29-.29a1.29,1.29,0,0,1-.43-.66c-.22.08-.59.44-.59.66h-.51l-.07.66a1.52,1.52,0,0,0-.59.07v.29h-.29V166a.75.75,0,0,1-.73.29v.37c-.29-.08-.51-.22-.8-.29V167h-.15a1,1,0,0,1-.51.22c-.14,0-.29-.08-.51-.08a.49.49,0,0,0-.51.3h-.29c.07-.08.14-.22.22-.3a.28.28,0,0,0-.3.3c-1.09,0-.72-.73-1.75-1.1v-.58h-.36v.58h-.8a1.63,1.63,0,0,1,.21-.36c0-.08-.14-.15-.21-.22v-.15H126V165c.14,0,.29-.07.58-.07.07,0,.15.07.22.07h.44l-.15-.07v-.3h.22c.15-.07.15-.07.15-.14l.07-.08c-.07-.07-.15-.14-.22-.14s-.07.07-.22.07-.14-.36-.8-.36c-.22,0-.37.36-.51.36h-.08v.07h.3v.52a2.12,2.12,0,0,0-.66.07h-.15a.59.59,0,0,0-.07-.37h.37V164c.14-.08.29-.22.43-.3a.93.93,0,0,0-.43-.07c.21-.44.21-.14.43-.36v-.88a1,1,0,0,0-.58.51h-.07v-.73a2.12,2.12,0,0,1,.07-.66v-.58h.15c.36.73.58.37.58,1.46.14-.22.8-.73.8-1.09h.22l.07.21c0,.08.08.08.15.08s0-.37.07-.37l.15.08v.21l.51.22c.22-.14.58-.07.88-.22v-.29c.07.15.21.22.21.44.66-.22.44-.22.88-.36a.53.53,0,0,0-.15-.3c-.51,0-.36-.65-.51-1l.3-.07.07-.22c.58,0,.58,0,.88.51h.36v-.66c-.22.15-.15.3-.15.44l-.21-.44h-.44v-.29h.65a.5.5,0,0,1,.44.29h.15V159h.58c-.14.15-.22.29-.29.29v.44c.73-.29.58-.51,1.09-1v-.15a.07.07,0,0,0,.08-.07c.07,0,.07.29.07.29a1,1,0,0,0,.44-.07v-.51c-.29,0-.66.07-1,.07-.8,0-1.53-.07-2.26-.07l.07-.58a.36.36,0,0,1,.29-.15v-.29c-.36.14-.8.22-1.17.36h-.22v.66c-.29,0-.51.07-.8.07.07-.07.22,0,.37-.07v-.29h.22a1,1,0,0,0,.07-.44h.29V157h.29c-.07-.29-.22-.59-.29-.88h.37a1.67,1.67,0,0,0-.3-.73c-.07.15-.14.3-.22.44H129c.29-.66-.22-1.09.73-1.46-.07-.14-.07-.36-.15-.51l-.44.22v.29H129a13.59,13.59,0,0,1,.36-1.75c0-.44-.29-.51-.58-.51v-.44h-.88c0-.73.66-.66.66-1.31,0-.3-.36-.22-.36-.51a1,1,0,0,1,.14-.44h.15v-.73h-.37v-.22a3.29,3.29,0,0,0-.36-.07c-.15,0-.29.21-.51.29h-1v-.22h-.8v.22a.29.29,0,0,1-.15.07c-.15-.15,0-.29-.15-.29s-.22.14-.22.29v.07l-.14-.14v-.22c-.44-.15-.44-.51-.44-1.1a4.39,4.39,0,0,1,.07-1h-.07a.39.39,0,0,0-.29-.14.9.9,0,0,0-1,.95c0,.51.14,1.17.14,1.46,0,.07-.44.07-.51.14s.07.29.15.37h.58v.51h-.29a.82.82,0,0,0-.07.36c0,.44.43.51.43.88-.14.07-.22.15-.22.29s.22.37.22.8a32.7,32.7,0,0,1-.51,3.8.6.6,0,0,0,.44.29,2,2,0,0,0-.44,1.39c-.36-.15-.43-.58-.43-1h-.22a2.06,2.06,0,0,1-.37.44v.58h-.36c.22.73,1,.59,1.6.73,0,.66-.36.88-.36,1.24s.36.3.36.51a3.1,3.1,0,0,1-.07.37h-.29v1.82c-.08-.07-.08-.21-.15-.29-.66,0-1.39-.07-1.68.73-.29-.14-.22-.07-.44-.29-.14.07-.29.22-.43.29v.22c.21.15.51.07.73.22v.15h.22v.36c.07.07.21,0,.29.07s.07-.29.07-.43h1.24v-.37h.15v.22H123v.58h-.29c0,.3,0,.59.29.73v.22h-.36a4.3,4.3,0,0,1-.07-.95l-.44.08-.15.22-.07.36-.07-.36h-.15l-.15.07c-.07.15-.07.22-.14.36s-.44-.14-.44-.29A.24.24,0,0,0,121,164a.57.57,0,0,0-.14-.37h-.15c-.07-.14-.07-.22-.15-.36h-.36l.07.22c.07,0,.15.07.22.14v.8c-.22-.14-.44-.07-.66-.21a1.11,1.11,0,0,1,.37.8c.29,0,.58-.07.88-.07v.43l.14-.14s.15-.15.15-.22h.07a.85.85,0,0,1-.07.44v.29c.22,0,.36-.07.36-.15h.22c0,.15,0,.73-.22.73-.07,0-.65-.29-.87-.36v-.59a3.72,3.72,0,0,1-1-.43h-.65v-.3h-.59v-.22h-.51a2.94,2.94,0,0,1-.36-1.31,1,1,0,0,0-.44.07l-.22.44c-.29-.14-.58-.36-.58-.66,0-.07.07-.21.07-.29v-.29h.51c.07-.29.07-.58.15-.88.14.15.36.15.51.22a3.58,3.58,0,0,1-.37-.8c.73-.15,1-.51,1.83-.51-.15-.29-.81-.44-1.1-.44v.44c-.07-.07-.14-.07-.29-.07a.41.41,0,0,0-.37.22h-.21v-.37h-.3V160l-.73.22a1.36,1.36,0,0,1,.3.73,12.3,12.3,0,0,0-1.68.37v-.37h.58a.65.65,0,0,0-.07-.36v-.15h-.07a1.52,1.52,0,0,0-1.1-.44c.07-.07.15-.44.22-.44s.07.15.07.15.29-.22.37-.29v-.15c-.08-.07-.08-.22-.15-.29h-.22v.58h-.36a3.1,3.1,0,0,1,.07-.8c0-.36.07-.51-.44-.8v-.73a.39.39,0,0,1,.29-.37c-.14-.29-.73-1-.73-1.24s.52-.44.52-1c0-.14,0-.29-.08-.36h-.29a.45.45,0,0,1-.07-.29c0-.15.22-.15.22-.22s-.3-.22-.37-.22a2.12,2.12,0,0,1,.07-.66h.3c.14-.14.14-.22.14-.44s.37-.22.44-.29v-.07c-.36-.29-.95-.8-.95-1.24s.07-.73.07-1.17h-.43v-.29c.07,0,.14.07.22.07a.26.26,0,0,0,.21-.07h.15c0-.22-.22-.3-.36-.3a2.61,2.61,0,0,1,.36-1.67.75.75,0,0,0-.51-.44v-1c.07-.08.07-.15.15-.15a.07.07,0,0,0,.07.07c.07,0,.07-.22.07-.22h-.29v-.07c0-.36.36-.14.36-.36s-.07-.15-.07-.22h-.29c0-.22,0-.44-.07-.51.14-.3.58-.59.58-.88,0-.07-.07-.15-.15-.22l-.36-.15a.93.93,0,0,1-.07-.43,3.2,3.2,0,0,1,.36-1.17,9.35,9.35,0,0,1-.14-1.39h-.22v-.73H113v-.07c0-.22-.3-.07-.3-.37a.42.42,0,0,1,.08-.29l.36-.22c.07-.07.07-.14.07-.29,0-.36-.36-.36-.36-.73h.29l-.14-.29h-.52a.7.7,0,0,1,.37-.07v-.51c.07-.08.22-.15.29-.22,0-.44-.14-.66-.58-.66a6.67,6.67,0,0,0,.14-1.17.73.73,0,0,0-.14-.51c0-.44,0-1,.58-1v-.73h-.29v-.95h.29a3.92,3.92,0,0,0-.87-1.61v-.14h.58v-.51H112c.22-.22.37-.08.59-.22v-.15h-.15a.27.27,0,0,1-.07-.22l.14-.07s.08,0,.08-.07v-.59h-.29c.07.08.07.15.14.22v.29c-1,0-.58-.36-1.39-.51,0,.37.08.59.51.59V129h-.21v-.15h-.3v-.36h-.29v-.37h-.29c.07-.07.15-.44.29-.44s.08.15.15.15c.44,0,.22-.8.51-.8.07,0,.07.14.14.14a2.75,2.75,0,0,0,.15-.44c.22,0,.22.3.29.3h.44a7,7,0,0,0,.07-1.24H112a1.62,1.62,0,0,0-.29.36h-.15c.08-.44.15-.29.15-.73.59,0,1.53-.58,1.53-.8s-.43-.22-.43-.51c0-.08.07-.22.07-.3h.29c0-.36.07-.72.07-1.09h.3V122c.22-.07.58-.22.58-.51,0-.14-.15-.44-.15-.58a1.16,1.16,0,0,0,.08-.51c.51-.29,1.24-.15,1.24-1.17,0-.07-.07-.15-.07-.22v-.22c.58,0,1.31-.15,1.31-1.09h.36v-.44c.51-.15.44-.29,1-.29.29-1.1,1.6-.66,2.55-1,0-.14,0-.36.07-.43h.88v-.3h.88v.3h.87c0,.43-.22.65-.22,1h.22v.29a.8.8,0,0,1-.07.22v.22h.29c0,.14.07.22.07.36s-.29.44-.36.66h.36c0,.66.44.66.44.95h.51a1,1,0,0,1-.07-.44,3.42,3.42,0,0,0,.73-1h.37v-.51H126v-.44h-.3v-.73h-.21a.91.91,0,0,0,.14-.58H126v-.3h.73V115a.25.25,0,0,1,.15-.07c.21,0,.14.44.29.59,1.09,0,2.11.07,3.21.07V116h.07c.15,0,.44-.14.44-.36.15.66.44.8.66.8s.29-.07.43-.07v.22h.59v.29a2.11,2.11,0,0,0,1,.15c-.07.07-.15.22-.22.29h.44v.22c.07.07.14.14.22.14a2.86,2.86,0,0,1,.36-.07c.07,0,.15.07.22.15v.21H135v.3c.22,0,.44.07.65.07v.29h.22v.22l.37.22v.51c.07.07.22,0,.29.15h.07c0,.22-.07.36-.07.58H137a2.77,2.77,0,0,1,.14,1h.3v.37l.36.07v.73a.7.7,0,0,1-.14.51c.29.08.51,0,.58.22,0,.44-.44.29-.44.8,0,.3.29.08.44.44v.51h.29c0,.08-.07.15-.07.22l.07.07c-.14.15-.29,0-.29.37l.15.15c0,.07-.08.14-.08.22l-.14.14v.37h.22v.65h.29v.08c0,.29-.37.21-.37.58a.4.4,0,0,0,.08.29h.29c0,.59-.44.81-.44,1.17l.15.07a.24.24,0,0,1,.14.08v.43h-.44v.59a1,1,0,0,1,.59.14v.51h-.59a3.49,3.49,0,0,0-.22.81h.3v.51h.22a1,1,0,0,1,.14.44l-.07.14a.07.07,0,0,0-.07.08c0,.07.51.29.58.29a1.29,1.29,0,0,0-.29.44h-.29v-.52h-1l.22.3v.22c.07,0,.14,0,.14-.08l-.07-.07a.07.07,0,0,1,.07-.07l.29.22v.36a.53.53,0,0,0,.3-.15v.15h.29v.44H139v.29h-.51l-.22-.29c-.51.14-.51.66-1.39.66a.51.51,0,0,1-.43-.15H136l-.22-.22c.14-.15.22-.29.36-.29a1.34,1.34,0,0,1-.22-1h-.14a1.93,1.93,0,0,0-.15.95c-.44,0-.58,0-.73-.37h-.29c0,.29-.07.51-.07.73h-.88c-.07-.36-.29-.58-.36-.88h-.52v.15H132V134c-1,.22-1,1.46-1.45,1.46a.15.15,0,0,1-.15-.14V135h-.8v-.95c-.15-.15-.3-.22-.37-.29v-.22h.07c0-.08.08-.15.08-.22,0-.29-.3-.44-.3-.73s.15-.44.15-.73c0-.44-.44-.81-.44-1.17,0-.07,0-.15.08-.15h.21l.15-.43c-.36-.44-.51-.3-.51-1-.44,0-1.31.07-1.61-.37-.43.08-.73.29-1.16.37,0,.22.07.36.07.51-.73-.22-.29-1-1-1.32v-.29h.44v-.22h.43c0-.22,0-.44.15-.44v-.29c.07-.07.07-.07.14-.07l.08.15c0,.36,1.09.14,1.46,1.16,1,0,1.09-.58,1.09-1.24,0-.36-.07-.8-.07-1h-.44c-.14-.14-.14-.29-.22-.44h-.22a1,1,0,0,1-.51.22c-.22,0-.43-.14-.73-.14.08,0,.15-.15.3-.15-.08-.07-.15-.15-.15-.22v-.51a1.71,1.71,0,0,1-.51.22.35.35,0,0,1-.29-.15v-.22h-.3c-.07.08-.14.3-.29.3l-.07-.15c-.07-.07-.07-.07-.15-.07a1,1,0,0,0-.43.14h-.3c0,.15.15.22.3.22a.9.9,0,0,1-.81.59v.73h-.36v1.16h.65v.44l-.29.29c-.22,0-.51.08-.73.08V129a1.21,1.21,0,0,0,.66-.22.51.51,0,0,1,.29.15c.22,0,.15-.3.22-.44h.44v.36a3.14,3.14,0,0,1-1,.59,2.72,2.72,0,0,1,.36,1c-.07,0-.29,0-.36.14h-.29c-.08.08-.08.22-.08.44s.08.37.08.59a.63.63,0,0,1-.44.58,1.17,1.17,0,0,0,.51.66V133l-.15.15a.69.69,0,0,0,.44.44v.58a3.21,3.21,0,0,0-.51.37v.36h.44v.44l-.44-.22a2.18,2.18,0,0,0,.51,1.53.9.9,0,0,1-.29.59h-.22v.36a.28.28,0,0,0,.22-.07c.22,0,.29.07.29.29h-.36v.29a.69.69,0,0,0,.65-.29h.15a.85.85,0,0,1-.73.66c.15.07.37,0,.51.07v.29h.51V139c.08-.07.08-.29.08-.44.29.15.65.08.94.22V139c.08,0,.15.07.22.07V139c0-.15.15-.15.22-.15.22,0,.37.22.66.22h1.09v.29c.08.08.08.08.15.08.22,0,.22-.51.51-.51.66,0,1.1.65,1.75.65.44,0,.81-.14,1.17-.14s.73.07,1.17.07l.14-.15h.15a1.74,1.74,0,0,0,.37.15,3.3,3.3,0,0,1,1.24-.22c.22,0,.43.15.65.15s.44-.3.73-.37v.29h.52v.15h.14v.73c.37,0,.73-.07,1.1-.07a.88.88,0,0,1,.87.65v.73c0,.22-.29.22-.44.22,0,.37,0,.29.3.29v.37h-.22c.14.15.22.44.36.58a.52.52,0,0,1-.36.15c.14.51.58.58.58,1.39l-.07.21h-.29v.44h.36a.9.9,0,0,1-.36.73l.29.22a5.84,5.84,0,0,0-.29.73l-.15-.22a.24.24,0,0,1-.07-.14h-.08c0,.44-.07.87-.07,1.31,0,1.17.51,1.53.73,2.34h-.36c.21.29.73.58.73.95,0,.22-.15.36-.15.58a2.32,2.32,0,0,1,.29.95.56.56,0,0,1-.14.29v.22H139a1.41,1.41,0,0,1,.15.51v.73h-.73v.73h.36c0,.22,0,.59-.22.73.15.15,0,.29.44.29a2.25,2.25,0,0,0-.15.73c0,.44.15.88.15,1.39l-.44-.15-.14-.14h-.3c-.14.07-.14.22-.14.36a5.71,5.71,0,0,0,.22,1.24.32.32,0,0,0,.22-.22h.36a.39.39,0,0,1-.36.22v.22c.21.15.51.08.73.22,0,.51,0,.59-.88.59v.36l-.37-.22a1.06,1.06,0,0,0,1,.51c.22,0,.44-.07.59-.07A2,2,0,0,1,139,162.23Zm-28.47-32.11v-.3h.22v.3Zm.73-14.6v-.3h.36v.3Zm.15,12.11a1,1,0,0,0,.65.22C111.87,127.63,111.57,127.63,111.36,127.63Zm0,9.2v-.22h.29v.22Zm.21-12.85a.26.26,0,0,1,.08-.22.29.29,0,0,1,.07.22Zm.44-12.11h-.29v-.59h.44C112.16,111.5,112,111.65,112,111.87Zm.51,34.82v-.3h.08v.3Zm.52-34.82v.21h-.22a1.49,1.49,0,0,0,.22-.65h.21Zm.14,40.29.07-.36a.5.5,0,0,1,.15.36Zm.22-33.94a.56.56,0,0,1,.29.07A.56.56,0,0,0,113.4,118.22Zm.15,26.64-.15-.15v.3h.15Zm1.38,12c-.07,0-.07.15-.14.15s-.22-.37-.22-.44h-.44c.15.29.44.58.44,1,.29-.15.36-.07.66-.29C115.15,157.05,115.08,156.83,114.93,156.83Zm0-38.54h-.29v-.58l.59.21C115.15,118,115,118.22,114.93,118.29Zm-.14-4.89v-.15h.14v.15Zm.22,46.13h-.22l.22.15Zm.29-46.28v-.36h.07v.36Zm1.75,44.31c-.88,0-1,.22-1,1l-.29-.21a.86.86,0,0,0-.44-.08c0,.44-.07.88-.07,1.24,1.09-.14,1-.58,1.9-.95C117.05,158.29,117.2,157.93,117.05,157.56Zm-1.24-41.24c-.15.44-.22.58-.44.58v-.36Zm-.22-3.51v-.29h.22v.29Zm.29,47.38h-.22c.08.07.08.15.15.22l.07.07Zm0,2.48v-.29h.29v.29Zm.59-7.08h-.3l-.07.66h.07v-.15h.3Zm1-4.23v-.22h-.44a1,1,0,0,0,.15.66v.29h.29a.84.84,0,0,0,.07-.37v-.14A.27.27,0,0,0,117.49,151.36Zm1.09,5.62a.24.24,0,0,1-.14.07V157l-.15.22c-.44,0-.51-.22-.88-.37a.46.46,0,0,0-.07.29c.07.08.22.08.37.08-.15.14-.22.36-.51.36v.37a1,1,0,0,0,.14.29.8.8,0,0,0,.59-.66h.29a1.31,1.31,0,0,1-.44.66v.07c.44,0,.8-.07,1.17-.07C118.73,157.64,118.58,157.64,118.58,157Zm-1.38,2v.29h.14C117.27,159.17,117.27,159,117.2,159Zm.21,3.28h-.21l.21.15Zm-.07-6.93.22.29h.51C117.78,155.3,117.63,155.45,117.34,155.3Zm.07.95c.08.22.22.36.3.58h.22c.07-.22.07-.44.14-.73C117.85,156.1,117.63,156.25,117.41,156.25Zm1,6.13h-.37v-.44h-.29c0,.08-.07.66-.07.73v.22h.73Zm-.22-3.58h-.29a.15.15,0,0,0,.14.15h.15ZM119,161h-1a4.94,4.94,0,0,1,.37.51H119Zm-.36-49.42-.08.3h-.36v-.59h.66v.15Zm-.08,4.38h-.29a2.17,2.17,0,0,1,.37-1H119A4.6,4.6,0,0,0,118.58,116Zm-.22,47.67h-.07a1.31,1.31,0,0,0,.51.07H119A1.52,1.52,0,0,0,118.36,163.62Zm.81-16.71H119v.29h.22Zm.29,17.08H119v.22h.51Zm.29-10.37h-.29V154h.29Zm-.07,8.61h-.15a1.32,1.32,0,0,0,.59.15h.07A.69.69,0,0,0,119.68,162.23Zm1.39-3.65h-.37v.22a.51.51,0,0,1-.29.15l-.15-.07c0-.08-.07-.15-.14-.3h-.3l-.07.44a.46.46,0,0,0-.07.29c0,.22.14.37.44.37v.51a.68.68,0,0,1,.58-.22v-.73h.66C121.28,159,121.14,158.8,121.07,158.58Zm-.59-2.55.07-.07a.58.58,0,0,1-.29-.15c-.07.22-.29.29-.44.44v.29h.66v-.15c.07,0,.07-.14.07-.14S120.48,156.1,120.48,156Zm-.66,1.46a.48.48,0,0,0,.3.07h.07C120.12,157.49,119.9,157.56,119.82,157.49Zm.66,9.2-.29.29v-.58h.51l-.22-.08V166c.22.14.29.22.51.36v.37Zm.37-9.86c-.15.37,0,.73-.15,1.1h.37a3.45,3.45,0,0,0,.07-.81v-.29Zm.51,3.73h-.51v.36h.51Zm-.22,2.11c.14.08.22.08.29.22v.22A1.75,1.75,0,0,0,121.14,162.67Zm.66,2.34h-.08v-.37h.22c.07.08.07.22.15.3A.46.46,0,0,1,121.8,165Zm.73-9.93h-.3l-.14.22a.56.56,0,0,0,.36.07h.08Zm-.44,11.9v-.58h.22a1.81,1.81,0,0,0,.29-.81h.22V167Zm1-12.26h-.29a.58.58,0,0,1,.29.07Zm.07-13.73-.22.15.22.14h.22C123.33,141.21,123.25,141.07,123.18,141Zm.29-1c0-.07.08-.07.08-.15a.25.25,0,0,1-.15-.07v.51l.15-.07C123.55,140.12,123.47,140,123.47,140Zm0,1.17v.58l.15-.07a1.09,1.09,0,0,1,.15-.29l.07-.15C123.69,141.21,123.62,141.14,123.47,141.14Zm.88-21.61h-.22c-.14.29-.14.66-.29,1,.07.07.29.07.36.07a.46.46,0,0,1-.36.44v.66h-.29V122h.29c0-.22.07-.44.07-.73.29.15.29.08.51.37l-.22.07c0,.07-.07.15-.07.22s.15.07.15.15a1.81,1.81,0,0,1-.37.14,2,2,0,0,0,1.17.44v-.44h-.29v-1l-.15-.07h.08V121c.07,0,.07.29.07.29h.44C124.86,120.48,124.5,120.63,124.35,119.53Zm-.44-.29h-.29v.29h.29Zm.44,21v.29l.07-.07Zm.37-.95h-.3l.22.22v-.15h.08Zm.36,27.74v-.58h.22V167Zm.58-44.75-.14-.07a.25.25,0,0,0-.07-.15c0,.15-.22,0-.22.37h.43ZM125.23,164v-.3h.07v.3Zm.07-23.58v.29h.36C125.66,140.48,125.45,140.41,125.3,140.41Zm.29,27a.48.48,0,0,0,.07-.3c.08.08.15.22.22.3Zm1.17-53.14c-.29,0-.59-.15-.88-.15v-.51l.15-.22c.14.14.14.29.22.44.29-.08.51-.3.87-.44v.44A.47.47,0,0,0,126.76,114.28ZM126,161a1.09,1.09,0,0,1,.29-.8h.22l-.22.22a.55.55,0,0,0,.51.58v.3C126.47,161.21,126.25,161.07,126,161Zm.87,2.12a2.73,2.73,0,0,0-.58-.22c-.08.07-.08.22-.22.29l-.07.08a1,1,0,0,1,.65.22c.08,0,.08-.08.15-.15h.07Zm-.87,3.58h.29v.43C126.1,167,126,167,126,166.69Zm.43.58.22-.07v-.08h.22v.3C126.69,167.34,126.54,167.34,126.39,167.27Zm.22-26.5v.37h.22Zm.15,20.95v.3l.07-.08Zm.51-.8-.15-.22-.29-.14.22-.37h.44C127.42,160.41,127.34,160.63,127.27,160.92Zm.44,1.46c-.07,0-.15-.07-.22-.07a.28.28,0,0,0-.22.07h-.15v.51h-.29a.29.29,0,0,0,.22.07h.15c.14,0,.36-.07.51-.07Zm0-2.19a4.06,4.06,0,0,1-.51-1.24.75.75,0,0,1,.36.73,1,1,0,0,0,.51-.15A.87.87,0,0,0,127.71,160.19Zm-.44-46.35h.22v.44C127.42,114.13,127.34,114,127.27,113.84Zm.44,47.88h-.22v.51H128C127.85,162,127.93,161.94,127.71,161.72Zm.14-3.43h-.14v-.73h.36v.66A.29.29,0,0,0,127.85,158.29Zm0,.51.22.15C128,158.88,127.93,158.88,127.85,158.8Zm1,2.19c-.15,0-.3-.07-.44-.07s-.29.22-.37.37h-.22v-.15a3.46,3.46,0,0,1,.22-1.17h.59a1.06,1.06,0,0,0,.58.95A.68.68,0,0,1,128.88,161Zm-.15-36.06h-.44v.44h.37a.28.28,0,0,1,.07-.22Zm-.44,31.17v-.29h.37v.29Zm0,2.7s0-.22.07-.22h.37v.22Zm.15,6.14h-.15l.15.07Zm-.08-3v.29h.37C128.58,162.09,128.58,161.94,128.36,161.94Zm1.76-13.28c-.51.22-.22.43-.51.73h-.3v.22c-.14.14-.8.07-.87.07a2,2,0,0,1,.29.87c.44-.14.36-.21.88-.21,0-.51.14-1.1.8-1.17A1.12,1.12,0,0,1,130.12,148.66Zm-.88-21.25h-.51v.44h.51Zm-.51,34.82c.07.22.15.44.22.66h.29A.59.59,0,0,0,128.73,162.23Zm.88-11.31h-.52v.44a1,1,0,0,1,.44-.07v-.15h.08Zm.07-20.07h-.15l-.29.21c.07.08.22.3.29.37h.15Zm-.44,31.09v.44h.07v-.15h.3C129.46,162.09,129.46,161.94,129.24,161.94Zm.37,1.17-.37.07a.4.4,0,0,0,.29.08h.08Zm.36-.73h-.66v.51a1.24,1.24,0,0,0,.37-.22.34.34,0,0,1,.22.22H130Zm-.44-4.16c.08,0,.15,0,.15.07Zm.37-1.39h-.29l.29.15Zm-.22,2.12c.07-.15.14-.22.22-.37l.22.22V159Zm.22-20H130v.36A3.29,3.29,0,0,1,129.9,139Zm.66,21.24H130a.45.45,0,0,0-.07.29c.07-.07.29-.07.36-.07v.15h.22v.36h.44A2.37,2.37,0,0,0,130.56,160.19Zm-.44,4-.22.21v.22h.51l.07-.22C130.41,164.35,130.19,164.28,130.12,164.21Zm.29-40.81h-.29v.22h.36Zm0,30.44h-.29v.22h.29Zm0,11.17h-.29v.36h.29Zm1-32.19h-.59v.43h-.51v.3a1.31,1.31,0,0,0,.88-.44h.22Zm-.44,21.68c-.15,0-.36-.15-.51-.15h-.15v.44c.08,0,.22.07.3.07l-.08.07c0,.08.08.08.08.15s.14-.07.21-.15l.15-.14Zm.22,6.49h-.88v.51h.3v-.21c.14,0,.29,0,.29.21h.29Zm-.66,1.68h-.22v.22h.22Zm0-35a1.39,1.39,0,0,0,.37.22A.42.42,0,0,0,130.48,127.63Zm.08,34.6h-.08v.44h.08v-.29h.29A.29.29,0,0,0,130.56,162.23Zm.94-17h-.65a.83.83,0,0,1-.08.43c.08.22.3.22.44.3a.4.4,0,0,1,.29-.08Zm-.58,3.43h-.15V149h.15Zm.22-14.89h-.29c.07.07.22.14.29.21Zm.51,15.62c-.29-.15-.51-.08-.8-.22v.44c.14,0,.36.14.36.29.15,0,.22-.22.29-.29h.15Zm-.8,6c.07.15.43.73.43.81s-.21.36-.36.43l.44.22c.07-.44.07-1,.14-1.46Zm.51-3.06h-.44v.22h.22v.22c.07-.08.07-.08.14-.08h.08Zm.58,7.88h-.73a.59.59,0,0,1-.07.37h.29l.22-.15h.29Zm-.66,3.43h-.14c.07.07.36.07.44.07h.14C131.65,163.62,131.36,163.62,131.28,163.62Zm0,2.12-.14-.15V166h.22A.26.26,0,0,1,131.28,165.74Zm.95-29.71c-.51,0-.73-.29-1-.29a4.15,4.15,0,0,1,.44-.37.64.64,0,0,1-.22-.51,1.29,1.29,0,0,1,.07-.51h.15c.07.15.15.22.29.22s.44-.15.66-.15,1,.37,1,.73c-.07,0-.07.15-.07.15l.07.07C133,136,132.74,136,132.23,136Zm0,13.36h-.29v.14l.15.08v.29c-.15,0-.37.14-.59.14v.51a1.3,1.3,0,0,1,.73-.21Zm-.22,6.42h-.51a2.8,2.8,0,0,1,.22,1h.37A4.06,4.06,0,0,1,132,155.81Zm-.29,5.18h-.22v.51c.15.15.22,0,.44.22l.15-.14-.08-.08c0-.07.08-.14.08-.21C131.87,161.29,131.87,161.14,131.72,161Zm-.07-13.79v.14h.07v.29c.15-.14.29-.14.29-.43Zm.36-13.95h-.29v.3H132Zm.08,29.86h-.15a.59.59,0,0,0-.22.51h.37Zm-.08,1.31h-.29v.22H132Zm.44-29.71H132v.3h.44Zm-.22,18.4H132v.29h.22Zm0,2.48H132v.22h.22Zm-.14,4.6H132c.08.22.3.07.44.22A.39.39,0,0,0,132.09,160.19Zm.51-16.79a1.31,1.31,0,0,1-.51.07v.3h.51Zm0,5.55-.22-.15-.15.37h.37Zm-.22,12.77-.07.3.14-.08Zm.22-30.58h-.22v.29h.22Zm-.15,18.47c.15.29.29.43.29.73a1.32,1.32,0,0,0,.15-.59v-.14Zm.22,11.89c0-.07.07-.07.07-.14a.46.46,0,0,1-.29-.07v.43h.29C132.74,161.65,132.67,161.58,132.67,161.5Zm.07,1.39h-.29l.15.15c.07,0,.14,0,.14.07Zm.15-15h-.29v.29h.29Zm.37,9.56a1.15,1.15,0,0,1-.44.15c-.08,0-.15-.08-.22-.08v.66H133l.08-.44.22-.22Zm.07-29.64h-.59v.51c.37-.14.37-.07.59-.29Zm1.24,33.87c-.29-.14-.58-.14-.8-.43a2.62,2.62,0,0,1-1,.43v.22h.44l.15-.22h.73l-.15.15c-.07,0-.22.07-.29.07,0,.22.15.44.15.73a2.8,2.8,0,0,1,.8-.44ZM133.11,135l-.07.07a.25.25,0,0,1-.15-.07v.29h.37A.36.36,0,0,1,133.11,135Zm-.22,12.62v.3H133A.48.48,0,0,0,132.89,147.63Zm.37-.72H133v.29h.3Zm-.08,8.68-.22.22h.3C133.26,155.74,133.18,155.67,133.18,155.59Zm-.22,8.1v.3a.42.42,0,0,0,.3-.22h.07C133.26,163.69,133.11,163.77,133,163.69Zm.59.3h-.29v.22h.29Zm.29-3.58c-.07-.15-.22-.15-.29-.22l-.22.37h.51Zm0-27.67h-.29l.07.37c.07,0,.07-.07.15-.15h.07Zm-.07,16.87.07-.22h-.29v.29a.45.45,0,0,0,.29-.07Zm0,9,.07.37c.15-.15.29,0,.29-.37Zm.07-1.09v.07a1.14,1.14,0,0,1,.51.08.48.48,0,0,0,.07-.3A.85.85,0,0,1,133.84,157.49Zm.58-4.89h-.29v.51h.44C134.5,153,134.5,152.75,134.42,152.6Zm.08-19.78h-.3v.29h.3Zm.29,15.76h-.29l.29.08Zm0-.36v.36h.07A.68.68,0,0,0,134.79,148.22Zm0,15.47v.52l.29-.22C135,163.91,135,163.69,134.79,163.69Zm.07-7.88v.29h.44A4.56,4.56,0,0,1,134.86,155.81Zm0,7.45v.36h.22Zm.22-3.87c0-.08-.07-.08-.07-.15v.29h.07Zm0,4.6v.43h.29C135.37,164.13,135.23,164.13,135.08,164Zm.44-37.45v-.07h-.22v.21h.36C135.59,126.68,135.59,126.61,135.52,126.54Zm.07,27.45h-.29v.51h.29Zm-.22,11.75V166h.22Zm.51-8.91h-.14v-.29c0,.07-.08.07-.15.15V157h.29Zm-.29,4.09c0,.07.15.07.22.07h.07A.45.45,0,0,0,135.59,160.92Zm.44-11.75c.07.14.29.14.37.22A1.39,1.39,0,0,0,136,149.17Zm.37-15.62h-.3v.22h.3Zm.58.43h-.44v.15H137Zm.07-.73-.07.08c-.07,0-.22-.08-.29-.08v.3h.43A.48.48,0,0,1,137.05,133.25Zm-.14-6.57v.3l.36-.08A2.1,2.1,0,0,0,136.91,126.68Zm.36,3H137c.07.07.07.14.14.14h.15Zm.37,1.46h-.22v.65h.43Zm0,3.06c-.08,0-.22,0-.22-.07v.37h.36A.59.59,0,0,1,137.64,134.2Zm.14,5.41.07.14.22-.29C137.93,139.46,137.78,139.53,137.78,139.61Zm0,9.48v.44h.29C137.93,149.31,137.78,149.17,137.78,149.09Zm.59-5.4h-.3a1.87,1.87,0,0,0,.08.66h.22Zm0,6.65h-.3l.15.14c0-.07.07-.07.15-.07Zm.29,6.86a1.1,1.1,0,0,1-.44-.15c0,.07-.07.07-.15.15v.29h.3v.44h.29Zm-.08-10.15c-.07.07-.14.15-.21.15v.22h-.15v-.51h.44Zm.08-2.7h-.29a.38.38,0,0,0,.29.15Zm.14,14.31-.14.14h-.29a2,2,0,0,0,.29-.36H139v.14A.22.22,0,0,1,138.8,158.66Zm0-10.95-.07-.29H139v.43Z"/><path d="M161.29,126v-.52H161a1.17,1.17,0,0,1,.07.52,1.18,1.18,0,0,0-.73-.15V126h-.15v.36c.08.07.3,0,.37,0,0,.22-.07.44-.07.66l.07.07v.36c0,.37-.37.73-.37,1.1s.3.15.37.66h-.37a4.32,4.32,0,0,1,.59,1.31h-.44c0,.29.22.37.22.66.07,0,.07,0,.07.07l-.14.15v.29l.43.14c-.36.3-.73.37-.73,1,0,.15.15.37.15.51a1,1,0,0,1-.29.59c0,.22-.08.51-.08.8a1.52,1.52,0,0,0,.59-.07,1.65,1.65,0,0,1-.51.73v.44a1.09,1.09,0,0,0,.14.51c.08,0,.44.07.44.22s0,.07-.07.07-.22.15-.37.15c.15.43,0,.87.15,1.31,0,.22-.22.36-.22.58a.23.23,0,0,0,.07.15c.08.15.3.15.3.29v.22l-.3.15a7.11,7.11,0,0,1,.15.73,3.78,3.78,0,0,0-.15.87c0,.37.37.66.59.88v.22c-.08-.08-.22-.15-.29-.22-.22.07-.22.29-.44.44a2.2,2.2,0,0,1,.14.73,3.2,3.2,0,0,1-.14.8.71.71,0,0,0,.51-.51h.22c0,.22,0,.73-.37.73-.14,0-.29.29-.36.36a.42.42,0,0,0-.08.29c0,.08-.14.22-.22.3v.14h.74c-.08.22-.08.37-.22.51a.32.32,0,0,0-.22.22c0,.29.14.51.14.73H160c-.07.08-.14.08-.14.15s-.08.07-.08.07a2.12,2.12,0,0,0,.81,1.39,1.19,1.19,0,0,1-.81.95c.08.07.15.22.22.29v.15c.08,0,.08,0,.08-.08v-.22h.73l-.29,1.61h-.3v.8H160c-.07.08-.14.15-.14.22s.44.15.51.22l-.15.22a1,1,0,0,1-.58,1c0,.51.36.95.36,1.31a1,1,0,0,1-.36.66v.29a3.17,3.17,0,0,1,.73-.29l-.73.73a1.62,1.62,0,0,1,.14.8h.3l.07.08c0,.36-.51.8-.51,1.31a1,1,0,0,1,.07.44,11.3,11.3,0,0,1-.14,1.53h-.22c0,.44.22.22.29.37v.21l-.07.15c0,.44.07.88.07,1.31h-.51a2,2,0,0,0,.44.44.67.67,0,0,1-.52.22v.29a.59.59,0,0,0,.3.73.84.84,0,0,1-.08.44c-.22,0-.43-.07-.65-.07a1,1,0,0,0-.44.14l-.37.15c.08.22.15.44.37.51v-.14h.14v-.08a.51.51,0,0,1-.21-.22v-.07a3.25,3.25,0,0,1,1.16.07c-.07.15-.14.44-.22.66a.49.49,0,0,1,.3.51h.22v.07a1.21,1.21,0,0,0-.3.3h-.87c-.51,0-1,.07-1.46.07a1.44,1.44,0,0,1-.81-.15h-.21a.52.52,0,0,0,.21-.43,2.25,2.25,0,0,0-1-.22l-.22-.15v-.36a.48.48,0,0,0,.3.07c.07,0,.14-.07.21-.07h.08a1.13,1.13,0,0,1,.44.14H156c0-.22-.07-.36-.07-.51h-.51a1.06,1.06,0,0,0-.29-.44c.07-.07.14-.14.14-.22h.29v-.73h.51c.22,0,.44-.07.73-.07a.65.65,0,0,0-.29-.36c-.14-.08-.29-.08-.36-.15h-.29a.07.07,0,0,1,.07.07c0,.08.07.08.14.08v.14c-.73-.36,0-.29-1.38-.29-.07-.15,0-.37-.29-.37,0-1.24.22-.51.43-1.09a.28.28,0,0,1,.08-.15c-.08-.07-.15,0-.22,0l-.07-.07.07-.15v-.29h-.51v.44h-.37s.07.15,0,.15a.45.45,0,0,1,.29.07c-.29.29-.8.07-1.16.15v-.15h-.08c.15-.73.29-.44.59-.95h.36c-.07,0-.14.22-.14.22l-.22.07v.29a.23.23,0,0,0,.22.22c.07,0,0-.22.43-.22a.42.42,0,0,1,.08-.29V160h-.37c-.22,0-.8-.51-1.31-.66v-.21h.87a1.17,1.17,0,0,0-.29-.37c-.07-.07-.07-.15-.07-.29s.22-.22.22-.29-.29-.22-.37-.3c.08-.29.22-.73.59-.8v-.44a1.31,1.31,0,0,0-.59.66h-.36c.07-.07.14-.15.22-.15a.24.24,0,0,1,.14-.07l-.22-.44c.22-.07.37.08.59-.22.07-.07.07-.14.07-.29s-.07-.29-.07-.43a.59.59,0,0,1,.14-.3v-.07a1.15,1.15,0,0,0-.51.07h-.36v-.07h.14a.79.79,0,0,1,.3-.37c.21.08.36.08.51.15a4.48,4.48,0,0,1,.22-1.39,7.1,7.1,0,0,0-1.54-.58.39.39,0,0,0-.43.29h-.44a1.51,1.51,0,0,1,.29-.44,1.32,1.32,0,0,0-.29-.29v-.29c.58.22,1.53.15,1.82.73h.15c0-.07.07-.07.14-.15v-.07c0-.07-.22-.14-.29-.22,0-.29.37-.22.37-.36a.64.64,0,0,0-.08-.22h-.29a2.71,2.71,0,0,1,1-1.17v-.15c-.51.15-1.53.59-1.68,1.17-.07-.07-.21-.14-.21-.22a2.28,2.28,0,0,1-.22-.22,1.72,1.72,0,0,1,.36-.58c.07,0,.15.07.22.07s.07.15.07.22a.77.77,0,0,0,.22-.44c0-.14-.14-.07-.14-.07s.29-.22.36-.22v-.22h-.58v-.51l-.08.22c-.07-.07-.21-.14-.21-.22s-.37-.29-.59-.29a5.33,5.33,0,0,1-.44-1.39.71.71,0,0,1,.44-.58l.37.22v-.37c-.15-.07-.37,0-.51-.07-.44-.29.22-1.75-.81-2.41a.58.58,0,0,1,.15-.29c.07,0,.14-.07.29-.15a9.17,9.17,0,0,1-.44-1.31c.08-.07.15-.22.22-.29l-.36-.15a1.2,1.2,0,0,1,.65-.8.59.59,0,0,0-.14-.37.59.59,0,0,1-.37-.14c0-.73.15-1.39.15-2.05a.56.56,0,0,0-.07-.36c-.3,0-.3-.59-.3-.8s.08-.66.08-1a2.24,2.24,0,0,1-.44-.95c0-.08,0-.08.07-.15h.22c0-.14.07-.29.07-.44,0-.36-.22-.65-.22-.95v-.21a.41.41,0,0,0,.3-.44c0-.08-.3-.37-.3-.37s.37-.22.44-.29a1,1,0,0,0-.44-.07,3.92,3.92,0,0,0,.15-1c0-.37,0-.8-.44-.8v-.37a1,1,0,0,0,.29-.29V129.6l.44-.14a2.5,2.5,0,0,0-.44-.51h-.07v-.51c0-.3-.14-.51-.14-.81a1,1,0,0,1,.14-.43h.22v-.3a1.08,1.08,0,0,0-.44-.14v-.29a.46.46,0,0,0,.29.07c-.07-.22-.21-.29-.07-.51-.07-.07-.14-.15-.14-.22h-.3c.08-.07.3-.22.3-.44s-.15-.22-.22-.36l.14-.3h-.22c.08-.29.37-.43.66-.58l-.44-.37c0-.14.08-.65.29-.43v-.08a.71.71,0,0,0-.07-.21H150c.15-.3.15-.22.37-.22,0-.08-.15-.22-.15-.3s.29-.14.37-.14a1.36,1.36,0,0,0-.15-.51c-.15-.08-.22-.15-.22-.22s-.07-.15-.07-.29.36-.44.44-.73c-.08-.15-.08-.44-.15-.51h.29v-.44h.22c-.07-.08-.07-.22-.14-.3s-.3-.07-.37-.14v-.44l.29-.29c-.07-.07-.22-.07-.29-.15.07-.29.29-.44.37-.65s-.08-.3-.08-.44c0-.44.22-.59.59-.59v-.51c.29.08.44.29.65.37s.37-.15.51-.15a.93.93,0,0,1,.44.15,1.17,1.17,0,0,1,.51-.29c.15,0,.3.29.3.43.58-.22.36-.29,1-.29.07-.14.07-.29.14-.44a2.33,2.33,0,0,1,1.24.22,1.3,1.3,0,0,0,.08-.51h.22a.85.85,0,0,1,0,.59.16.16,0,0,0,.14-.15.28.28,0,0,1,.08-.15,12.26,12.26,0,0,1,1.46.22c.14-.22,0-.44.29-.44s.51.44.87.66l.37-.14v.14c.36.15.36.22.36.59,0,.22.3.36.52.43l-.15.22v0h-.29a1.63,1.63,0,0,0,.73,1.1c-.15.36-.44.65-.59,1a11.89,11.89,0,0,1,.3,1.89h-.3a.53.53,0,0,0,.59.52l-.08.51-.21.22V123h.8c-.08.14-.08.43-.22.58a1.12,1.12,0,0,0-.51-.29,10.16,10.16,0,0,0,0,1.46h-.37a1.27,1.27,0,0,0,.22.29l.37.14c.07,0,.07.08.07.15s.07.07.15.07.07-.07.07-.14-.15-.15-.15-.22H161c.07,0,.65.22.43.36,0,.08.37,0,.37,0V126Zm-10.88,1.24v.21h.15Zm.37-2.19h-.22l.22.07Zm0,22.19v-.37h.36v.37Zm.36-6.5V141h.07C151.14,140.92,151.14,140.85,151.14,140.7Zm.07,16.13V157h-.07v-.37l.15.22Zm0-36.71v.21h.3Zm.3,41.6c-.08,0-.22-.07-.22-.14v-.29c.07.07.29.07.29.21S151.51,161.65,151.51,161.72Zm0,1.17c-.08,0-.15-.07-.22-.14l.36.14Zm0-8.68.22.14Zm.14-4.24v-.22l.29.15V150Zm.08,5.4v-.22h.21v.22Zm0,4.82V160h.21v.22Zm.43-17.08h-.22l.22.22Zm.22,5.11c-.07,0-.14-.07-.22-.15a.27.27,0,0,1-.07.22c.15.08.22.15.36.22S152.38,148.29,152.38,148.22Zm-.22,8.17h.37A.32.32,0,0,1,152.16,156.39Zm0,4.75v-.22h.29v.22Zm.22-6.79.15.07C152.45,154.42,152.38,154.42,152.38,154.35Zm.07-7.37v.29h.08C152.53,147.12,152.53,147.05,152.45,147Zm.08,5.4v-.29l.36.07v.22Zm.14,3.65v-.36h.22V156Zm.44-6.13h-.22l.22.07Zm0,10.14v.15h-.22l.22-.44V160Zm0-5.83c0-.08,0-.3-.14-.37l.29.07v.3Zm0,3.28a.11.11,0,0,1,0,.15c.22.14.37.43.59.65h.21A.91.91,0,0,0,153.11,157.49Zm.37,5.4a.29.29,0,0,0-.15-.07l.07-.07h.08v-.08l.36.08v.14Zm.51-7.59-.15-.15c-.14.15-.22.3-.36.44v.08c.22,0,.43-.08.65-.08Zm-.08,1.24c-.07,0-.07.07-.14.15h-.07V157h.43C154,156.83,154.06,156.61,153.91,156.54Zm0,6.06c0-.15-.07-.29-.07-.44.07,0,.22.07.29.07h.08v.37Zm.22-7.74v.29h.08A.4.4,0,0,0,154.13,154.86Zm0,.81V156h.08A.58.58,0,0,0,154.13,155.67Zm.22,9.7v.08h-.22v-.15h.3v.07Zm.37-7.37-.37-.15-.14.44a1,1,0,0,0,.44-.07h.07Zm.14,3.14a1.09,1.09,0,0,0-.14.51,3.55,3.55,0,0,1,.44.58h.43A1.64,1.64,0,0,0,154.86,161.14Zm.15,1.75a.56.56,0,0,1-.29-.14h.58A.37.37,0,0,1,155,162.89Zm-.29,3.51.22-.15a.39.39,0,0,0,.22-.07v.43C155.08,166.54,154.86,166.54,154.72,166.4Zm.44-8.4h-.3v.29h.3Zm0,2.48h-.3v.29h.3Zm0,3.14v-.14h-.3c.08-.08.15-.15.15-.22s.22-.08.29-.08v.44Zm.14-43.29h-.22s.08.08,0,.08c.08.07.15.07.22.14Zm0,39.64-.22.07v.15h.08v.22h.14V160Zm.07,6.06a.28.28,0,0,1-.07-.22h.29v.37C155.52,166.18,155.45,166.1,155.37,166Zm.81-45.91h-.59l.08.14a.29.29,0,0,1,.22.07l.07.08c0,.07.07.07.14.14v-.22h.08Zm-.59,42.11v.37h.3Zm.3-2.55V160H156Zm1.16,3.8v-.15c-.07,0-.07-.07-.14-.15a.78.78,0,0,1-.51.44c.14.37.22.37.22.8h-.44a1.19,1.19,0,0,1,.36.44c.66-.36.15-.58.73-1C157.2,163.77,157.13,163.62,157.05,163.48Zm-.87,1.38a1.48,1.48,0,0,1,.22.59c0,.07-.15.14-.22.22v.21h.65C156.62,165.3,156.91,165.15,156.18,164.86Zm1.24-.51-.15.07a1.41,1.41,0,0,1-.22,1c.08.15.22.37.3.51h.22v-.43h-.22c.07-.08.22-.22.22-.37l-.15-.07c-.07,0-.15,0-.15-.07s.08-.22.08-.3h.22c0-.07.07-.14.07-.22S157.57,164.35,157.42,164.35Zm1,1h-.22v.15h.22Zm.22-3.36v.29h.14C158.66,162.16,158.66,162,158.59,161.94ZM160,118h-.36c.07.07.14.14.22.14H160Zm0,30.07c-.14.15-.14.3-.22.44h.44C160.12,148.37,160.05,148.22,160,148.07Zm.52-29.2a1.13,1.13,0,0,0-.44-.14H160V119h.52Zm-.52.95v.3h.08A.53.53,0,0,1,160,119.82Zm.22,10.51v.15h.15Zm.15,16.94V147h.22v.29Zm.22-14.67a.66.66,0,0,0,.36.07A.66.66,0,0,1,160.56,132.6Zm0,16.57V149h.22v.22Zm.36-15.62c-.14-.08-.14-.22-.14-.37v-.07H161v.44ZM161,137v-.29h.07V137Zm.29-12.41v-.29a.27.27,0,0,0,.22.07v.22Zm.44,8v.07h-.3v-.22h.37v.15Zm-.22-5.84v-.29h.29v.29Zm.22,3.36v-.22h.07v.22Z"/><path d="M171.29,123.25h.44C171.51,123.33,171.43,123.33,171.29,123.25Zm.73.44v-.44h.58v.44Zm28.47,42.63v.44l-.37-.07-.22-.22v.29h-.65v-.44a1.47,1.47,0,0,1-.81-.22h-.22v-.51h-.29l-.07-.36a3.29,3.29,0,0,0-.07.36h-.3c0-.07.08-.14.08-.22s.14-.14.22-.14a1.91,1.91,0,0,1-.3-.66c-.58.22-.21.44-1.09.66a1.37,1.37,0,0,1,.15.58c0,.59-.81,1-1,1.53h-.36s.07-.14.14-.14.22-.22.22-.29h.22a3.66,3.66,0,0,0-2-.44c0,.29.07.58.07.87h-.36v-1c-.51,0-.88.29-1.31.29a1.06,1.06,0,0,1-.51-.14v-.15l-.22-.22-.37.22c-.58-.14-1.17-.07-1.68-.22v.37c-.07-.07-.22-.07-.29-.15s-.07-.14-.15-.22l.15-.22h.29c-.07-.14-.22-.21-.29-.29s-.29-.07-.44-.07V165c0-.07-.14-.15-.22-.22a.73.73,0,0,1,.51-.51,1.31,1.31,0,0,0-.51-.8,1.81,1.81,0,0,1-.07-.88H188c.08-.37.15-.22.15-.66h-.51c0-.29-.44-.65-.44-.65l.22-.3h.51l-.22-.14-.07-.66-.15-.07-.29-.08v-1.31H187v-.66h-.44l.22-.43-.14-.08a.24.24,0,0,1-.08-.14h-.43v.22h-.51c-.37.36-.08.43-.73.73v.36h.95v.44c-.3-.15-.59-.07-.95-.22l.07.36h.51a2.88,2.88,0,0,0-.22,1.1h.44a9.13,9.13,0,0,0-.22,1.46,1.37,1.37,0,0,0,.22.73c0,.07-.07.15-.15.22a.27.27,0,0,1-.22.07,4.48,4.48,0,0,0-.29,1.32h.29v.58h.22c.08.15.15.22.15.36,0,.3-.44.3-.44.44s.22.22.29.29v.22a3.47,3.47,0,0,1-.87-.22c0,.22-.08.37-.08.59a1.51,1.51,0,0,1-.29.44h-.58v.43h-.44v-.43l-.22-.15h-.14v.58h-.52a.15.15,0,0,1-.14-.14H182a.36.36,0,0,0-.37.22l-.07-.08v-.14H181v-.44h-.73c.07.07.22.07.29.15v.29h-.37v-.29a.24.24,0,0,0-.21-.08.47.47,0,0,0-.44.37h-1v.14a1.58,1.58,0,0,1-.94-.58h-.81a2.73,2.73,0,0,1,.22.58h-.44a4.58,4.58,0,0,0-.36-.87h-.37v-.15c-.07-.07-.07-.07-.14-.07s-.22.15-.29.22-1.1-.44-1.1-.44c-.14-.15-.29-.22-.29-.51s.15-.44.15-.73a1.36,1.36,0,0,0-.15-.51h-.22c0-.07-.07-.15-.07-.29l.14-.08c.08,0,.15-.07.15-.22v-.21h-.22v-.08c0-.22.29-.22.29-.51,0-.07-.07-.22-.07-.29h-.22v-.29H174c-.15-.15-.37-.22-.37-.37s.08-.14.15-.22h.15v-1.31h-.22l.22-.15a2.69,2.69,0,0,0,.14-.73c0-.73-.51-1.31-.51-2a1.13,1.13,0,0,1,.07-.51h.22a11.11,11.11,0,0,0,.15-2.7c0-.22,0-.44-.22-.58h-.15v-.3h.15a.54.54,0,0,0,.15-.29c0-.22-.3-.51-.37-.73h.22c0-.29-.29-.29-.29-.51a.56.56,0,0,1,.07-.36h.22c0-.44.07-.88.07-1.32a7.82,7.82,0,0,0-.14-2.26h-.22a.25.25,0,0,1-.07-.15c0-.14.29,0,.29-.51l-.08-3c0-.51-.29-.95-.29-1.39a.24.24,0,0,0,.08-.14h.21l.08-.81a.79.79,0,0,0-.15-.43v-3c0-.29-.36-.29-.36-.43a.15.15,0,0,1,.14-.15h.22c0-.15.07-.37.07-.51,0-.29-.14-.51-.14-.88s.14-1,.14-1.46-.29-1.17-.29-1.75.15-1,.15-1.53-.22-.88-.22-1.32.29-.8.29-1.24a1.5,1.5,0,0,0-.07-.51l-.07-3.21h.29c.07-.07.07-.15.07-.29s-.44,0-.44-.37a.52.52,0,0,1,.08-.29h.29a.8.8,0,0,0,.07-.22c-.07-.14-.36-.07-.51-.36a20.37,20.37,0,0,0,.07-3.65h.29v-.15a3.08,3.08,0,0,0-.36-1.17h.36a1,1,0,0,0,.08-.51.47.47,0,0,0-.44-.44c.22-.36.36-.73.58-1h.44a.72.72,0,0,0,.15.44c.36.15.43.58.43,1,0,.07.37.14.52.22a.4.4,0,0,0-.08.29c0,.15.08.29.08.51h.51a2.31,2.31,0,0,0-.22,1v.15h.44a.71.71,0,0,0-.08.36c0,.15.37.15.37.59,0,.22-.29.51-.22.95a1.45,1.45,0,0,1,.51.14,1.31,1.31,0,0,1,.07.51c.15-.07.44-.14.51-.29v-.07c.08,0,.22.36.22.36H178a1.27,1.27,0,0,0,.08-.58c0-.44-.08-1-.08-1.39h-.51v-.58h.15v-.29h-.22v-.88h-.22v-.15h.22c-.15-.87-.07-1.75-.22-2.7H177c-.07,0-.14-.14-.14-.22s.14,0,.14-.07a1.93,1.93,0,0,0-.36-.14c.29-.15.29-.08.51-.08a.29.29,0,0,0,.22-.07v-.29h.51v-.15c1.31-.14,2.55-.14,3.87-.22v.08c.14.21.73.14.87.14a1.45,1.45,0,0,0,.81-.22v-.22h.73v.44c.36-.14.8-.07,1.24-.22-.08.08-.22.15-.3.22l.15.15c0-.08.15,0,.15,0a.56.56,0,0,0,.07.36v-.36H186v.44l-.14-.15a.61.61,0,0,1-.3.15.46.46,0,0,1-.07.29H186c-.14.14-.14.36-.21.58h.58v.29a.22.22,0,0,1-.15.08v.29h.51v-.37h.59v.37c0,.07-.08.07-.15.07s0,.22,0,.29c-.29,0-.51-.07-.73.08v.51h.37l.07,2h.29v.8h.22V122h-.51c.15.08.22,0,.36,0s.15,0,.15.08a2.92,2.92,0,0,1,.22.65c.36.59.51,0,.66,1,.36-.14.58-.29.95-.44v-.87h.36V122H190l-.08-.29h-.29v-.66h.29v-.36h.29a1,1,0,0,0,.15-.44c0-.51-.44-1-.44-1.46a3.32,3.32,0,0,1,.08-.88.82.82,0,0,0,.36-.58c0-.07-.15-.14-.15-.22V117a3.25,3.25,0,0,1,.08-.88h.95v-.29h.65v-.15h2.34a4.05,4.05,0,0,1,1.61-.22,4.2,4.2,0,0,1,1.67.22h1.61v.15h.51v.73h.44v.36c-.22.08-.37.22-.37.37s0,.07.08.14h.29v.73a.86.86,0,0,0-.44.08,3.09,3.09,0,0,1,.15,1.16h.29a1.14,1.14,0,0,1,.15.52,1.56,1.56,0,0,1-.52.87v.73h.15l-.07-.22h.36a1.75,1.75,0,0,1-.44.81.63.63,0,0,0,.44.65c-.14.37-.07.66-.36,1a.28.28,0,0,0,.07.22c.07,0,.22-.07.29-.07l.08.73h-.44a2.5,2.5,0,0,1,0,1h.44a1,1,0,0,1-.44.66l.07.87c.07-.07.07-.14.07-.29h.59l-.15.29h-.44v.73h.3l.07.59c-.15.14-.37,0-.37.22v.14h.37v2H200V131a2.54,2.54,0,0,0,.73.22v.51l-.3-.14-.07-.08v.08c0,.07-.44.14-.44.14v.8a.62.62,0,0,1-.51.59v.73h.51v1.09h-.51v.37H200c.07.44.51.8.51,1.17,0,.14-.08.29-.08.43h-.14a.26.26,0,0,0-.22.08h.36v.22c0,.43-.36.51-.36.65s.22.3.36.3c-.07.14-.29.14-.43.14V139h.43c-.14.22-.29.36-.36.51h-.37c.08.07.08.15.15.15a.28.28,0,0,1,.22.07l-.22.22h-.29v.87l.22-.14v-.37h.29v.37l-.29.14.14.15s.15,0,.15.07a.29.29,0,0,0-.07.15c-.08-.07-.15,0-.22,0l.29.29-.29.15a1.2,1.2,0,0,0,.44.43c0,.37-.08.66-.44.73v.08h.73a2.57,2.57,0,0,1-.88,1.24c.07.07.37.07.51.07v.58h-.51v.44a3.86,3.86,0,0,1,.95.15c-.22.36-.73.44-.73.87a.5.5,0,0,0,.29.44c.22.15.15,1.54.15,1.61,0,.58-.07,1.09-.07,1.68h-.3c0,.07.08.14.08.22a1,1,0,0,0,.22.14c0,.08-.08.15,0,.15-.08,0-.22.07-.3.07l.15.15.15.07s-.08.15,0,.15a.48.48,0,0,0-.3.07c.08.22.08.44.37.44.07,0,.07.14.07.22l-.07,1.89H200v.74h.29a.91.91,0,0,1-.51.65c0,.44.29.59.29.81a.26.26,0,0,1-.07.21h-.15v.59h.22v.65a.15.15,0,0,0,.15.15c.07,0,.14.15.14.15h.07a.25.25,0,0,1,.08.22l-.15.07c-.14,0-.36.07-.36.29s.36.51.36.95h-.51c.15.22.37.07.51.22l.07.87h-.36l.44.37v.51c0,.37.07.66.07,1a.65.65,0,0,1-.44.66v.58c.08,0,.22-.07.29,0s0-.22,0-.29h.44v.29h-.44l.08.44h-.37c0,.07-.07.22-.07.29,0,.37.51.08.51.37a1,1,0,0,1,.15.44c0,.29-.22.51-.22.8s.22.44.44.58ZM176.32,120.7a.48.48,0,0,0,.3.07A.48.48,0,0,1,176.32,120.7Zm3.73,9.12a.36.36,0,0,0-.15-.29h-.29v-.73c-.22-.29-.73-.22-.73-.51s.29-.36.29-.44H179a.77.77,0,0,1-.14-.36c0-.29.36-.15.36-.59,0-.07-.07-.51-.07-.58l-.07.07c-.08,0-.08-.07-.15-.14v-1.32h-.44c.07-.07.07-.22.15-.29h.22c-.15-.36-.37-.58-.37-1h-.95v.37h-.36c0,1.38.58.8,1,1.82h.43c-.07.22-.14.51-.43.59a.73.73,0,0,0,.73.36l-.22.29h-.37c0,.29-.14.51-.14.73a.37.37,0,0,0,.14.29h.29v.37c.22.07.3.22.44.29s.08.22.08.29c0,.22-.15.3-.15.51s0,.22.07.3v.22h.51l.08.43h.73C179.9,130.12,180.05,130.19,180.05,129.82Zm-.51,1.17h-.37a.91.91,0,0,0,.37.22Zm.73.8a7.78,7.78,0,0,0-.73.3v.22h.73Zm.14,1h-.73v.66h.59c0-.15,0-.29.14-.36Zm-.14-1.53h-.37l.08.22h.29Zm-.29,2.41a1.23,1.23,0,0,0,.29.36l.14-.36Zm.36.8H180v.29h.36Zm.58,0h-.22v.66h.22Zm.59,32.05v.73h.14v-.29c0-.08.15-.15.15-.22S181.58,166.54,181.51,166.47Zm.87-26.57h-.51v.29h.51Zm-.22-24.68v-.29h.15v.29Zm.22,25.33h-.22v.22h.22Zm1.24,2.41c-.14-.29-.94-1.68-.8-1.82a1.07,1.07,0,0,0-.44-.37,14.24,14.24,0,0,0,1.39,4.09v-.22A11.92,11.92,0,0,0,183.62,143Zm.37,2h-.44a2,2,0,0,0,.44.88h.29C184.21,145.52,184.06,145.23,184,144.93Zm.58,3a1.44,1.44,0,0,1-.58.07v.58h.58Zm.44,18.54v-.15h.37v.15Zm.66-6.21v-.51h.51v.51Zm.44-5.11h-.37v.59h.44C186.18,155.52,186.11,155.37,186.11,155.15Zm.29,11.61a1,1,0,0,0-.15-.44H186v-.44h-.22v-.36h.51c0,.58-.07.73.44.95v.29Zm-.29-10.22-.29-.07v.29h.36Zm-.29,1.53v-.22h.43v.22Zm1.31,8.4v-.15h.22v.15Zm.51-43.73h-.37c0,.08.08.15.08.22s.07,0,.14,0v.29h.22Zm.15-3.36v-.29h.36v.29Zm.07,3v-.29h.44v.29Zm1.53,1.68c0,.07-.07.14-.14.22H189a.75.75,0,0,1,.51-.44v-.15h-.95l.07,1.24H189l.07.44a2,2,0,0,0-.73.22c.15.29.44.37.58.66h.37a20.42,20.42,0,0,0,.36-2.19Zm-.07,2.77h-.22v.29h.22Zm-.22,1a1.21,1.21,0,0,1,.22.29c.07,0,.22-.07.29-.07s0-.14,0-.22Zm.51-1.6v.58a.39.39,0,0,0,.15-.29A.58.58,0,0,0,189.61,126.25Zm1.53,41.09v-.14h.37v.14Zm1.54-21.89a1.07,1.07,0,0,1-.66-.15l.15.44h.51Zm.43,2.48h-.21c.07,0,.14.07.21.07Zm1,4.23h-.22v.29h.22Zm.07,15.18.22.22Zm.36-14.45h-.21v.29h.21Zm.44.58a1.28,1.28,0,0,0-.44,1.1H195Zm1,6.14.3-.3c-.08-.21-.22-.36-.3-.58h-.43c0-.29-.22-.58-.22-.88-.08,0-.29.08-.29.22a.61.61,0,0,1-.15.3,1,1,0,0,0,.44.07c0,.44.22.73.22,1.17h.22v.14h.65A.55.55,0,0,0,196,159.61Zm-.73-3.87H195c.15.07.22.07.29.14Zm.08.73H195v.29h.37Zm1,3.57h-.73v.37a.72.72,0,0,0,.43-.15h.3Zm-.51,1.68c0-.07-.15-.14-.15-.22v.44h.22A.27.27,0,0,1,195.82,161.72Zm0-.73a5.54,5.54,0,0,0,.21.59.86.86,0,0,1,.37.36h.36A6.49,6.49,0,0,0,195.82,161Zm.58.95h-.51v.29h.51Zm-.07-1.53H196v.51h.3Zm.87,2.48h-.07a1.07,1.07,0,0,0-.66.15c.15.14.22.29.37.44h.36Zm-.36-.66h-.08a.76.76,0,0,0,.37.08h.07C197.13,162.23,197,162.23,196.84,162.23Zm.29,2h-.29v.58h.29Zm.29-.59h-.29v.59h.29Zm.07,3.58c0-.08.15-.22.15-.22a.29.29,0,0,0,.15-.07,1,1,0,0,0-.51-.15v-.29h.51c0,.22.14.44.14.65v.08Zm2.41-18.62h-.22l.22.15Zm0,.44h-.22v.88h.22Zm0,2.56h-.22l.08.22h.14Zm.37-19.27c.07,0,.14.07.22.07l.14.14C200.49,132.45,200.41,132.38,200.27,132.31Zm.51-15.63-.07-.43h.22v.43Zm.44,50.66v-.43h.44v.43Zm.44-1.24v-.51h.21v.51Zm.8,1.46-.15-.22c0,.08.15.08.15.08l.14.14S202.46,167.49,202.46,167.56Z"/><path class="cls-1" d="M19.47,124.5h174a5,5,0,0,1,5,5v199a2,2,0,0,1-2,2h-180a2,2,0,0,1-2-2v-199A5,5,0,0,1,19.47,124.5Z"/><path class="cls-1" d="M93.47,91.5h27a4,4,0,0,1,4,4v42a12,12,0,0,1-12,12h-11a12,12,0,0,1-12-12v-42A4,4,0,0,1,93.47,91.5Z"/><rect class="cls-2" x="45.41" y="162.47" width="123.07" height="123.07" transform="translate(189.71 -10.01) rotate(45)"/><path d="M59.12,209.17v-.37H58.6v-.44h.15v.08a.6.6,0,0,0,.15-.37l.8.37a.45.45,0,0,1,.07.29v.15c-.07,0-.07,0-.07.07s.51.22.58.22v.22A3.4,3.4,0,0,1,59.12,209.17Zm-.52,1v-.3h.15c.07-.07.15-.07.15-.14A.56.56,0,0,1,59,210v.08Zm.44.29c.08-.08.08-.15.08-.29l.21.29Zm.29.65v-.21h.37v.21Zm.37-18.9v-.08h-.29v-.51c.14.08.22.22.36.3v.29Zm-.22,5.33h-.07a.59.59,0,0,1,.07-.37l.22-.29h.22A2.18,2.18,0,0,0,59.48,197.49ZM88,242.23l.07.22.3.22c-.3.44-.44,1-.95,1.1,0,.51.14.87.65.87-.22.73-.07,1.39-.51,2.05l-.87.22v-.3h-.81v.3c-.07.07-.07.07-.14.07s0-.37-.37-.37v.3c-.07-.08-.44-.37-.44-.37s-.29.29-.29.37c-.58-.08-.44-.15-.87-.37L83.5,246c.07,0,.36.07.51.07s.14-.15.29-.29h.07l-.51-.29-.73.07v-.44c.07-.07.15-.22.29-.29a1.29,1.29,0,0,1-.43-.66c-.22.08-.59.44-.59.66h-.51l-.07.66a1.52,1.52,0,0,0-.59.07v.29h-.29V246a.75.75,0,0,1-.73.29v.37c-.29-.08-.51-.22-.8-.29V247h-.15a1,1,0,0,1-.51.22c-.14,0-.29-.08-.51-.08a.49.49,0,0,0-.51.3h-.29c.07-.08.14-.22.22-.3a.28.28,0,0,0-.3.3c-1.09,0-.72-.73-1.75-1.1v-.58h-.36v.58h-.8a1.63,1.63,0,0,1,.21-.36c0-.08-.14-.15-.21-.22v-.15H75V245c.14,0,.29-.07.58-.07.07,0,.15.07.22.07h.44l-.15-.07v-.3h.22c.15-.07.15-.07.15-.14l.07-.08c-.07-.07-.15-.14-.22-.14s-.07.07-.22.07-.14-.36-.8-.36c-.22,0-.37.36-.51.36h-.08v.07H75v.52a2.12,2.12,0,0,0-.66.07h-.15a.59.59,0,0,0-.07-.37h.37V244c.14-.08.29-.22.43-.3a.93.93,0,0,0-.43-.07c.21-.44.21-.14.43-.36v-.88a1,1,0,0,0-.58.51h-.07v-.73a2.12,2.12,0,0,1,.07-.66v-.58h.15c.36.73.58.37.58,1.46.14-.22.8-.73.8-1.09h.22l.07.21c0,.08.08.08.15.08s0-.37.07-.37l.15.08v.21l.51.22c.22-.14.58-.07.88-.22v-.29c.07.15.21.22.21.44.66-.22.44-.22.88-.36a.53.53,0,0,0-.15-.3c-.51,0-.36-.65-.51-1l.3-.07.07-.22c.58,0,.58,0,.88.51h.36v-.66c-.22.15-.15.3-.15.44l-.21-.44h-.44v-.29h.65a.5.5,0,0,1,.44.29h.15V239h.58c-.14.15-.22.29-.29.29v.44c.73-.29.58-.51,1.09-1v-.15a.07.07,0,0,0,.08-.07c.07,0,.07.29.07.29a1,1,0,0,0,.44-.07v-.51c-.29,0-.66.07-1,.07-.8,0-1.53-.07-2.26-.07l.07-.58a.36.36,0,0,1,.29-.15v-.29c-.36.14-.8.22-1.17.36h-.22v.66c-.29,0-.51.07-.8.07.07-.07.22,0,.37-.07v-.29h.22a1,1,0,0,0,.07-.44h.29V237h.29c-.07-.29-.22-.59-.29-.88h.37a1.67,1.67,0,0,0-.3-.73c-.07.15-.14.3-.22.44H78c.29-.66-.22-1.09.73-1.46-.07-.14-.07-.36-.15-.51l-.44.22v.29H78a13.59,13.59,0,0,1,.36-1.75c0-.44-.29-.51-.58-.51v-.44h-.88c0-.73.66-.66.66-1.31,0-.3-.36-.22-.36-.51a1,1,0,0,1,.14-.44h.15v-.73h-.37v-.22a3.29,3.29,0,0,0-.36-.07c-.15,0-.29.21-.51.29h-1v-.22h-.8v.22a.29.29,0,0,1-.15.07c-.15-.15,0-.29-.15-.29s-.22.14-.22.29v.07l-.14-.14v-.22c-.44-.15-.44-.51-.44-1.1a4.39,4.39,0,0,1,.07-1h-.07a.39.39,0,0,0-.29-.14.9.9,0,0,0-1,.95c0,.51.14,1.17.14,1.46,0,.07-.44.07-.51.14s.07.29.15.37h.58v.51h-.29A.82.82,0,0,0,72,230c0,.44.43.51.43.88-.14.07-.22.15-.22.29s.22.37.22.8a32.7,32.7,0,0,1-.51,3.8.6.6,0,0,0,.44.29,2,2,0,0,0-.44,1.39c-.36-.15-.43-.58-.43-1h-.22a2.06,2.06,0,0,1-.37.44v.58h-.36c.22.73,1,.59,1.6.73,0,.66-.36.88-.36,1.24s.36.3.36.51a3.1,3.1,0,0,1-.07.37h-.29v1.82c-.08-.07-.08-.21-.15-.29-.66,0-1.39-.07-1.68.73-.29-.14-.22-.07-.44-.29-.14.07-.29.22-.43.29v.22c.21.15.51.07.73.22v.15h.22v.36c.07.07.21,0,.29.07s.07-.29.07-.43h1.24v-.37h.15v.22H72v.58h-.29c0,.3,0,.59.29.73v.22H71.6a4.3,4.3,0,0,1-.07-.95l-.44.08-.15.22-.07.36L70.8,244h-.15l-.15.07c-.07.15-.07.22-.14.36s-.44-.14-.44-.29A.24.24,0,0,0,70,244a.57.57,0,0,0-.14-.37H69.7c-.07-.14-.07-.22-.15-.36h-.36l.07.22c.07,0,.15.07.22.14v.8c-.22-.14-.44-.07-.66-.21a1.11,1.11,0,0,1,.37.8c.29,0,.58-.07.88-.07v.43l.14-.14s.15-.15.15-.22h.07a.85.85,0,0,1-.07.44v.29c.22,0,.36-.07.36-.15h.22c0,.15,0,.73-.22.73-.07,0-.65-.29-.87-.36v-.59a3.72,3.72,0,0,1-1-.43h-.65v-.3h-.59v-.22h-.51a2.94,2.94,0,0,1-.36-1.31,1,1,0,0,0-.44.07l-.22.44c-.29-.14-.58-.36-.58-.66,0-.07.07-.21.07-.29v-.29h.51c.07-.29.07-.58.15-.88.14.15.36.15.51.22a3.58,3.58,0,0,1-.37-.8c.73-.15,1-.51,1.83-.51-.15-.29-.81-.44-1.1-.44v.44c-.07-.07-.14-.07-.29-.07a.41.41,0,0,0-.37.22H66.2v-.37h-.3V240l-.73.22a1.36,1.36,0,0,1,.3.73,12.3,12.3,0,0,0-1.68.37v-.37h.58a.65.65,0,0,0-.07-.36v-.15h-.07a1.52,1.52,0,0,0-1.1-.44c.07-.07.15-.44.22-.44s.07.15.07.15.29-.22.37-.29v-.15c-.08-.07-.08-.22-.15-.29h-.22v.58h-.36a3.1,3.1,0,0,1,.07-.8c0-.36.07-.51-.44-.8v-.73a.39.39,0,0,1,.29-.37c-.14-.29-.73-1-.73-1.24s.52-.44.52-1c0-.14,0-.29-.08-.36H62.4a.45.45,0,0,1-.07-.29c0-.15.22-.15.22-.22s-.3-.22-.37-.22a2.12,2.12,0,0,1,.07-.66h.3c.14-.14.14-.22.14-.44s.37-.22.44-.29v-.07c-.36-.29-1-.8-1-1.24s.07-.73.07-1.17h-.43v-.29c.07,0,.14.07.22.07a.26.26,0,0,0,.21-.07h.15c0-.22-.22-.3-.36-.3a2.61,2.61,0,0,1,.36-1.67.75.75,0,0,0-.51-.44v-1c.07-.08.07-.15.15-.15a.07.07,0,0,0,.07.07c.07,0,.07-.22.07-.22h-.29v-.07c0-.36.36-.14.36-.36s-.07-.15-.07-.22h-.29c0-.22,0-.44-.07-.51.14-.3.58-.59.58-.88,0-.07-.07-.15-.15-.22l-.36-.15a.93.93,0,0,1-.07-.43,3.2,3.2,0,0,1,.36-1.17,9.35,9.35,0,0,1-.14-1.39h-.22v-.73H62v-.07c0-.22-.3-.07-.3-.37a.42.42,0,0,1,.08-.29l.36-.22c.07-.07.07-.14.07-.29,0-.36-.36-.36-.36-.73h.29l-.14-.29h-.52a.7.7,0,0,1,.37-.07v-.51c.07-.08.22-.15.29-.22,0-.44-.14-.66-.58-.66a6.67,6.67,0,0,0,.14-1.17.73.73,0,0,0-.14-.51c0-.44,0-1,.58-1v-.73h-.29v-.95h.29a3.92,3.92,0,0,0-.87-1.61v-.14h.58v-.51H61c.22-.22.37-.08.59-.22v-.15h-.15a.27.27,0,0,1-.07-.22l.14-.07s.08,0,.08-.07v-.59h-.29c.07.08.07.15.14.22v.29c-1,0-.58-.36-1.39-.51,0,.37.08.59.51.59V209h-.21v-.15h-.3v-.36h-.29v-.37h-.29c.07-.07.15-.44.29-.44s.08.15.15.15c.44,0,.22-.8.51-.8.07,0,.07.14.14.14a2.75,2.75,0,0,0,.15-.44c.22,0,.22.3.29.3h.44a7,7,0,0,0,.07-1.24H61a1.62,1.62,0,0,0-.29.36h-.15c.08-.44.15-.29.15-.73.59,0,1.53-.58,1.53-.8s-.43-.22-.43-.51c0-.08.07-.22.07-.3h.29c0-.36.07-.72.07-1.09h.3V202c.22-.07.58-.22.58-.51,0-.14-.15-.44-.15-.58a1.16,1.16,0,0,0,.08-.51c.51-.29,1.24-.15,1.24-1.17,0-.07-.07-.15-.07-.22v-.22c.58,0,1.31-.15,1.31-1.09h.36v-.44c.51-.15.44-.29,1-.29.29-1.1,1.6-.66,2.55-1,0-.14,0-.36.07-.43h.88v-.3h.88v.3h.87c0,.43-.22.65-.22,1h.22v.29a.8.8,0,0,1-.07.22v.22h.29c0,.14.07.22.07.36s-.29.44-.36.66h.36c0,.66.44.66.44,1h.51a1,1,0,0,1-.07-.44,3.42,3.42,0,0,0,.73-1h.37v-.51H75v-.44h-.3v-.73h-.21a.91.91,0,0,0,.14-.58H75v-.3h.73V195a.25.25,0,0,1,.15-.07c.21,0,.14.44.29.59,1.09,0,2.11.07,3.21.07V196h.07c.15,0,.44-.14.44-.36.15.66.44.8.66.8s.29-.07.43-.07v.22h.59v.29a2.11,2.11,0,0,0,1,.15c-.07.07-.15.22-.22.29h.44v.22c.07.07.14.14.22.14a2.86,2.86,0,0,1,.36-.07c.07,0,.15.07.22.15v.21H84v.3c.22,0,.44.07.65.07v.29h.22v.22l.37.22v.51c.07.07.22,0,.29.15h.07c0,.22-.07.36-.07.58H86a2.77,2.77,0,0,1,.14,1h.3v.37l.36.07v.73a.7.7,0,0,1-.14.51c.29.08.51,0,.58.22,0,.44-.44.29-.44.8,0,.3.29.08.44.44v.51h.29c0,.08-.07.15-.07.22l.07.07c-.14.15-.29,0-.29.37l.15.15c0,.07-.08.14-.08.22l-.14.14v.37h.22v.65h.29v.08c0,.29-.37.21-.37.58a.4.4,0,0,0,.08.29h.29c0,.59-.44.81-.44,1.17l.15.07a.24.24,0,0,1,.14.08v.43h-.44v.59a1,1,0,0,1,.59.14v.51h-.59a3.49,3.49,0,0,0-.22.81h.3v.51h.22a1,1,0,0,1,.14.44l-.07.14a.07.07,0,0,0-.07.08c0,.07.51.29.58.29a1.29,1.29,0,0,0-.29.44h-.29v-.52h-1l.22.3v.22c.07,0,.14,0,.14-.08l-.07-.07a.07.07,0,0,1,.07-.07l.29.22v.36a.53.53,0,0,0,.3-.15v.15h.29v.44H88v.29h-.51l-.22-.29c-.51.14-.51.66-1.39.66a.51.51,0,0,1-.43-.15H85l-.22-.22c.14-.15.22-.29.36-.29a1.34,1.34,0,0,1-.22-1h-.14a1.93,1.93,0,0,0-.15.95c-.44,0-.58,0-.73-.37h-.29c0,.29-.07.51-.07.73h-.88c-.07-.36-.29-.58-.36-.88h-.52v.15H81V214c-1,.22-1,1.46-1.45,1.46a.15.15,0,0,1-.15-.14V215h-.8v-.95c-.15-.15-.3-.22-.37-.29v-.22h.07c0-.08.08-.15.08-.22,0-.29-.3-.44-.3-.73s.15-.44.15-.73c0-.44-.44-.81-.44-1.17,0-.07,0-.15.08-.15h.21l.15-.43c-.36-.44-.51-.3-.51-1-.44,0-1.31.07-1.61-.37-.43.08-.73.29-1.16.37,0,.22.07.36.07.51-.73-.22-.29-1-1-1.32v-.29h.44v-.22h.43c0-.22,0-.44.15-.44v-.29c.07-.07.07-.07.14-.07l.08.15c0,.36,1.09.14,1.46,1.16,1,0,1.09-.58,1.09-1.24,0-.36-.07-.8-.07-1h-.44c-.14-.14-.14-.29-.22-.44h-.22a1,1,0,0,1-.51.22c-.22,0-.43-.14-.73-.14.08,0,.15-.15.3-.15-.08-.07-.15-.15-.15-.22v-.51a1.71,1.71,0,0,1-.51.22.35.35,0,0,1-.29-.15v-.22h-.3c-.07.08-.14.3-.29.3l-.07-.15c-.07-.07-.07-.07-.15-.07a1,1,0,0,0-.43.14h-.3c0,.15.15.22.3.22a.9.9,0,0,1-.81.59v.73h-.36v1.16h.65v.44l-.29.29c-.22,0-.51.08-.73.08V209a1.21,1.21,0,0,0,.66-.22.51.51,0,0,1,.29.15c.22,0,.15-.3.22-.44h.44v.36a3.14,3.14,0,0,1-1,.59,2.72,2.72,0,0,1,.36,1c-.07,0-.29,0-.36.14h-.29c-.08.08-.08.22-.08.44s.08.37.08.59a.63.63,0,0,1-.44.58,1.17,1.17,0,0,0,.51.66V213l-.15.15a.69.69,0,0,0,.44.44v.58a3.21,3.21,0,0,0-.51.37v.36h.44v.44l-.44-.22a2.18,2.18,0,0,0,.51,1.53.9.9,0,0,1-.29.59H72.4v.36a.28.28,0,0,0,.22-.07c.22,0,.29.07.29.29h-.36v.29a.69.69,0,0,0,.65-.29h.15a.85.85,0,0,1-.73.66c.15.07.37,0,.51.07v.29h.51V219c.08-.07.08-.29.08-.44.29.15.65.08.94.22V219c.08,0,.15.07.22.07V219c0-.15.15-.15.22-.15.22,0,.37.22.66.22h1.09v.29c.08.08.08.08.15.08.22,0,.22-.51.51-.51.66,0,1.1.65,1.75.65.44,0,.81-.14,1.17-.14s.73.07,1.17.07l.14-.15h.15a1.74,1.74,0,0,0,.37.15,3.3,3.3,0,0,1,1.24-.22c.22,0,.43.15.65.15s.44-.3.73-.37v.29h.52v.15h.14v.73c.37,0,.73-.07,1.1-.07a.88.88,0,0,1,.87.65v.73c0,.22-.29.22-.44.22,0,.37,0,.29.3.29v.37h-.22c.14.15.22.44.36.58a.52.52,0,0,1-.36.15c.14.51.58.58.58,1.39l-.07.21h-.29v.44h.36a.9.9,0,0,1-.36.73l.29.22a5.84,5.84,0,0,0-.29.73l-.15-.22a.24.24,0,0,1-.07-.14h-.08c0,.44-.07.87-.07,1.31,0,1.17.51,1.53.73,2.34h-.36c.21.29.73.58.73.95,0,.22-.15.36-.15.58a2.32,2.32,0,0,1,.29.95.56.56,0,0,1-.14.29v.22H88a1.41,1.41,0,0,1,.15.51v.73h-.73v.73h.36c0,.22,0,.59-.22.73.15.15,0,.29.44.29a2.25,2.25,0,0,0-.15.73c0,.44.15.88.15,1.39l-.44-.15-.14-.14h-.3c-.14.07-.14.22-.14.36a5.71,5.71,0,0,0,.22,1.24.32.32,0,0,0,.22-.22h.36a.39.39,0,0,1-.36.22v.22c.21.15.51.08.73.22,0,.51,0,.59-.88.59v.36l-.37-.22a1.06,1.06,0,0,0,1,.51c.22,0,.44-.07.59-.07A2,2,0,0,1,88,242.23ZM59.48,210.12v-.3h.22v.3Zm.73-14.6v-.3h.36v.3Zm.15,12.11a1,1,0,0,0,.65.22C60.87,207.63,60.57,207.63,60.36,207.63Zm0,9.2v-.22h.29v.22ZM60.57,204a.26.26,0,0,1,.08-.22.29.29,0,0,1,.07.22ZM61,191.87h-.29v-.59h.44C61.16,191.5,61,191.65,61,191.87Zm.51,34.82v-.3h.08v.3ZM62,191.87v.21h-.22a1.49,1.49,0,0,0,.22-.65h.21Zm.14,40.29.07-.36a.5.5,0,0,1,.15.36Zm.22-33.94a.56.56,0,0,1,.29.07A.56.56,0,0,0,62.4,198.22Zm.15,26.64-.15-.15v.3h.15Zm1.38,12c-.07,0-.07.15-.14.15s-.22-.37-.22-.44h-.44c.15.29.44.58.44,1,.29-.15.36-.07.66-.29C64.15,237.05,64.08,236.83,63.93,236.83Zm0-38.54h-.29v-.58l.59.21C64.15,198,64,198.22,63.93,198.29Zm-.14-4.89v-.15h.14v.15ZM64,239.53h-.22l.22.15Zm.29-46.28v-.36h.07v.36Zm1.75,44.31c-.88,0-1,.22-1,1l-.29-.21a.86.86,0,0,0-.44-.08c0,.44-.07.88-.07,1.24,1.09-.14,1-.58,1.9-.95C66.05,238.29,66.2,237.93,66.05,237.56Zm-1.24-41.24c-.15.44-.22.58-.44.58v-.36Zm-.22-3.51v-.29h.22v.29Zm.29,47.38h-.22c.08.07.08.15.15.22l.07.07Zm0,2.48v-.29h.29v.29Zm.59-7.08h-.3l-.07.66h.07v-.15h.3Zm1-4.23v-.22h-.44a1,1,0,0,0,.15.66v.29h.29a.84.84,0,0,0,.07-.37v-.14A.27.27,0,0,0,66.49,231.36ZM67.58,237a.24.24,0,0,1-.14.07V237l-.15.22c-.44,0-.51-.22-.88-.37a.46.46,0,0,0-.07.29c.07.08.22.08.37.08-.15.14-.22.36-.51.36v.37a1,1,0,0,0,.14.29.8.8,0,0,0,.59-.66h.29a1.31,1.31,0,0,1-.44.66v.07c.44,0,.8-.07,1.17-.07C67.73,237.64,67.58,237.64,67.58,237Zm-1.38,2v.29h.14C66.27,239.17,66.27,239,66.2,239Zm.21,3.28H66.2l.21.15Zm-.07-6.93.22.29h.51C66.78,235.3,66.63,235.45,66.34,235.3Zm.07.95c.08.22.22.36.3.58h.22c.07-.22.07-.44.14-.73C66.85,236.1,66.63,236.25,66.41,236.25Zm1,6.13h-.37v-.44h-.29c0,.08-.07.66-.07.73v.22h.73Zm-.22-3.58h-.29a.15.15,0,0,0,.14.15h.15ZM68,241h-1a4.94,4.94,0,0,1,.37.51H68Zm-.36-49.42-.08.3h-.36v-.59h.66v.15ZM67.58,196h-.29a2.17,2.17,0,0,1,.37-.95H68A4.6,4.6,0,0,0,67.58,196Zm-.22,47.67h-.07a1.31,1.31,0,0,0,.51.07H68A1.52,1.52,0,0,0,67.36,243.62Zm.81-16.71H68v.29h.22ZM68.46,244H68v.22h.51Zm.29-10.37h-.29V234h.29Zm-.07,8.61h-.15a1.32,1.32,0,0,0,.59.15h.07A.69.69,0,0,0,68.68,242.23Zm1.39-3.65H69.7v.22a.51.51,0,0,1-.29.15l-.15-.07c0-.08-.07-.15-.14-.3h-.3l-.07.44a.46.46,0,0,0-.07.29c0,.22.14.37.44.37v.51a.68.68,0,0,1,.58-.22v-.73h.66C70.28,239,70.14,238.8,70.07,238.58ZM69.48,236l.07-.07a.58.58,0,0,1-.29-.15c-.07.22-.29.29-.44.44v.29h.66v-.15c.07,0,.07-.14.07-.14S69.48,236.1,69.48,236Zm-.66,1.46a.48.48,0,0,0,.3.07h.07C69.12,237.49,68.9,237.56,68.82,237.49Zm.66,9.2-.29.29v-.58h.51l-.22-.08V246c.22.14.29.22.51.36v.37Zm.37-9.86c-.15.37,0,.73-.15,1.1h.37a3.45,3.45,0,0,0,.07-.81v-.29Zm.51,3.73h-.51v.36h.51Zm-.22,2.11c.14.08.22.08.29.22v.22A1.75,1.75,0,0,0,70.14,242.67ZM70.8,245h-.08v-.37h.22c.07.08.07.22.15.3A.46.46,0,0,1,70.8,245Zm.73-9.93h-.3l-.14.22a.56.56,0,0,0,.36.07h.08ZM71.09,247v-.58h.22a1.81,1.81,0,0,0,.29-.81h.22V247Zm1-12.26h-.29a.58.58,0,0,1,.29.07ZM72.18,221l-.22.15.22.14h.22C72.33,221.21,72.25,221.07,72.18,221Zm.29-1c0-.07.08-.07.08-.15a.25.25,0,0,1-.15-.07v.51l.15-.07C72.55,220.12,72.47,220,72.47,220Zm0,1.17v.58l.15-.07a1.09,1.09,0,0,1,.15-.29l.07-.15C72.69,221.21,72.62,221.14,72.47,221.14Zm.88-21.61h-.22c-.14.29-.14.66-.29.95.07.07.29.07.36.07a.46.46,0,0,1-.36.44v.66h-.29V202h.29c0-.22.07-.44.07-.73.29.15.29.08.51.37l-.22.07c0,.07-.07.15-.07.22s.15.07.15.15a1.81,1.81,0,0,1-.37.14,2,2,0,0,0,1.17.44v-.44h-.29v-.95l-.15-.07h.08V201c.07,0,.07.29.07.29h.44C73.86,200.48,73.5,200.63,73.35,199.53Zm-.44-.29h-.29v.29h.29Zm.44,20.95v.29l.07-.07Zm.37-.95h-.3l.22.22v-.15h.08ZM74.08,247v-.58h.22V247Zm.58-44.75-.14-.07a.25.25,0,0,0-.07-.15c0,.15-.22,0-.22.37h.43ZM74.23,244v-.3h.07v.3Zm.07-23.58v.29h.36C74.66,220.48,74.45,220.41,74.3,220.41Zm.29,27a.48.48,0,0,0,.07-.3c.08.08.15.22.22.3Zm1.17-53.14c-.29,0-.59-.15-.88-.15v-.51l.15-.22c.14.14.14.29.22.44.29-.08.51-.3.87-.44v.44A.47.47,0,0,0,75.76,194.28ZM75,241a1.09,1.09,0,0,1,.29-.8h.22l-.22.22a.55.55,0,0,0,.51.58v.3C75.47,241.21,75.25,241.07,75,241Zm.87,2.12a2.73,2.73,0,0,0-.58-.22c-.08.07-.08.22-.22.29l-.07.08a1,1,0,0,1,.65.22c.08,0,.08-.08.15-.15h.07ZM75,246.69h.29v.43C75.1,247,75,247,75,246.69Zm.43.58.22-.07v-.08h.22v.3C75.69,247.34,75.54,247.34,75.39,247.27Zm.22-26.5v.37h.22Zm.15,20.95v.3l.07-.08Zm.51-.8-.15-.22-.29-.14.22-.37h.44C76.42,240.41,76.34,240.63,76.27,240.92Zm.44,1.46c-.07,0-.15-.07-.22-.07a.28.28,0,0,0-.22.07h-.15v.51h-.29a.29.29,0,0,0,.22.07h.15c.14,0,.36-.07.51-.07Zm0-2.19A4.06,4.06,0,0,1,76.2,239a.75.75,0,0,1,.36.73,1,1,0,0,0,.51-.15A.87.87,0,0,0,76.71,240.19Zm-.44-46.35h.22v.44C76.42,194.13,76.34,194,76.27,193.84Zm.44,47.88h-.22v.51H77C76.85,242,76.93,241.94,76.71,241.72Zm.14-3.43h-.14v-.73h.36v.66A.29.29,0,0,0,76.85,238.29Zm0,.51.22.15C77,238.88,76.93,238.88,76.85,238.8Zm1,2.19c-.15,0-.3-.07-.44-.07s-.29.22-.37.37h-.22v-.15a3.46,3.46,0,0,1,.22-1.17h.59a1.06,1.06,0,0,0,.58.95A.68.68,0,0,1,77.88,241Zm-.15-36.06h-.44v.44h.37a.28.28,0,0,1,.07-.22Zm-.44,31.17v-.29h.37v.29Zm0,2.7s0-.22.07-.22h.37v.22Zm.15,6.14h-.15l.15.07Zm-.08-3v.29h.37C77.58,242.09,77.58,241.94,77.36,241.94Zm1.76-13.28c-.51.22-.22.43-.51.73h-.3v.22c-.14.14-.8.07-.87.07a2,2,0,0,1,.29.87c.44-.14.36-.21.88-.21,0-.51.14-1.1.8-1.17A1.12,1.12,0,0,1,79.12,228.66Zm-.88-21.25h-.51v.44h.51Zm-.51,34.82c.07.22.15.44.22.66h.29A.59.59,0,0,0,77.73,242.23Zm.88-11.31h-.52v.44a1,1,0,0,1,.44-.07v-.15h.08Zm.07-20.07h-.15l-.29.21c.07.08.22.3.29.37h.15Zm-.44,31.09v.44h.07v-.15h.3C78.46,242.09,78.46,241.94,78.24,241.94Zm.37,1.17-.37.07a.4.4,0,0,0,.29.08h.08Zm.36-.73h-.66v.51a1.24,1.24,0,0,0,.37-.22.34.34,0,0,1,.22.22H79Zm-.44-4.16c.08,0,.15,0,.15.07Zm.37-1.39h-.29l.29.15ZM78.68,239c.07-.15.14-.22.22-.37l.22.22V239Zm.22-20H79v.36A3.29,3.29,0,0,1,78.9,219Zm.66,21.24H79a.45.45,0,0,0-.07.29c.07-.07.29-.07.36-.07v.15h.22v.36h.44A2.37,2.37,0,0,0,79.56,240.19Zm-.44,4-.22.21v.22h.51l.07-.22C79.41,244.35,79.19,244.28,79.12,244.21Zm.29-40.81h-.29v.22h.36Zm0,30.44h-.29v.22h.29Zm0,11.17h-.29v.36h.29Zm1-32.19h-.59v.43h-.51v.3a1.31,1.31,0,0,0,.88-.44h.22Zm-.44,21.68c-.15,0-.36-.15-.51-.15h-.15v.44c.08,0,.22.07.3.07l-.08.07c0,.08.08.08.08.15s.14-.07.21-.15l.15-.14Zm.22,6.49h-.88v.51h.3v-.21c.14,0,.29,0,.29.21h.29Zm-.66,1.68h-.22v.22h.22Zm0-35a1.39,1.39,0,0,0,.37.22A.42.42,0,0,0,79.48,207.63Zm.08,34.6h-.08v.44h.08v-.29h.29A.29.29,0,0,0,79.56,242.23Zm.94-17h-.65a.83.83,0,0,1-.08.43c.08.22.3.22.44.3a.4.4,0,0,1,.29-.08Zm-.58,3.43h-.15V229h.15Zm.22-14.89h-.29c.07.07.22.14.29.21Zm.51,15.62c-.29-.15-.51-.08-.8-.22v.44c.14,0,.36.14.36.29.15,0,.22-.22.29-.29h.15Zm-.8,6c.07.15.43.73.43.81s-.21.36-.36.43l.44.22c.07-.44.07-1,.14-1.46Zm.51-3.06h-.44v.22h.22v.22c.07-.08.07-.08.14-.08h.08Zm.58,7.88h-.73a.59.59,0,0,1-.07.37h.29l.22-.15h.29Zm-.66,3.43h-.14c.07.07.36.07.44.07h.14C80.65,243.62,80.36,243.62,80.28,243.62Zm0,2.12-.14-.15V246h.22A.26.26,0,0,1,80.28,245.74Zm1-29.71c-.51,0-.73-.29-1-.29a4.15,4.15,0,0,1,.44-.37.64.64,0,0,1-.22-.51,1.29,1.29,0,0,1,.07-.51h.15c.07.15.15.22.29.22s.44-.15.66-.15,1,.37,1,.73c-.07,0-.07.15-.07.15l.07.07C82,216,81.74,216,81.23,216Zm0,13.36h-.29v.14l.15.08v.29c-.15,0-.37.14-.59.14v.51a1.3,1.3,0,0,1,.73-.21ZM81,235.81H80.5a2.8,2.8,0,0,1,.22,1h.37A4.06,4.06,0,0,1,81,235.81ZM80.72,241H80.5v.51c.15.15.22,0,.44.22l.15-.14L81,241.5c0-.07.08-.14.08-.21C80.87,241.29,80.87,241.14,80.72,241Zm-.07-13.79v.14h.07v.29c.15-.14.29-.14.29-.43ZM81,213.25h-.29v.3H81Zm.08,29.86h-.15a.59.59,0,0,0-.22.51h.37ZM81,244.42h-.29v.22H81Zm.44-29.71H81v.3h.44Zm-.22,18.4H81v.29h.22Zm0,2.48H81v.22h.22Zm-.14,4.6H81c.08.22.3.07.44.22A.39.39,0,0,0,81.09,240.19Zm.51-16.79a1.31,1.31,0,0,1-.51.07v.3h.51Zm0,5.55-.22-.15-.15.37h.37Zm-.22,12.77-.07.3.14-.08Zm.22-30.58h-.22v.29h.22Zm-.15,18.47c.15.29.29.43.29.73a1.32,1.32,0,0,0,.15-.59v-.14Zm.22,11.89c0-.07.07-.07.07-.14a.46.46,0,0,1-.29-.07v.43h.29C81.74,241.65,81.67,241.58,81.67,241.5Zm.07,1.39h-.29l.15.15c.07,0,.14,0,.14.07Zm.15-15H81.6v.29h.29Zm.37,9.56a1.15,1.15,0,0,1-.44.15c-.08,0-.15-.08-.22-.08v.66H82l.08-.44.22-.22Zm.07-29.64h-.59v.51c.37-.14.37-.07.59-.29Zm1.24,33.87c-.29-.14-.58-.14-.8-.43a2.62,2.62,0,0,1-1,.43v.22h.44l.15-.22h.73l-.15.15c-.07,0-.22.07-.29.07,0,.22.15.44.15.73a2.8,2.8,0,0,1,.8-.44ZM82.11,215l-.07.07a.25.25,0,0,1-.15-.07v.29h.37A.36.36,0,0,1,82.11,215Zm-.22,12.62v.3H82A.48.48,0,0,0,81.89,227.63Zm.37-.72H82v.29h.3Zm-.08,8.68-.22.22h.3C82.26,235.74,82.18,235.67,82.18,235.59Zm-.22,8.1v.3a.42.42,0,0,0,.3-.22h.07C82.26,243.69,82.11,243.77,82,243.69Zm.59.3h-.29v.22h.29Zm.29-3.58c-.07-.15-.22-.15-.29-.22l-.22.37h.51Zm0-27.67h-.29l.07.37c.07,0,.07-.07.15-.15h.07Zm-.07,16.87.07-.22h-.29v.29a.45.45,0,0,0,.29-.07Zm0,9,.07.37c.15-.15.29,0,.29-.37Zm.07-1.09v.07a1.14,1.14,0,0,1,.51.08.48.48,0,0,0,.07-.3A.85.85,0,0,1,82.84,237.49Zm.58-4.89h-.29v.51h.44C83.5,233,83.5,232.75,83.42,232.6Zm.08-19.78h-.3v.29h.3Zm.29,15.76H83.5l.29.08Zm0-.36v.36h.07A.68.68,0,0,0,83.79,228.22Zm0,15.47v.52l.29-.22C84,243.91,84,243.69,83.79,243.69Zm.07-7.88v.29h.44A4.56,4.56,0,0,1,83.86,235.81Zm0,7.45v.36h.22Zm.22-3.87c0-.08-.07-.08-.07-.15v.29h.07Zm0,4.6v.43h.29C84.37,244.13,84.23,244.13,84.08,244Zm.44-37.45v-.07H84.3v.21h.36C84.59,206.68,84.59,206.61,84.52,206.54ZM84.59,234H84.3v.51h.29Zm-.22,11.75V246h.22Zm.51-8.91h-.14v-.29c0,.07-.08.07-.15.15V237h.29Zm-.29,4.09c0,.07.15.07.22.07h.07A.45.45,0,0,0,84.59,240.92ZM85,229.17c.07.14.29.14.37.22A1.39,1.39,0,0,0,85,229.17Zm.37-15.62h-.3v.22h.3ZM86,214h-.44v.15H86Zm.07-.73-.07.08c-.07,0-.22-.08-.29-.08v.3h.43A.48.48,0,0,1,86.05,213.25Zm-.14-6.57v.3l.36-.08A2.1,2.1,0,0,0,85.91,206.68Zm.36,3H86c.07.07.07.14.14.14h.15Zm.37,1.46h-.22v.65h.43Zm0,3.06c-.08,0-.22,0-.22-.07v.37h.36A.59.59,0,0,1,86.64,214.2Zm.14,5.41.07.14.22-.29C86.93,219.46,86.78,219.53,86.78,219.61Zm0,9.48v.44h.29C86.93,229.31,86.78,229.17,86.78,229.09Zm.59-5.4h-.3a1.87,1.87,0,0,0,.08.66h.22Zm0,6.65h-.3l.15.14c0-.07.07-.07.15-.07Zm.29,6.86a1.1,1.1,0,0,1-.44-.15c0,.07-.07.07-.15.15v.29h.3v.44h.29Zm-.08-10.15c-.07.07-.14.15-.21.15v.22h-.15v-.51h.44Zm.08-2.7h-.29a.38.38,0,0,0,.29.15Zm.14,14.31-.14.14h-.29a2,2,0,0,0,.29-.36H88v.14A.22.22,0,0,1,87.8,238.66Zm0-10.95-.07-.29H88v.43Z"/><path d="M110.29,206v-.52H110a1.17,1.17,0,0,1,.07.52,1.18,1.18,0,0,0-.73-.15V206h-.15v.36c.08.07.3,0,.37,0,0,.22-.07.44-.07.66l.07.07v.36c0,.37-.37.73-.37,1.1s.3.15.37.66h-.37a4.32,4.32,0,0,1,.59,1.31h-.44c0,.29.22.37.22.66.07,0,.07,0,.07.07l-.14.15v.29l.43.14c-.36.3-.73.37-.73,1,0,.15.15.37.15.51a1,1,0,0,1-.29.59c0,.22-.08.51-.08.8a1.52,1.52,0,0,0,.59-.07,1.65,1.65,0,0,1-.51.73v.44a1.09,1.09,0,0,0,.14.51c.08,0,.44.07.44.22s0,.07-.07.07-.22.15-.37.15c.15.43,0,.87.15,1.31,0,.22-.22.36-.22.58a.23.23,0,0,0,.07.15c.08.15.3.15.3.29v.22l-.3.15a7.11,7.11,0,0,1,.15.73,3.78,3.78,0,0,0-.15.87c0,.37.37.66.59.88v.22c-.08-.08-.22-.15-.29-.22s-.22.29-.44.44a2.2,2.2,0,0,1,.14.73,3.2,3.2,0,0,1-.14.8.71.71,0,0,0,.51-.51h.22c0,.22,0,.73-.37.73-.14,0-.29.29-.36.36a.42.42,0,0,0-.08.29c0,.08-.14.22-.22.3v.14h.74c-.08.22-.08.37-.22.51a.32.32,0,0,0-.22.22c0,.29.14.51.14.73H109c-.07.08-.14.08-.14.15s-.08.07-.08.07a2.12,2.12,0,0,0,.81,1.39,1.19,1.19,0,0,1-.81.95c.08.07.15.22.22.29v.15c.08,0,.08,0,.08-.08v-.22h.73l-.29,1.61h-.3v.8H109c-.07.08-.14.15-.14.22s.44.15.51.22l-.15.22a1,1,0,0,1-.58,1c0,.51.36.95.36,1.31a1,1,0,0,1-.36.66v.29a3.17,3.17,0,0,1,.73-.29l-.73.73a1.62,1.62,0,0,1,.14.8h.3l.07.08c0,.36-.51.8-.51,1.31a1,1,0,0,1,.07.44,11.3,11.3,0,0,1-.14,1.53h-.22c0,.44.22.22.29.37v.21l-.07.15c0,.44.07.88.07,1.31h-.51a2,2,0,0,0,.44.44.67.67,0,0,1-.52.22v.29a.59.59,0,0,0,.3.73.84.84,0,0,1-.08.44c-.22,0-.43-.07-.65-.07a1,1,0,0,0-.44.14l-.37.15c.08.22.15.44.37.51v-.14h.14v-.08a.51.51,0,0,1-.21-.22v-.07a3.25,3.25,0,0,1,1.16.07c-.07.15-.14.44-.22.66a.49.49,0,0,1,.3.51h.22v.07a1.21,1.21,0,0,0-.3.3h-.87c-.51,0-1,.07-1.46.07a1.44,1.44,0,0,1-.81-.15h-.21a.52.52,0,0,0,.21-.43,2.25,2.25,0,0,0-1-.22l-.22-.15v-.36a.48.48,0,0,0,.3.07c.07,0,.14-.07.21-.07h.08a1.13,1.13,0,0,1,.44.14H105c0-.22-.07-.36-.07-.51h-.51a1.06,1.06,0,0,0-.29-.44c.07-.07.14-.14.14-.22h.29v-.73h.51c.22,0,.44-.07.73-.07a.65.65,0,0,0-.29-.36c-.14-.08-.29-.08-.36-.15h-.29a.07.07,0,0,1,.07.07c0,.08.07.08.14.08v.14c-.73-.36,0-.29-1.38-.29-.07-.15,0-.37-.29-.37,0-1.24.22-.51.43-1.09a.28.28,0,0,1,.08-.15c-.08-.07-.15,0-.22,0l-.07-.07.07-.15v-.29h-.51v.44h-.37s.07.15,0,.15a.45.45,0,0,1,.29.07c-.29.29-.8.07-1.16.15v-.15h-.08c.15-.73.29-.44.59-.95h.36c-.07,0-.14.22-.14.22l-.22.07v.29a.23.23,0,0,0,.22.22c.07,0,0-.22.43-.22a.42.42,0,0,1,.08-.29V240h-.37c-.22,0-.8-.51-1.31-.66v-.21h.87a1.17,1.17,0,0,0-.29-.37c-.07-.07-.07-.15-.07-.29s.22-.22.22-.29-.29-.22-.37-.3c.08-.29.22-.73.59-.8v-.44a1.31,1.31,0,0,0-.59.66h-.36c.07-.07.14-.15.22-.15a.24.24,0,0,1,.14-.07l-.22-.44c.22-.07.37.08.59-.22.07-.07.07-.14.07-.29s-.07-.29-.07-.43a.59.59,0,0,1,.14-.3v-.07a1.15,1.15,0,0,0-.51.07h-.36v-.07h.14a.79.79,0,0,1,.3-.37c.21.08.36.08.51.15a4.48,4.48,0,0,1,.22-1.39,7.1,7.1,0,0,0-1.54-.58.39.39,0,0,0-.43.29h-.44a1.51,1.51,0,0,1,.29-.44,1.32,1.32,0,0,0-.29-.29v-.29c.58.22,1.53.15,1.82.73h.15c0-.07.07-.07.14-.15v-.07c0-.07-.22-.14-.29-.22,0-.29.37-.22.37-.36a.64.64,0,0,0-.08-.22h-.29a2.71,2.71,0,0,1,1-1.17v-.15c-.51.15-1.53.59-1.68,1.17-.07-.07-.21-.14-.21-.22a2.28,2.28,0,0,1-.22-.22,1.72,1.72,0,0,1,.36-.58c.07,0,.15.07.22.07s.07.15.07.22a.77.77,0,0,0,.22-.44c0-.14-.14-.07-.14-.07s.29-.22.36-.22v-.22h-.58v-.51l-.08.22c-.07-.07-.21-.14-.21-.22s-.37-.29-.59-.29a5.33,5.33,0,0,1-.44-1.39.71.71,0,0,1,.44-.58l.37.22v-.37c-.15-.07-.37,0-.51-.07-.44-.29.22-1.75-.81-2.41a.58.58,0,0,1,.15-.29c.07,0,.14-.07.29-.15a9.17,9.17,0,0,1-.44-1.31c.08-.07.15-.22.22-.29l-.36-.15a1.2,1.2,0,0,1,.65-.8.59.59,0,0,0-.14-.37.59.59,0,0,1-.37-.14c0-.73.15-1.39.15-2.05a.56.56,0,0,0-.07-.36c-.3,0-.3-.59-.3-.8s.08-.66.08-1a2.24,2.24,0,0,1-.44-.95c0-.08,0-.08.07-.15h.22c0-.14.07-.29.07-.44,0-.36-.22-.65-.22-.95v-.21a.41.41,0,0,0,.3-.44c0-.08-.3-.37-.3-.37s.37-.22.44-.29a1,1,0,0,0-.44-.07,3.92,3.92,0,0,0,.15-1c0-.37,0-.8-.44-.8v-.37a1,1,0,0,0,.29-.29V209.6l.44-.14a2.5,2.5,0,0,0-.44-.51h-.07v-.51c0-.3-.14-.51-.14-.81a1,1,0,0,1,.14-.43h.22v-.3a1.08,1.08,0,0,0-.44-.14v-.29a.46.46,0,0,0,.29.07c-.07-.22-.21-.29-.07-.51-.07-.07-.14-.15-.14-.22h-.3c.08-.07.3-.22.3-.44s-.15-.22-.22-.36l.14-.3h-.22c.08-.29.37-.43.66-.58l-.44-.37c0-.14.08-.65.29-.43v-.08a.71.71,0,0,0-.07-.21H99c.15-.3.15-.22.37-.22,0-.08-.15-.22-.15-.3s.29-.14.37-.14a1.36,1.36,0,0,0-.15-.51c-.15-.08-.22-.15-.22-.22s-.07-.15-.07-.29.36-.44.44-.73c-.08-.15-.08-.44-.15-.51h.29v-.44h.22c-.07-.08-.07-.22-.14-.3s-.3-.07-.37-.14v-.44l.29-.29c-.07-.07-.22-.07-.29-.15.07-.29.29-.44.37-.65s-.08-.3-.08-.44c0-.44.22-.59.59-.59v-.51c.29.08.44.29.65.37s.37-.15.51-.15a.93.93,0,0,1,.44.15,1.17,1.17,0,0,1,.51-.29c.15,0,.3.29.3.43.58-.22.36-.29,1-.29.07-.14.07-.29.14-.44a2.33,2.33,0,0,1,1.24.22,1.3,1.3,0,0,0,.08-.51h.22a.85.85,0,0,1,0,.59.16.16,0,0,0,.14-.15.28.28,0,0,1,.08-.15,12.26,12.26,0,0,1,1.46.22c.14-.22,0-.44.29-.44.36.15.51.44.87.66l.37-.14v.14c.36.15.36.22.36.59s.3.36.52.43l-.15.22v0h-.29a1.63,1.63,0,0,0,.73,1.1c-.15.36-.44.65-.59,1a11.89,11.89,0,0,1,.3,1.89h-.3a.53.53,0,0,0,.59.52l-.08.51-.21.22V203h.8c-.08.14-.08.43-.22.58a1.12,1.12,0,0,0-.51-.29,10.16,10.16,0,0,0,0,1.46h-.37a1.27,1.27,0,0,0,.22.29l.37.14c.07,0,.07.08.07.15s.07.07.15.07.07-.07.07-.14-.15-.15-.15-.22H110c.07,0,.65.22.43.36,0,.08.37,0,.37,0V206ZM99.41,207.2v.21h.15Zm.37-2.19h-.22l.22.07Zm0,22.19v-.37h.36v.37Zm.36-6.5V221h.07C100.14,220.92,100.14,220.85,100.14,220.7Zm.07,16.13V237h-.07v-.37l.15.22Zm0-36.71v.21h.3Zm.3,41.6c-.08,0-.22-.07-.22-.14v-.29c.07.07.29.07.29.21S100.51,241.65,100.51,241.72Zm0,1.17c-.08,0-.15-.07-.22-.14l.36.14Zm0-8.68.22.14Zm.14-4.24v-.22l.29.15V230Zm.08,5.4v-.22h.21v.22Zm0,4.82V240h.21v.22Zm.43-17.08h-.22l.22.22Zm.22,5.11c-.07,0-.14-.07-.22-.15a.27.27,0,0,1-.07.22c.15.08.22.15.36.22S101.38,228.29,101.38,228.22Zm-.22,8.17h.37A.32.32,0,0,1,101.16,236.39Zm0,4.75v-.22h.29v.22Zm.22-6.79.15.07C101.45,234.42,101.38,234.42,101.38,234.35Zm.07-7.37v.29h.08C101.53,227.12,101.53,227.05,101.45,227Zm.08,5.4v-.29l.36.07v.22Zm.14,3.65v-.36h.22V236Zm.44-6.13h-.22l.22.07Zm0,10.14v.15h-.22l.22-.44V240Zm0-5.83c0-.08,0-.3-.14-.37l.29.07v.3Zm0,3.28a.11.11,0,0,1,0,.15c.22.14.37.43.59.65h.21A.91.91,0,0,0,102.11,237.49Zm.37,5.4a.29.29,0,0,0-.15-.07l.07-.07h.08v-.08l.36.08v.14Zm.51-7.59-.15-.15c-.14.15-.22.3-.36.44v.08c.22,0,.43-.08.65-.08Zm-.08,1.24c-.07,0-.07.07-.14.15h-.07V237h.43C103,236.83,103.06,236.61,102.91,236.54Zm0,6.06c0-.15-.07-.29-.07-.44.07,0,.22.07.29.07h.08v.37Zm.22-7.74v.29h.08A.4.4,0,0,0,103.13,234.86Zm0,.81V236h.08A.58.58,0,0,0,103.13,235.67Zm.22,9.7v.08h-.22v-.15h.3v.07Zm.37-7.37-.37-.15-.14.44a1,1,0,0,0,.44-.07h.07Zm.14,3.14a1.09,1.09,0,0,0-.14.51,3.55,3.55,0,0,1,.44.58h.43A1.64,1.64,0,0,0,103.86,241.14Zm.15,1.75a.56.56,0,0,1-.29-.14h.58A.37.37,0,0,1,104,242.89Zm-.29,3.51.22-.15a.39.39,0,0,0,.22-.07v.43C104.08,246.54,103.86,246.54,103.72,246.4Zm.44-8.4h-.3v.29h.3Zm0,2.48h-.3v.29h.3Zm0,3.14v-.14h-.3c.08-.08.15-.15.15-.22s.22-.08.29-.08v.44Zm.14-43.29h-.22s.08.08,0,.08c.08.07.15.07.22.14Zm0,39.64-.22.07v.15h.08v.22h.14V240Zm.07,6.06a.28.28,0,0,1-.07-.22h.29v.37C104.52,246.18,104.45,246.1,104.37,246Zm.81-45.91h-.59l.08.14a.29.29,0,0,1,.22.07l.07.08c0,.07.07.07.14.14v-.22h.08Zm-.59,42.11v.37h.3Zm.3-2.55V240H105Zm1.16,3.8v-.15c-.07,0-.07-.07-.14-.15a.78.78,0,0,1-.51.44c.14.37.22.37.22.8h-.44a1.19,1.19,0,0,1,.36.44c.66-.36.15-.58.73-1C106.2,243.77,106.13,243.62,106.05,243.48Zm-.87,1.38a1.48,1.48,0,0,1,.22.59c0,.07-.15.14-.22.22v.21h.65C105.62,245.3,105.91,245.15,105.18,244.86Zm1.24-.51-.15.07a1.41,1.41,0,0,1-.22,1c.08.15.22.37.3.51h.22v-.43h-.22c.07-.08.22-.22.22-.37l-.15-.07c-.07,0-.15,0-.15-.07s.08-.22.08-.3h.22c0-.07.07-.14.07-.22S106.57,244.35,106.42,244.35Zm1,1h-.22v.15h.22Zm.22-3.36v.29h.14C107.66,242.16,107.66,242,107.59,241.94ZM109,198h-.36c.07.07.14.14.22.14H109Zm0,30.07c-.14.15-.14.3-.22.44h.44Zm.52-29.2a1.13,1.13,0,0,0-.44-.14H109V199h.52Zm-.52.95v.3h.08A.53.53,0,0,1,109,199.82Zm.22,10.51v.15h.15Zm.15,16.94V227h.22v.29Zm.22-14.67a.66.66,0,0,0,.36.07A.66.66,0,0,1,109.56,212.6Zm0,16.57V229h.22v.22Zm.36-15.62c-.14-.08-.14-.22-.14-.37v-.07H110v.44ZM110,217v-.29h.07V217Zm.29-12.41v-.29a.27.27,0,0,0,.22.07v.22Zm.44,8v.07h-.3v-.22h.37v.15Zm-.22-5.84v-.29h.29v.29Zm.22,3.36v-.22h.07v.22Z"/><path d="M120.29,203.25h.44C120.51,203.33,120.43,203.33,120.29,203.25Zm.73.44v-.44h.58v.44Zm28.47,42.63v.44l-.37-.07-.22-.22v.29h-.65v-.44a1.47,1.47,0,0,1-.81-.22h-.22v-.51h-.29l-.07-.36a3.29,3.29,0,0,0-.07.36h-.3c0-.07.08-.14.08-.22s.14-.14.22-.14a1.91,1.91,0,0,1-.3-.66c-.58.22-.21.44-1.09.66a1.37,1.37,0,0,1,.15.58c0,.59-.81,1-1,1.53h-.36s.07-.14.14-.14.22-.22.22-.29h.22a3.66,3.66,0,0,0-2-.44c0,.29.07.58.07.87h-.36v-1c-.51,0-.88.29-1.31.29a1.06,1.06,0,0,1-.51-.14v-.15l-.22-.22-.37.22c-.58-.14-1.17-.07-1.68-.22v.37c-.07-.07-.22-.07-.29-.15s-.07-.14-.15-.22l.15-.22h.29c-.07-.14-.22-.21-.29-.29s-.29-.07-.44-.07V245c0-.07-.14-.15-.22-.22a.73.73,0,0,1,.51-.51,1.31,1.31,0,0,0-.51-.8,1.81,1.81,0,0,1-.07-.88H137c.08-.37.15-.22.15-.66h-.51c0-.29-.44-.65-.44-.65l.22-.3h.51l-.22-.14-.07-.66-.15-.07-.29-.08v-1.31H136v-.66h-.44l.22-.43-.14-.08a.24.24,0,0,1-.08-.14h-.43v.22h-.51c-.37.36-.08.43-.73.73v.36h.95v.44c-.3-.15-.59-.07-.95-.22l.07.36h.51a2.88,2.88,0,0,0-.22,1.1h.44a9.13,9.13,0,0,0-.22,1.46,1.37,1.37,0,0,0,.22.73c0,.07-.07.15-.15.22a.27.27,0,0,1-.22.07,4.48,4.48,0,0,0-.29,1.32h.29v.58h.22c.08.15.15.22.15.36,0,.3-.44.3-.44.44s.22.22.29.29v.22a3.47,3.47,0,0,1-.87-.22c0,.22-.08.37-.08.59a1.51,1.51,0,0,1-.29.44h-.58v.43h-.44v-.43l-.22-.15h-.14v.58h-.52a.15.15,0,0,1-.14-.14H131a.36.36,0,0,0-.37.22l-.07-.08v-.14H130v-.44h-.73c.07.07.22.07.29.15v.29h-.37v-.29a.24.24,0,0,0-.21-.08.47.47,0,0,0-.44.37h-1v.14a1.58,1.58,0,0,1-.94-.58h-.81a2.73,2.73,0,0,1,.22.58h-.44a4.58,4.58,0,0,0-.36-.87h-.37v-.15c-.07-.07-.07-.07-.14-.07s-.22.15-.29.22-1.1-.44-1.1-.44c-.14-.15-.29-.22-.29-.51s.15-.44.15-.73a1.36,1.36,0,0,0-.15-.51h-.22c0-.07-.07-.15-.07-.29l.14-.08c.08,0,.15-.07.15-.22v-.21h-.22v-.08c0-.22.29-.22.29-.51,0-.07-.07-.22-.07-.29h-.22v-.29H123c-.15-.15-.37-.22-.37-.37s.08-.14.15-.22h.15v-1.31h-.22l.22-.15a2.69,2.69,0,0,0,.14-.73c0-.73-.51-1.31-.51-2a1.13,1.13,0,0,1,.07-.51h.22a11.11,11.11,0,0,0,.15-2.7c0-.22,0-.44-.22-.58h-.15v-.3h.15a.54.54,0,0,0,.15-.29c0-.22-.3-.51-.37-.73h.22c0-.29-.29-.29-.29-.51a.56.56,0,0,1,.07-.36h.22c0-.44.07-.88.07-1.32a7.82,7.82,0,0,0-.14-2.26h-.22a.25.25,0,0,1-.07-.15c0-.14.29,0,.29-.51l-.08-3c0-.51-.29-.95-.29-1.39a.24.24,0,0,0,.08-.14h.21l.08-.81a.79.79,0,0,0-.15-.43v-3c0-.29-.36-.29-.36-.43a.15.15,0,0,1,.14-.15h.22c0-.15.07-.37.07-.51,0-.29-.14-.51-.14-.88s.14-1,.14-1.46-.29-1.17-.29-1.75.15-1,.15-1.53-.22-.88-.22-1.32.29-.8.29-1.24a1.5,1.5,0,0,0-.07-.51l-.07-3.21h.29c.07-.07.07-.15.07-.29,0-.29-.44,0-.44-.37a.52.52,0,0,1,.08-.29h.29a.8.8,0,0,0,.07-.22c-.07-.14-.36-.07-.51-.36a20.37,20.37,0,0,0,.07-3.65h.29v-.15a3.08,3.08,0,0,0-.36-1.17h.36a1,1,0,0,0,.08-.51.47.47,0,0,0-.44-.44c.22-.36.36-.73.58-1h.44a.72.72,0,0,0,.15.44c.36.15.43.58.43.95,0,.07.37.14.52.22a.4.4,0,0,0-.08.29c0,.15.08.29.08.51h.51a2.31,2.31,0,0,0-.22,1v.15h.44a.71.71,0,0,0-.08.36c0,.15.37.15.37.59,0,.22-.29.51-.22.95a1.45,1.45,0,0,1,.51.14,1.31,1.31,0,0,1,.07.51c.15-.07.44-.14.51-.29v-.07c.08,0,.22.36.22.36H127a1.27,1.27,0,0,0,.08-.58c0-.44-.08-.95-.08-1.39h-.51v-.58h.15v-.29h-.22v-.88h-.22v-.15h.22c-.15-.87-.07-1.75-.22-2.7H126c-.07,0-.14-.14-.14-.22s.14,0,.14-.07a1.93,1.93,0,0,0-.36-.14c.29-.15.29-.08.51-.08a.29.29,0,0,0,.22-.07v-.29h.51v-.15c1.31-.14,2.55-.14,3.87-.22v.08c.14.21.73.14.87.14a1.45,1.45,0,0,0,.81-.22v-.22h.73v.44c.36-.14.8-.07,1.24-.22-.08.08-.22.15-.3.22l.15.15c0-.08.15,0,.15,0a.56.56,0,0,0,.07.36v-.36H135v.44l-.14-.15a.61.61,0,0,1-.3.15.46.46,0,0,1-.07.29H135c-.14.14-.14.36-.21.58h.58v.29a.22.22,0,0,1-.15.08v.29h.51v-.37h.59v.37c0,.07-.08.07-.15.07s0,.22,0,.29c-.29,0-.51-.07-.73.08v.51h.37l.07,2h.29v.8h.22V202h-.51c.15.08.22,0,.36,0s.15,0,.15.08a2.92,2.92,0,0,1,.22.65c.36.59.51,0,.66.95.36-.14.58-.29.95-.44v-.87h.36V202H139l-.08-.29h-.29v-.66h.29v-.36h.29a1,1,0,0,0,.15-.44c0-.51-.44-.95-.44-1.46a3.32,3.32,0,0,1,.08-.88.82.82,0,0,0,.36-.58c0-.07-.15-.14-.15-.22V197a3.25,3.25,0,0,1,.08-.88h.95v-.29h.65v-.15h2.34a4.05,4.05,0,0,1,1.61-.22,4.2,4.2,0,0,1,1.67.22h1.61v.15h.51v.73h.44v.36c-.22.08-.37.22-.37.37s0,.07.08.14h.29v.73a.86.86,0,0,0-.44.08,3.09,3.09,0,0,1,.15,1.16h.29a1.14,1.14,0,0,1,.15.52,1.56,1.56,0,0,1-.52.87v.73h.15l-.07-.22h.36a1.75,1.75,0,0,1-.44.81.63.63,0,0,0,.44.65c-.14.37-.07.66-.36.95a.28.28,0,0,0,.07.22c.07,0,.22-.07.29-.07l.08.73h-.44a2.5,2.5,0,0,1,0,1h.44a1,1,0,0,1-.44.66l.07.87c.07-.07.07-.14.07-.29h.59l-.15.29h-.44v.73h.3l.07.59c-.15.14-.37,0-.37.22v.14h.37v2H149V211a2.54,2.54,0,0,0,.73.22v.51l-.3-.14-.07-.08v.08c0,.07-.44.14-.44.14v.8a.62.62,0,0,1-.51.59v.73h.51v1.09h-.51v.37H149c.07.44.51.8.51,1.17,0,.14-.08.29-.08.43h-.14a.26.26,0,0,0-.22.08h.36v.22c0,.43-.36.51-.36.65s.22.3.36.3c-.07.14-.29.14-.43.14V219h.43c-.14.22-.29.36-.36.51h-.37c.08.07.08.15.15.15a.28.28,0,0,1,.22.07l-.22.22h-.29v.87l.22-.14v-.37h.29v.37l-.29.14.14.15s.15,0,.15.07a.29.29,0,0,0-.07.15c-.08-.07-.15,0-.22,0l.29.29-.29.15a1.2,1.2,0,0,0,.44.43c0,.37-.08.66-.44.73v.08h.73a2.57,2.57,0,0,1-.88,1.24c.07.07.37.07.51.07v.58h-.51v.44a3.86,3.86,0,0,1,.95.15c-.22.36-.73.44-.73.87a.5.5,0,0,0,.29.44c.22.15.15,1.54.15,1.61,0,.58-.07,1.09-.07,1.68h-.3c0,.07.08.14.08.22a1,1,0,0,0,.22.14c0,.08-.08.15,0,.15-.08,0-.22.07-.3.07l.15.15.15.07s-.08.15,0,.15a.48.48,0,0,0-.3.07c.08.22.08.44.37.44.07,0,.07.14.07.22l-.07,1.89H149v.74h.29a.91.91,0,0,1-.51.65c0,.44.29.59.29.81a.26.26,0,0,1-.07.21h-.15v.59h.22v.65a.15.15,0,0,0,.15.15c.07,0,.14.15.14.15h.07a.25.25,0,0,1,.08.22l-.15.07c-.14,0-.36.07-.36.29s.36.51.36.95h-.51c.15.22.37.07.51.22l.07.87h-.36l.44.37v.51c0,.37.07.66.07,1a.65.65,0,0,1-.44.66v.58c.08,0,.22-.07.29,0s0-.22,0-.29h.44v.29h-.44l.08.44h-.37c0,.07-.07.22-.07.29,0,.37.51.08.51.37a1,1,0,0,1,.15.44c0,.29-.22.51-.22.8s.22.44.44.58ZM125.32,200.7a.48.48,0,0,0,.3.07A.48.48,0,0,1,125.32,200.7Zm3.73,9.12a.36.36,0,0,0-.15-.29h-.29v-.73c-.22-.29-.73-.22-.73-.51s.29-.36.29-.44H128a.77.77,0,0,1-.14-.36c0-.29.36-.15.36-.59,0-.07-.07-.51-.07-.58l-.07.07c-.08,0-.08-.07-.15-.14v-1.32h-.44c.07-.07.07-.22.15-.29h.22c-.15-.36-.37-.58-.37-.95h-1v.37h-.36c0,1.38.58.8,1,1.82h.43c-.07.22-.14.51-.43.59a.73.73,0,0,0,.73.36l-.22.29h-.37c0,.29-.14.51-.14.73a.37.37,0,0,0,.14.29h.29v.37c.22.07.3.22.44.29s.08.22.08.29c0,.22-.15.3-.15.51s0,.22.07.3v.22h.51l.08.43h.73C128.9,210.12,129.05,210.19,129.05,209.82Zm-.51,1.17h-.37a.91.91,0,0,0,.37.22Zm.73.8a7.78,7.78,0,0,0-.73.3v.22h.73Zm.14,1h-.73v.66h.59c0-.15,0-.29.14-.36Zm-.14-1.53h-.37l.08.22h.29Zm-.29,2.41a1.23,1.23,0,0,0,.29.36l.14-.36Zm.36.8H129v.29h.36Zm.58,0h-.22v.66h.22Zm.59,32.05v.73h.14v-.29c0-.08.15-.15.15-.22S130.58,246.54,130.51,246.47Zm.87-26.57h-.51v.29h.51Zm-.22-24.68v-.29h.15v.29Zm.22,25.33h-.22v.22h.22Zm1.24,2.41c-.14-.29-.94-1.68-.8-1.82a1.07,1.07,0,0,0-.44-.37,14.24,14.24,0,0,0,1.39,4.09v-.22A11.92,11.92,0,0,0,132.62,223Zm.37,2h-.44a2,2,0,0,0,.44.88h.29C133.21,225.52,133.06,225.23,133,224.93Zm.58,3a1.44,1.44,0,0,1-.58.07v.58h.58Zm.44,18.54v-.15h.37v.15Zm.66-6.21v-.51h.51v.51Zm.44-5.11h-.37v.59h.44C135.18,235.52,135.11,235.37,135.11,235.15Zm.29,11.61a1,1,0,0,0-.15-.44H135v-.44h-.22v-.36h.51c0,.58-.07.73.44.95v.29Zm-.29-10.22-.29-.07v.29h.36Zm-.29,1.53v-.22h.43v.22Zm1.31,8.4v-.15h.22v.15Zm.51-43.73h-.37c0,.08.08.15.08.22s.07,0,.14,0v.29h.22Zm.15-3.36v-.29h.36v.29Zm.07,3v-.29h.44v.29Zm1.53,1.68c0,.07-.07.14-.14.22H138a.75.75,0,0,1,.51-.44v-.15h-.95l.07,1.24H138l.07.44a2,2,0,0,0-.73.22c.15.29.44.37.58.66h.37a20.42,20.42,0,0,0,.36-2.19Zm-.07,2.77h-.22v.29h.22Zm-.22,1a1.21,1.21,0,0,1,.22.29c.07,0,.22-.07.29-.07s0-.14,0-.22Zm.51-1.6v.58a.39.39,0,0,0,.15-.29A.58.58,0,0,0,138.61,206.25Zm1.53,41.09v-.14h.37v.14Zm1.54-21.89a1.07,1.07,0,0,1-.66-.15l.15.44h.51Zm.43,2.48h-.21c.07,0,.14.07.21.07Zm1,4.23h-.22v.29h.22Zm.07,15.18.22.22Zm.36-14.45h-.21v.29h.21Zm.44.58a1.28,1.28,0,0,0-.44,1.1H144Zm1,6.14.3-.3c-.08-.21-.22-.36-.3-.58h-.43c0-.29-.22-.58-.22-.88-.08,0-.29.08-.29.22a.61.61,0,0,1-.15.3,1,1,0,0,0,.44.07c0,.44.22.73.22,1.17h.22v.14h.65A.55.55,0,0,0,145,239.61Zm-.73-3.87H144c.15.07.22.07.29.14Zm.08.73H144v.29h.37Zm1,3.57h-.73v.37a.72.72,0,0,0,.43-.15h.3Zm-.51,1.68c0-.07-.15-.14-.15-.22v.44h.22A.27.27,0,0,1,144.82,241.72Zm0-.73a5.54,5.54,0,0,0,.21.59.86.86,0,0,1,.37.36h.36A6.49,6.49,0,0,0,144.82,241Zm.58.95h-.51v.29h.51Zm-.07-1.53H145v.51h.3Zm.87,2.48h-.07a1.07,1.07,0,0,0-.66.15c.15.14.22.29.37.44h.36Zm-.36-.66h-.08a.76.76,0,0,0,.37.08h.07C146.13,242.23,146,242.23,145.84,242.23Zm.29,2h-.29v.58h.29Zm.29-.59h-.29v.59h.29Zm.07,3.58c0-.08.15-.22.15-.22a.29.29,0,0,0,.15-.07,1,1,0,0,0-.51-.15v-.29h.51c0,.22.14.44.14.65v.08Zm2.41-18.62h-.22l.22.15Zm0,.44h-.22v.88h.22Zm0,2.56h-.22l.08.22h.14Zm.37-19.27c.07,0,.14.07.22.07l.14.14C149.49,212.45,149.41,212.38,149.27,212.31Zm.51-15.63-.07-.43h.22v.43Zm.44,50.66v-.43h.44v.43Zm.44-1.24v-.51h.21v.51Zm.8,1.46-.15-.22c0,.08.15.08.15.08l.14.14S151.46,247.49,151.46,247.56Z"/></g></svg>
