<svg xmlns="http://www.w3.org/2000/svg" width="390" height="490" viewBox="0 0 390 490"><defs><style>.cls-1{fill:#fff;}</style></defs><title>Glad spøgelse</title><g id="Layer_4" data-name="Layer 4"><path class="cls-1" d="M367.83,225.42c3.81,46.37,21.24,189,3.2,223.47-16.49,32.94-56.83,14-92.24.26-29.27-9.72-53.13,31.79-84,30.56-32.22-1.61-67.33-31.85-98.63-20.46-31.46,9.59-59.86,30.53-75.63,7.32-21.76-34.15-2.91-194,1.23-240.73,2.67-31,10-53.71,20.51-76.44A384.16,384.16,0,0,1,82.08,83.82C113.53,41.4,152.46,7.34,194.8,9.71s81.28,16.66,112.72,52.43c15.65,18.08,29.29,42.3,39.8,71.63A389.21,389.21,0,0,1,367.83,225.42Z"/><ellipse cx="142" cy="151.09" rx="23.09" ry="19.92"/><path d="M243.73,209c0,19.59-21,35.48-46.81,35.48s-46.8-15.89-46.8-35.48,19.08-4.36,44.93-4.36S243.73,189.38,243.73,209Z"/><ellipse cx="254.34" cy="151.09" rx="23.09" ry="19.92"/></g></svg>