<svg xmlns="http://www.w3.org/2000/svg" width="70" height="150" viewBox="0 0 70 150"><defs><style>.cls-1{fill:#b3b3b3;}.cls-2{fill:#e6e6e6;}.cls-3{fill:#f2f2f2;opacity:0.6;}</style></defs><title>Glas 2</title><g id="Layer_4" data-name="Layer 4"><path class="cls-1" d="M16,8.5H53a7,7,0,0,1,7,7v124a3,3,0,0,1-3,3H12a3,3,0,0,1-3-3V15.5A7,7,0,0,1,16,8.5Z"/><path class="cls-2" d="M17,9.13H52a7,7,0,0,1,7,7V134.87a3,3,0,0,1-3,3H13a3,3,0,0,1-3-3V16.13A7,7,0,0,1,17,9.13Z"/><rect class="cls-3" x="28" y="106.5" width="31" height="31" rx="12" ry="12"/><rect class="cls-3" x="11" y="78.5" width="31" height="31" rx="12" ry="12" transform="translate(-33.74 17.13) rotate(-22.34)"/><rect class="cls-3" x="27" y="49.5" width="31" height="31" rx="12" ry="12" transform="translate(38.19 -12.54) rotate(30)"/><rect class="cls-3" x="12" y="19.5" width="31" height="31" rx="12" ry="12" transform="translate(-13.11 16.78) rotate(-27.68)"/></g></svg>