<svg xmlns="http://www.w3.org/2000/svg" xmlns:xlink="http://www.w3.org/1999/xlink" width="70" height="150" viewBox="0 0 70 150"><defs><style>.cls-1{fill:#b3b3b3;}.cls-2{fill:#e6e6e6;}.cls-3{fill:#f2f2f2;opacity:0.6;}.cls-4{fill:#8cc63f;}.cls-5{fill:#39b54a;}.cls-6{fill:#fff;}.cls-7{opacity:0.25;fill:url(#Sky);}</style><linearGradient id="Sky" x1="37.65" y1="131.54" x2="35.28" y2="19.61" gradientUnits="userSpaceOnUse"><stop offset="0" stop-color="#cce0f4"/><stop offset="0.06" stop-color="#c3dcf2"/><stop offset="0.17" stop-color="#a9d2ee"/><stop offset="0.31" stop-color="#80c2e7"/><stop offset="0.46" stop-color="#47acde"/><stop offset="0.57" stop-color="#1e9cd7"/><stop offset="0.87" stop-color="#0075be"/><stop offset="0.99" stop-color="#005b97"/></linearGradient></defs><title>Glas 5</title><g id="Layer_4" data-name="Layer 4"><path class="cls-1" d="M18,10.5H55a7,7,0,0,1,7,7v124a3,3,0,0,1-3,3H14a3,3,0,0,1-3-3V17.5A7,7,0,0,1,18,10.5Z"/><path class="cls-2" d="M19,11.13H54a7,7,0,0,1,7,7V136.87a3,3,0,0,1-3,3H15a3,3,0,0,1-3-3V18.13A7,7,0,0,1,19,11.13Z"/><rect class="cls-3" x="30" y="108.5" width="31" height="31" rx="12" ry="12"/><rect class="cls-3" x="13" y="80.5" width="31" height="31" rx="12" ry="12" transform="translate(-34.35 18.04) rotate(-22.34)"/><rect class="cls-3" x="29" y="51.5" width="31" height="31" rx="12" ry="12" transform="translate(39.46 -13.27) rotate(30)"/><rect class="cls-3" x="14" y="21.5" width="31" height="31" rx="12" ry="12" transform="translate(-13.81 17.94) rotate(-27.68)"/><path class="cls-4" d="M43.51,10,28,16.5c3.76,8.36,14.41,12.76,23,9a17.88,17.88,0,0,0,9-23Z"/><path class="cls-5" d="M60.49,2.28l-1.35.59c3.62,8.59-.13,18.57-8.4,22.19s-18-.33-22-8.73l-1.21.54A18,18,0,0,0,60.49,2.28Z"/><polygon class="cls-6" points="43.84 12 45.26 26.62 44 26.54 43.84 12"/><polygon class="cls-6" points="42.71 11.84 36.6 25.21 35.55 24.51 42.71 11.84"/><polygon class="cls-6" points="42.22 11.65 28.97 18.01 28.61 16.8 42.22 11.65"/><polygon class="cls-6" points="47.16 9.5 60.45 3.24 60.8 4.45 47.16 9.5"/><polygon class="cls-6" points="46.66 10.53 61.29 11.88 60.98 13.1 46.66 10.53"/><polygon class="cls-6" points="45.59 11.54 55.05 22.78 53.97 23.43 45.59 11.54"/><path class="cls-7" d="M12,17.5H61a0,0,0,0,1,0,0V136.87a3,3,0,0,1-3,3H15a3,3,0,0,1-3-3V17.5A0,0,0,0,1,12,17.5Z"/></g></svg>