<svg xmlns="http://www.w3.org/2000/svg" width="290" height="330" viewBox="0 0 290 330"><defs><style>.cls-1{opacity:0.75;}.cls-2{fill:#b3b3b3;}.cls-3{fill:#e6e6e6;}</style></defs><title>Glas</title><g id="Forgrund"><g class="cls-1"><path class="cls-2" d="M217.5,17h37a7,7,0,0,1,7,7V148a3,3,0,0,1-3,3h-45a3,3,0,0,1-3-3V24A7,7,0,0,1,217.5,17Z"/><path class="cls-3" d="M218.5,17.63h35a7,7,0,0,1,7,7V143.37a3,3,0,0,1-3,3h-43a3,3,0,0,1-3-3V24.63A7,7,0,0,1,218.5,17.63Z"/></g><g class="cls-1"><path class="cls-2" d="M217.5,66h37a7,7,0,0,1,7,7V197a3,3,0,0,1-3,3h-45a3,3,0,0,1-3-3V73A7,7,0,0,1,217.5,66Z"/><path class="cls-3" d="M218.5,66.63h35a7,7,0,0,1,7,7V192.37a3,3,0,0,1-3,3h-43a3,3,0,0,1-3-3V73.63A7,7,0,0,1,218.5,66.63Z"/></g><g class="cls-1"><path class="cls-2" d="M217.5,115h37a7,7,0,0,1,7,7V246a3,3,0,0,1-3,3h-45a3,3,0,0,1-3-3V122A7,7,0,0,1,217.5,115Z"/><path class="cls-3" d="M218.5,115.63h35a7,7,0,0,1,7,7V241.37a3,3,0,0,1-3,3h-43a3,3,0,0,1-3-3V122.63A7,7,0,0,1,218.5,115.63Z"/></g><g class="cls-1"><path class="cls-2" d="M217.5,172h37a7,7,0,0,1,7,7V303a3,3,0,0,1-3,3h-45a3,3,0,0,1-3-3V179A7,7,0,0,1,217.5,172Z"/><path class="cls-3" d="M218.5,172.63h35a7,7,0,0,1,7,7V298.37a3,3,0,0,1-3,3h-43a3,3,0,0,1-3-3V179.63A7,7,0,0,1,218.5,172.63Z"/></g><g class="cls-1"><path class="cls-2" d="M154.5,17h37a7,7,0,0,1,7,7V148a3,3,0,0,1-3,3h-45a3,3,0,0,1-3-3V24A7,7,0,0,1,154.5,17Z"/><path class="cls-3" d="M155.5,17.63h35a7,7,0,0,1,7,7V143.37a3,3,0,0,1-3,3h-43a3,3,0,0,1-3-3V24.63A7,7,0,0,1,155.5,17.63Z"/></g><g class="cls-1"><path class="cls-2" d="M154.5,66h37a7,7,0,0,1,7,7V197a3,3,0,0,1-3,3h-45a3,3,0,0,1-3-3V73A7,7,0,0,1,154.5,66Z"/><path class="cls-3" d="M155.5,66.63h35a7,7,0,0,1,7,7V192.37a3,3,0,0,1-3,3h-43a3,3,0,0,1-3-3V73.63A7,7,0,0,1,155.5,66.63Z"/></g><g class="cls-1"><path class="cls-2" d="M154.5,115h37a7,7,0,0,1,7,7V246a3,3,0,0,1-3,3h-45a3,3,0,0,1-3-3V122A7,7,0,0,1,154.5,115Z"/><path class="cls-3" d="M155.5,115.63h35a7,7,0,0,1,7,7V241.37a3,3,0,0,1-3,3h-43a3,3,0,0,1-3-3V122.63A7,7,0,0,1,155.5,115.63Z"/></g><g class="cls-1"><path class="cls-2" d="M154.5,172h37a7,7,0,0,1,7,7V303a3,3,0,0,1-3,3h-45a3,3,0,0,1-3-3V179A7,7,0,0,1,154.5,172Z"/><path class="cls-3" d="M155.5,172.63h35a7,7,0,0,1,7,7V298.37a3,3,0,0,1-3,3h-43a3,3,0,0,1-3-3V179.63A7,7,0,0,1,155.5,172.63Z"/></g><g class="cls-1"><path class="cls-2" d="M91.5,17h37a7,7,0,0,1,7,7V148a3,3,0,0,1-3,3h-45a3,3,0,0,1-3-3V24A7,7,0,0,1,91.5,17Z"/><path class="cls-3" d="M92.5,17.63h35a7,7,0,0,1,7,7V143.37a3,3,0,0,1-3,3h-43a3,3,0,0,1-3-3V24.63A7,7,0,0,1,92.5,17.63Z"/></g><g class="cls-1"><path class="cls-2" d="M91.5,66h37a7,7,0,0,1,7,7V197a3,3,0,0,1-3,3h-45a3,3,0,0,1-3-3V73A7,7,0,0,1,91.5,66Z"/><path class="cls-3" d="M92.5,66.63h35a7,7,0,0,1,7,7V192.37a3,3,0,0,1-3,3h-43a3,3,0,0,1-3-3V73.63A7,7,0,0,1,92.5,66.63Z"/></g><g class="cls-1"><path class="cls-2" d="M91.5,115h37a7,7,0,0,1,7,7V246a3,3,0,0,1-3,3h-45a3,3,0,0,1-3-3V122A7,7,0,0,1,91.5,115Z"/><path class="cls-3" d="M92.5,115.63h35a7,7,0,0,1,7,7V241.37a3,3,0,0,1-3,3h-43a3,3,0,0,1-3-3V122.63A7,7,0,0,1,92.5,115.63Z"/></g><g class="cls-1"><path class="cls-2" d="M91.5,172h37a7,7,0,0,1,7,7V303a3,3,0,0,1-3,3h-45a3,3,0,0,1-3-3V179A7,7,0,0,1,91.5,172Z"/><path class="cls-3" d="M92.5,172.63h35a7,7,0,0,1,7,7V298.37a3,3,0,0,1-3,3h-43a3,3,0,0,1-3-3V179.63A7,7,0,0,1,92.5,172.63Z"/></g><g class="cls-1"><path class="cls-2" d="M29.5,17h37a7,7,0,0,1,7,7V148a3,3,0,0,1-3,3h-45a3,3,0,0,1-3-3V24A7,7,0,0,1,29.5,17Z"/><path class="cls-3" d="M30.5,17.63h35a7,7,0,0,1,7,7V143.37a3,3,0,0,1-3,3h-43a3,3,0,0,1-3-3V24.63A7,7,0,0,1,30.5,17.63Z"/></g><g class="cls-1"><path class="cls-2" d="M29.5,66h37a7,7,0,0,1,7,7V197a3,3,0,0,1-3,3h-45a3,3,0,0,1-3-3V73A7,7,0,0,1,29.5,66Z"/><path class="cls-3" d="M30.5,66.63h35a7,7,0,0,1,7,7V192.37a3,3,0,0,1-3,3h-43a3,3,0,0,1-3-3V73.63A7,7,0,0,1,30.5,66.63Z"/></g><g class="cls-1"><path class="cls-2" d="M29.5,115h37a7,7,0,0,1,7,7V246a3,3,0,0,1-3,3h-45a3,3,0,0,1-3-3V122A7,7,0,0,1,29.5,115Z"/><path class="cls-3" d="M30.5,115.63h35a7,7,0,0,1,7,7V241.37a3,3,0,0,1-3,3h-43a3,3,0,0,1-3-3V122.63A7,7,0,0,1,30.5,115.63Z"/></g><g class="cls-1"><path class="cls-2" d="M29.5,172h37a7,7,0,0,1,7,7V303a3,3,0,0,1-3,3h-45a3,3,0,0,1-3-3V179A7,7,0,0,1,29.5,172Z"/><path class="cls-3" d="M30.5,172.63h35a7,7,0,0,1,7,7V298.37a3,3,0,0,1-3,3h-43a3,3,0,0,1-3-3V179.63A7,7,0,0,1,30.5,172.63Z"/></g></g></svg>
