<svg xmlns="http://www.w3.org/2000/svg" xmlns:xlink="http://www.w3.org/1999/xlink" width="70" height="150" viewBox="0 0 70 150"><defs><style>.cls-1{fill:#b3b3b3;}.cls-2{fill:#e6e6e6;}.cls-3{fill:#f2f2f2;opacity:0.6;}.cls-4{opacity:0.25;fill:url(#Sky);}</style><linearGradient id="Sky" x1="33.92" y1="135.24" x2="33.09" y2="95.91" gradientUnits="userSpaceOnUse"><stop offset="0" stop-color="#cce0f4"/><stop offset="0.06" stop-color="#c3dcf2"/><stop offset="0.17" stop-color="#a9d2ee"/><stop offset="0.31" stop-color="#80c2e7"/><stop offset="0.46" stop-color="#47acde"/><stop offset="0.57" stop-color="#1e9cd7"/><stop offset="0.87" stop-color="#0075be"/><stop offset="0.99" stop-color="#005b97"/></linearGradient></defs><title>Glas 3</title><g id="Layer_4" data-name="Layer 4"><path class="cls-1" d="M15,8.5H52a7,7,0,0,1,7,7v124a3,3,0,0,1-3,3H11a3,3,0,0,1-3-3V15.5A7,7,0,0,1,15,8.5Z"/><path class="cls-2" d="M16,9.13H51a7,7,0,0,1,7,7V134.87a3,3,0,0,1-3,3H12a3,3,0,0,1-3-3V16.13A7,7,0,0,1,16,9.13Z"/><rect class="cls-3" x="27" y="106.5" width="31" height="31" rx="12" ry="12"/><rect class="cls-3" x="10" y="78.5" width="31" height="31" rx="12" ry="12" transform="translate(-33.82 16.75) rotate(-22.34)"/><rect class="cls-3" x="26" y="49.5" width="31" height="31" rx="12" ry="12" transform="translate(38.06 -12.04) rotate(30)"/><rect class="cls-3" x="11" y="19.5" width="31" height="31" rx="12" ry="12" transform="translate(-13.23 16.32) rotate(-27.68)"/><path class="cls-4" d="M9,95.5H58a0,0,0,0,1,0,0v39.37a3,3,0,0,1-3,3H12a3,3,0,0,1-3-3V95.5A0,0,0,0,1,9,95.5Z"/></g></svg>