<svg xmlns="http://www.w3.org/2000/svg" xmlns:xlink="http://www.w3.org/1999/xlink" width="70" height="150" viewBox="0 0 70 150"><defs><style>.cls-1{fill:#b3b3b3;}.cls-2{fill:#e6e6e6;}.cls-3{fill:#f2f2f2;opacity:0.6;}.cls-4{opacity:0.25;fill:url(#Sky);}</style><linearGradient id="Sky" x1="35.65" y1="127.54" x2="33.28" y2="15.61" gradientUnits="userSpaceOnUse"><stop offset="0" stop-color="#cce0f4"/><stop offset="0.06" stop-color="#c3dcf2"/><stop offset="0.17" stop-color="#a9d2ee"/><stop offset="0.31" stop-color="#80c2e7"/><stop offset="0.46" stop-color="#47acde"/><stop offset="0.57" stop-color="#1e9cd7"/><stop offset="0.87" stop-color="#0075be"/><stop offset="0.99" stop-color="#005b97"/></linearGradient></defs><title>Glas 4</title><g id="Layer_4" data-name="Layer 4"><path class="cls-1" d="M16,6.5H53a7,7,0,0,1,7,7v124a3,3,0,0,1-3,3H12a3,3,0,0,1-3-3V13.5a7,7,0,0,1,7-7Z"/><path class="cls-2" d="M17,7.13H52a7,7,0,0,1,7,7V132.87a3,3,0,0,1-3,3H13a3,3,0,0,1-3-3V14.13A7,7,0,0,1,17,7.13Z"/><rect class="cls-3" x="28" y="104.5" width="31" height="31" rx="12" ry="12"/><rect class="cls-3" x="11" y="76.5" width="31" height="31" rx="12" ry="12" transform="translate(-32.98 16.98) rotate(-22.34)"/><rect class="cls-3" x="27" y="47.5" width="31" height="31" rx="12" ry="12" transform="translate(37.19 -12.81) rotate(30)"/><rect class="cls-3" x="12" y="17.5" width="31" height="31" rx="12" ry="12" transform="translate(-12.18 16.55) rotate(-27.68)"/><path class="cls-4" d="M10,13.5H59a0,0,0,0,1,0,0V132.87a3,3,0,0,1-3,3H13a3,3,0,0,1-3-3V13.5A0,0,0,0,1,10,13.5Z"/></g></svg>