<svg xmlns="http://www.w3.org/2000/svg" width="560" height="140" viewBox="0 0 560 140"><defs><style>.cls-1{fill:#f2f2f2;opacity:0.6;}</style></defs><title>is</title><g id="Forgrund"><rect class="cls-1" x="195.97" y="83.47" width="35" height="35" rx="12" ry="12" transform="translate(-21.66 79.14) rotate(-20.01)"/><rect class="cls-1" x="231.68" y="70.46" width="35" height="35" rx="12" ry="12" transform="translate(-15.06 90.57) rotate(-20.01)"/><rect class="cls-1" x="201.94" y="47.24" width="35" height="35" rx="12" ry="12" transform="translate(47.89 -86.64) rotate(24.99)"/><rect class="cls-1" x="209.82" y="54.38" width="35" height="35" rx="12" ry="12" transform="translate(-10.94 80.5) rotate(-19.62)"/><rect class="cls-1" x="245.61" y="41.63" width="35" height="35" rx="12" ry="12" transform="translate(-4.58 91.77) rotate(-19.62)"/><rect class="cls-1" x="216.03" y="18.2" width="35" height="35" rx="12" ry="12" transform="translate(37.84 -96.66) rotate(25.38)"/><rect class="cls-1" x="247.1" y="64.05" width="37.9" height="37.9" rx="12" ry="12" transform="translate(57.18 -101.51) rotate(24.13)"/><rect class="cls-1" x="284.65" y="80.87" width="37.9" height="37.9" rx="12" ry="12" transform="translate(67.34 -115.39) rotate(24.13)"/><rect class="cls-1" x="279.05" y="40.4" width="37.9" height="37.9" rx="12" ry="12" transform="translate(247.29 -240.24) rotate(69.13)"/><rect class="cls-1" x="265.42" y="21.55" width="35" height="35" rx="12" ry="12" transform="translate(110.47 -188.62) rotate(45)"/><rect class="cls-1" x="292.29" y="48.42" width="35" height="35" rx="12" ry="12" transform="translate(137.34 -199.75) rotate(45)"/><rect class="cls-1" x="300.77" y="11.65" width="35" height="35" rx="12" ry="12" transform="translate(347.42 -289.12) rotate(90)"/><rect class="cls-1" x="19.17" y="83.82" width="35" height="35" rx="12" ry="12" transform="translate(-32.46 18.66) rotate(-20.01)"/><rect class="cls-1" x="54.87" y="70.82" width="35" height="35" rx="12" ry="12" transform="translate(-25.85 30.1) rotate(-20.01)"/><rect class="cls-1" x="25.13" y="47.59" width="35" height="35" rx="12" ry="12" transform="translate(31.49 -11.92) rotate(24.99)"/><rect class="cls-1" x="33.01" y="54.74" width="35" height="35" rx="12" ry="12" transform="translate(-21.32 21.15) rotate(-19.62)"/><rect class="cls-1" x="68.81" y="41.98" width="35" height="35" rx="12" ry="12" transform="translate(-14.96 32.43) rotate(-19.62)"/><rect class="cls-1" x="39.23" y="18.55" width="35" height="35" rx="12" ry="12" transform="translate(20.93 -20.83) rotate(25.38)"/><rect class="cls-1" x="70.29" y="64.4" width="37.9" height="37.9" rx="12" ry="12" transform="translate(41.87 -29.2) rotate(24.13)"/><rect class="cls-1" x="107.84" y="81.23" width="37.9" height="37.9" rx="12" ry="12" transform="translate(52.03 -43.08) rotate(24.13)"/><rect class="cls-1" x="102.24" y="40.75" width="37.9" height="37.9" rx="12" ry="12" transform="translate(133.8 -74.81) rotate(69.13)"/><rect class="cls-1" x="88.61" y="21.9" width="35" height="35" rx="12" ry="12" transform="translate(58.94 -63.49) rotate(45)"/><rect class="cls-1" x="115.48" y="48.77" width="35" height="35" rx="12" ry="12" transform="translate(85.81 -74.62) rotate(45)"/><rect class="cls-1" x="123.97" y="12" width="35" height="35" rx="12" ry="12" transform="translate(170.97 -111.97) rotate(90)"/><rect class="cls-1" x="90.17" y="88.82" width="35" height="35" rx="12" ry="12" transform="translate(-29.88 43.26) rotate(-20.01)"/><rect class="cls-1" x="125.87" y="75.82" width="35" height="35" rx="12" ry="12" transform="translate(-23.28 54.69) rotate(-20.01)"/><rect class="cls-1" x="96.13" y="52.59" width="35" height="35" rx="12" ry="12" transform="translate(40.25 -41.44) rotate(24.99)"/><rect class="cls-1" x="104.01" y="59.74" width="35" height="35" rx="12" ry="12" transform="translate(-18.88 45.28) rotate(-19.62)"/><rect class="cls-1" x="139.81" y="46.98" width="35" height="35" rx="12" ry="12" transform="translate(-12.52 56.56) rotate(-19.62)"/><rect class="cls-1" x="110.23" y="23.55" width="35" height="35" rx="12" ry="12" transform="translate(29.93 -50.79) rotate(25.38)"/><rect class="cls-1" x="141.29" y="69.4" width="37.9" height="37.9" rx="12" ry="12" transform="translate(50.12 -57.79) rotate(24.13)"/><rect class="cls-1" x="178.84" y="86.23" width="37.9" height="37.9" rx="12" ry="12" transform="translate(60.28 -71.67) rotate(24.13)"/><rect class="cls-1" x="173.24" y="45.75" width="37.9" height="37.9" rx="12" ry="12" transform="translate(184.18 -137.93) rotate(69.13)"/><rect class="cls-1" x="159.61" y="26.9" width="35" height="35" rx="12" ry="12" transform="translate(83.27 -112.23) rotate(45)"/><rect class="cls-1" x="186.48" y="53.77" width="35" height="35" rx="12" ry="12" transform="translate(110.14 -123.36) rotate(45)"/><rect class="cls-1" x="194.97" y="17" width="35" height="35" rx="12" ry="12" transform="translate(246.97 -177.97) rotate(90)"/><rect class="cls-1" x="299.17" y="85.82" width="35" height="35" rx="12" ry="12" transform="translate(-16.24 114.59) rotate(-20.01)"/><rect class="cls-1" x="334.87" y="72.82" width="35" height="35" rx="12" ry="12" transform="translate(-9.63 126.03) rotate(-20.01)"/><rect class="cls-1" x="305.13" y="49.59" width="35" height="35" rx="12" ry="12" transform="translate(58.55 -130.02) rotate(24.99)"/><rect class="cls-1" x="313.01" y="56.74" width="35" height="35" rx="12" ry="12" transform="matrix(0.94, -0.34, 0.34, 0.94, -5.74, 115.28)"/><rect class="cls-1" x="348.81" y="43.98" width="35" height="35" rx="12" ry="12" transform="translate(0.62 126.56) rotate(-19.62)"/><rect class="cls-1" x="319.23" y="20.55" width="35" height="35" rx="12" ry="12" transform="translate(48.81 -140.66) rotate(25.38)"/><rect class="cls-1" x="350.29" y="66.4" width="37.9" height="37.9" rx="12" ry="12" transform="translate(67.16 -143.49) rotate(24.13)"/><rect class="cls-1" x="387.84" y="83.23" width="37.9" height="37.9" rx="12" ry="12" transform="translate(77.32 -157.38) rotate(24.13)"/><rect class="cls-1" x="382.24" y="42.75" width="37.9" height="37.9" rx="12" ry="12" transform="translate(315.92 -335.15) rotate(69.13)"/><rect class="cls-1" x="368.61" y="23.9" width="35" height="35" rx="12" ry="12" transform="translate(142.36 -260.9) rotate(45)"/><rect class="cls-1" x="395.48" y="50.77" width="35" height="35" rx="12" ry="12" transform="translate(169.23 -272.03) rotate(45)"/><rect class="cls-1" x="403.97" y="14" width="35" height="35" rx="12" ry="12" transform="translate(452.97 -389.97) rotate(90)"/><rect class="cls-1" x="403.17" y="81.82" width="35" height="35" rx="12" ry="12" transform="translate(-8.59 149.94) rotate(-20.01)"/><rect class="cls-1" x="438.87" y="68.82" width="35" height="35" rx="12" ry="12" transform="translate(-1.99 161.37) rotate(-20.01)"/><rect class="cls-1" x="409.13" y="45.59" width="35" height="35" rx="12" ry="12" transform="translate(66.6 -174.33) rotate(24.99)"/><rect class="cls-1" x="417.01" y="52.74" width="35" height="35" rx="12" ry="12" transform="matrix(0.94, -0.34, 0.34, 0.94, 1.64, 149.97)"/><rect class="cls-1" x="452.81" y="39.98" width="35" height="35" rx="12" ry="12" transform="translate(8 161.25) rotate(-19.62)"/><rect class="cls-1" x="423.23" y="16.55" width="35" height="35" rx="12" ry="12" transform="translate(57.14 -185.63) rotate(25.38)"/><rect class="cls-1" x="454.29" y="62.4" width="37.9" height="37.9" rx="12" ry="12" transform="translate(74.61 -186.36) rotate(24.13)"/><rect class="cls-1" x="491.84" y="79.23" width="37.9" height="37.9" rx="12" ry="12" transform="translate(84.77 -200.24) rotate(24.13)"/><rect class="cls-1" x="486.24" y="38.75" width="37.9" height="37.9" rx="12" ry="12" transform="translate(379.14 -434.9) rotate(69.13)"/><rect class="cls-1" x="472.61" y="19.9" width="35" height="35" rx="12" ry="12" transform="translate(170 -335.61) rotate(45)"/><rect class="cls-1" x="499.48" y="46.77" width="35" height="35" rx="12" ry="12" transform="translate(196.87 -346.74) rotate(45)"/><rect class="cls-1" x="507.97" y="10" width="35" height="35" rx="12" ry="12" transform="translate(552.97 -497.97) rotate(90)"/></g></svg>
