<svg xmlns="http://www.w3.org/2000/svg" width="100" height="110" viewBox="0 0 100 110"><defs><style>.cls-1{fill:#8cc63f;}.cls-2{fill:#fff;}.cls-3{fill:#39b54a;}</style></defs><title>Lime</title><g id="Forgrund"><circle class="cls-1" cx="22.88" cy="26.08" r="17.27"/><polygon class="cls-2" points="23.44 26.64 7.84 16.62 8.96 15.5 23.44 26.64"/><polygon class="cls-2" points="23.8 26.96 17.92 9.37 19.49 9.2 23.8 26.96"/><polygon class="cls-2" points="23.84 26.85 28.66 8.95 30.06 9.67 23.84 26.85"/><polygon class="cls-2" points="24.55 26.64 39.31 18.36 39.63 19.74 24.55 26.64"/><polygon class="cls-2" points="24.55 26.64 40.49 30.37 39.96 31.67 24.55 26.64"/><polygon class="cls-2" points="24.01 26.86 34.96 39.02 33.78 39.79 24.01 26.86"/><polygon class="cls-2" points="24.38 27.2 25.96 43.49 24.55 43.4 24.38 27.2"/><polygon class="cls-2" points="23.43 27.96 14.37 42.27 13.45 41.19 23.43 27.96"/><polygon class="cls-2" points="23 26.71 4.47 27.48 4.74 25.93 23 26.71"/><polygon class="cls-2" points="23.29 27.21 7.64 34.98 7.26 33.54 23.29 27.21"/><path class="cls-3" d="M40.19,19.9a18.35,18.35,0,0,0-10-10.68,18.18,18.18,0,0,0-7.31-1.51A18.37,18.37,0,1,0,40.19,19.9ZM22.88,43.35A17.27,17.27,0,1,1,40.15,26.08,17.27,17.27,0,0,1,22.88,43.35Z"/><circle class="cls-1" cx="50.73" cy="35" r="17.27"/><polygon class="cls-2" points="51.29 35.55 35.69 25.53 36.81 24.41 51.29 35.55"/><polygon class="cls-2" points="51.65 35.87 45.77 18.29 47.34 18.11 51.65 35.87"/><polygon class="cls-2" points="51.69 35.76 56.51 17.86 57.91 18.58 51.69 35.76"/><polygon class="cls-2" points="52.4 35.55 67.16 27.28 67.48 28.66 52.4 35.55"/><polygon class="cls-2" points="52.4 35.55 68.34 39.28 67.8 40.59 52.4 35.55"/><polygon class="cls-2" points="51.85 35.77 62.81 47.93 61.63 48.7 51.85 35.77"/><polygon class="cls-2" points="52.22 36.11 53.8 52.4 52.4 52.31 52.22 36.11"/><polygon class="cls-2" points="51.28 36.88 42.21 51.18 41.3 50.1 51.28 36.88"/><polygon class="cls-2" points="50.84 35.62 32.32 36.39 32.59 34.84 50.84 35.62"/><polygon class="cls-2" points="51.13 36.13 35.49 43.89 35.11 42.45 51.13 36.13"/><path class="cls-3" d="M68,28.81A18.38,18.38,0,1,0,38.29,48.53a18.62,18.62,0,0,0,5.65,3.55A18.39,18.39,0,0,0,68,28.81ZM50.73,52.26A17.27,17.27,0,1,1,68,35,17.27,17.27,0,0,1,50.73,52.26Z"/><circle class="cls-1" cx="35.13" cy="53.93" r="17.27"/><polygon class="cls-2" points="35.69 54.49 20.1 44.46 21.21 43.35 35.69 54.49"/><polygon class="cls-2" points="36.05 54.8 30.18 37.22 31.74 37.05 36.05 54.8"/><polygon class="cls-2" points="36.09 54.7 40.91 36.8 42.31 37.52 36.09 54.7"/><polygon class="cls-2" points="36.81 54.49 51.56 46.21 51.88 47.59 36.81 54.49"/><polygon class="cls-2" points="36.81 54.49 52.74 58.22 52.21 59.52 36.81 54.49"/><polygon class="cls-2" points="36.26 54.71 47.22 66.87 46.03 67.64 36.26 54.71"/><polygon class="cls-2" points="36.63 55.04 38.21 71.33 36.81 71.25 36.63 55.04"/><polygon class="cls-2" points="35.68 55.81 26.62 70.11 25.7 69.04 35.68 55.81"/><polygon class="cls-2" points="35.25 54.56 16.73 55.33 17 53.78 35.25 54.56"/><polygon class="cls-2" points="35.54 55.06 19.89 62.82 19.52 61.39 35.54 55.06"/><path class="cls-3" d="M52.45,47.74A18.38,18.38,0,1,0,22.7,67.46,18.22,18.22,0,0,0,28.35,71a18.41,18.41,0,0,0,24.1-23.28ZM35.13,71.2A17.27,17.27,0,1,1,52.4,53.93,17.27,17.27,0,0,1,35.13,71.2Z"/><circle class="cls-1" cx="62.98" cy="59.5" r="17.27"/><polygon class="cls-2" points="63.54 60.06 47.95 50.03 49.06 48.92 63.54 60.06"/><polygon class="cls-2" points="63.9 60.37 58.02 42.79 59.59 42.62 63.9 60.37"/><polygon class="cls-2" points="63.94 60.27 68.76 42.37 70.16 43.09 63.94 60.27"/><polygon class="cls-2" points="64.65 60.06 79.41 51.78 79.73 53.16 64.65 60.06"/><polygon class="cls-2" points="64.65 60.06 80.59 63.79 80.06 65.09 64.65 60.06"/><polygon class="cls-2" points="64.11 60.28 75.06 72.44 73.88 73.2 64.11 60.28"/><polygon class="cls-2" points="64.48 60.61 66.06 76.9 64.65 76.81 64.48 60.61"/><polygon class="cls-2" points="63.53 61.38 54.47 75.69 53.55 74.61 63.53 61.38"/><polygon class="cls-2" points="63.1 60.13 44.57 60.9 44.84 59.35 63.1 60.13"/><polygon class="cls-2" points="63.39 60.63 47.74 68.39 47.36 66.95 63.39 60.63"/><path class="cls-3" d="M80.29,53.31a18.39,18.39,0,1,0,1.07,6.19A18.32,18.32,0,0,0,80.29,53.31ZM63,76.77A17.27,17.27,0,1,1,80.25,59.5,17.27,17.27,0,0,1,63,76.77Z"/><circle class="cls-1" cx="47.39" cy="82.89" r="17.27"/><polygon class="cls-2" points="47.95 83.45 32.35 73.42 33.46 72.31 47.95 83.45"/><polygon class="cls-2" points="48.31 83.76 42.43 66.18 44 66.01 48.31 83.76"/><polygon class="cls-2" points="48.35 83.66 53.16 65.76 54.56 66.48 48.35 83.66"/><polygon class="cls-2" points="49.06 83.45 63.81 75.17 64.14 76.55 49.06 83.45"/><polygon class="cls-2" points="49.06 83.45 65 87.18 64.46 88.48 49.06 83.45"/><polygon class="cls-2" points="48.51 83.67 59.47 95.83 58.29 96.6 48.51 83.67"/><polygon class="cls-2" points="48.88 84 50.46 100.29 49.06 100.21 48.88 84"/><polygon class="cls-2" points="47.94 84.77 38.87 99.08 37.95 98 47.94 84.77"/><polygon class="cls-2" points="47.5 83.52 28.98 84.29 29.25 82.74 47.5 83.52"/><polygon class="cls-2" points="47.79 84.02 32.15 91.78 31.77 90.35 47.79 84.02"/><path class="cls-3" d="M64.7,76.71A18.38,18.38,0,1,0,35,96.43,18.62,18.62,0,0,0,40.6,100,18.39,18.39,0,0,0,64.7,76.71ZM47.39,100.16A17.27,17.27,0,1,1,64.65,82.89,17.27,17.27,0,0,1,47.39,100.16Z"/><circle class="cls-1" cx="74.12" cy="85.12" r="17.27"/><polygon class="cls-2" points="74.68 85.68 59.08 75.65 60.2 74.54 74.68 85.68"/><polygon class="cls-2" points="75.04 85.99 69.16 68.41 70.73 68.24 75.04 85.99"/><polygon class="cls-2" points="75.08 85.89 79.9 67.98 81.3 68.71 75.08 85.89"/><polygon class="cls-2" points="75.79 85.68 90.55 77.4 90.87 78.78 75.79 85.68"/><polygon class="cls-2" points="75.79 85.68 91.73 89.41 91.19 90.71 75.79 85.68"/><polygon class="cls-2" points="75.25 85.9 86.2 98.06 85.02 98.82 75.25 85.9"/><polygon class="cls-2" points="75.62 86.23 77.2 102.52 75.79 102.43 75.62 86.23"/><polygon class="cls-2" points="74.67 87 65.61 101.3 64.69 100.23 74.67 87"/><polygon class="cls-2" points="74.23 85.75 55.71 86.52 55.98 84.97 74.23 85.75"/><polygon class="cls-2" points="74.53 86.25 58.88 94.01 58.5 92.58 74.53 86.25"/><path class="cls-3" d="M91.43,78.93A18.38,18.38,0,1,0,61.68,98.65,18.38,18.38,0,0,0,91.43,78.93ZM74.12,102.39A17.27,17.27,0,1,1,91.39,85.12,17.27,17.27,0,0,1,74.12,102.39Z"/></g></svg>
