<svg xmlns="http://www.w3.org/2000/svg" width="390" height="490" viewBox="0 0 390 490"><defs><style>.cls-1{fill:#fff;}</style></defs><title>Not so happy</title><g id="Layer_4" data-name="Layer 4"><path class="cls-1" d="M367.83,225.42c3.82,46.36,21.25,189,3.2,223.47-16.49,32.94-56.82,14-92.24.26-29.27-9.72-53.13,31.79-84,30.56-32.22-1.61-67.33-31.85-98.63-20.46-31.46,9.59-59.86,30.53-75.63,7.32-21.76-34.15-2.91-194,1.23-240.73,2.67-31,10-53.71,20.51-76.44A384.16,384.16,0,0,1,82.08,83.82C113.53,41.4,152.46,7.34,194.8,9.71s81.28,16.66,112.72,52.43c15.65,18.08,29.29,42.3,39.8,71.63A389.21,389.21,0,0,1,367.83,225.42Z"/><ellipse cx="142" cy="151.09" rx="23.09" ry="19.92"/><path d="M255,213.33c0,19.59-31.56,8.71-57.41,8.71s-59.91,12.13-59.91-7.47,31.56-19.91,57.41-19.91S255,193.73,255,213.33Z"/><ellipse cx="254.34" cy="151.09" rx="23.09" ry="19.92"/></g></svg>