<svg xmlns="http://www.w3.org/2000/svg" xmlns:xlink="http://www.w3.org/1999/xlink" width="200" height="219" viewBox="0 0 200 219"><defs><style>.cls-1{fill:#fff;}.cls-2{fill:#b3b3b3;}.cls-3{fill:#e6e6e6;}.cls-4{fill:#f2f2f2;}.cls-4,.cls-8{opacity:0.6;}.cls-5{fill:#8cc63f;}.cls-6{fill:#39b54a;}.cls-7{opacity:0.25;fill:url(#Sky);}</style><linearGradient id="Sky" x1="135.76" y1="187.14" x2="132.49" y2="32.7" gradientUnits="userSpaceOnUse"><stop offset="0" stop-color="#cce0f4"/><stop offset="0.06" stop-color="#c3dcf2"/><stop offset="0.17" stop-color="#a9d2ee"/><stop offset="0.31" stop-color="#80c2e7"/><stop offset="0.46" stop-color="#47acde"/><stop offset="0.57" stop-color="#1e9cd7"/><stop offset="0.87" stop-color="#0075be"/><stop offset="0.99" stop-color="#005b97"/></linearGradient></defs><title>Point</title><g id="Layer_4" data-name="Layer 4"><path class="cls-1" d="M32.45,80.82a1.48,1.48,0,0,1-.4,1.3h-.5v-.8h.5V81l-.2-.2c0-.1.1-.4.2-.3h.2l.2-.1h.2A.76.76,0,0,1,32.45,80.82ZM53.55,123c.2.2.3.4.6.5v.3h.2c0-.1.1-.2.1-.3h.3c-.1.1-.2.5-.3.5s-.1-.1-.2-.1-.2.1-.3.2v.2h-.6c.2.3.1.6.5.6a1.42,1.42,0,0,0,.6-.2,4.25,4.25,0,0,0-.2,1.1c0,.7.1,1.7.9,2l-.3.4h-.4v.9a4.33,4.33,0,0,0-.5.1h-.4c-.1.2-.2.3-.2.5s.1.2.1.3-.3.4-.5.4v.6a5,5,0,0,1,1.2-.2v.2a.14.14,0,0,1-.2,0c.1.1,0,.3,0,.4h-.6v.5l-.4.3v.4c.4,0,.6.1,1,.1v.7h-2.2v-.7a1.69,1.69,0,0,0-.2.5,2.51,2.51,0,0,1-.7.4v.7c.6,0,1.5-.1,1.9.5.2-.1.3-.3.6-.4v-.5h1.1v.5h.3v.7h.4v.3c-.6-.2-1.2-.1-1.8-.3,0,1-.3,1.1-.9,1.7v.3a3.55,3.55,0,0,1,1-.2.76.76,0,0,1,.5.2.22.22,0,0,1,.2-.2v-.3h.6c-.2.3-.3.3-.3.8h-.9v.4h-.2c-.1,0,0-.3,0-.3a.22.22,0,0,0-.2-.2.35.35,0,0,1-.2.1v.4h-.2v-.4h-.6c.1,0,.1.2.1.3l.2.1a6.12,6.12,0,0,1-1.2.5v-.9a.37.37,0,0,0-.3.1c-.1.1-.2.2-.2.3h-.3v.1h.3v.4a5.9,5.9,0,0,0-.8-.4c-.2,0-.3.2-.4.4h-.4a.76.76,0,0,0-.2-.5h-.4v-.7h-.2v-.5h.2v.5H49v.3c1.7,0,1.1-.6,2.3-.8v.5c.7-.4.6-.7,1.5-.9a3.59,3.59,0,0,1,.2-1.1h-.8v.5h.3c-.1.5-.8.6-1.2.6v-.6h-1.7v-.2H49a.6.6,0,0,0,.1-.4,3.55,3.55,0,0,0,.2-1c0-.3-1-.9-1.3-.9h-.2v.3a.75.75,0,0,1-.5.1h-.1c-.1-.1-.2-.3-.3-.4h-.3v2h.7v-1.5l.3.2a1.27,1.27,0,0,0,.6.1v.9h-.4v1.4h-.4c.1.2.1.5.2.7a1.42,1.42,0,0,0,.6.2v.3c-.6,0-.9-.4-1.6-.6.2.4.7.6.8,1,0,.2-.2.4-.2.6s.1.2.1.3a4.33,4.33,0,0,1,.5.1v.8h.6v.7a1.06,1.06,0,0,1-.6-.7l-.4.4h-.8a9.63,9.63,0,0,1,0-1.7h-.5v1.3a1.1,1.1,0,0,1-1.2-.8h-.5s.1.2,0,.2a.35.35,0,0,1,.2.1c-.3.6-.8.4-1.4.4a1.27,1.27,0,0,0-.6.1h-.3v.7h.6v1.5h.5v.4a1.27,1.27,0,0,0,.6.1c.4,0,.8-.1,1.2-.1v.4a.75.75,0,0,0,.5-.8h.7c-.1-.7-.1-.8-.7-.8-.3,0-.4-.3-.5-.4h-.3a1.43,1.43,0,0,1,1.2-.6v.6a3.61,3.61,0,0,1,2.1.4v.4h-.4v.3a.68.68,0,0,0,.4.6l-.2.3h-.6a1.8,1.8,0,0,1,.4.9,12.13,12.13,0,0,0-1.4-.5c-.5,0-.4.2-.7.5l-.1-.3a1.27,1.27,0,0,0-.6-.1s-.2.1-.2.2a.22.22,0,0,1-.2.2H44c-.1.1-.1.3-.2.4v.8c.1-.1.2-.2.2-.3h.4V144a.75.75,0,0,1,.5-.1,1.85,1.85,0,0,1,1.2.5h2.1c0,.4.1.4.4.6v.6c-1.2-.7.1-.9-2.2-.9v.5l-.2.1v.1l-.1.2h-.4l.1-.5.3-.1v-.3h-.9c.1.4.3.7.4,1.1-.9.1-1.8.9-2.7.9a1.14,1.14,0,0,1-.8-.3h-.4v-1.2h-.2c0-.1,0-.2.2-.3s.4.1.6.1a.86.86,0,0,0-.6-.3V144a2.49,2.49,0,0,1-.8-.1h-.4v-.4h1.2V143c.1,0,.2.1.3.2s.1.2.1.3h.2v-1.2a1.6,1.6,0,0,1-.8.3v-.4h.2V141c-.1,0-.3.1-.3.2s.1.4.1.6a1.73,1.73,0,0,1-.6-1.2l.3-.3h-.3l.1-.2a1.09,1.09,0,0,0,.5-.1v-.9h-.6a1.94,1.94,0,0,0,.3-1.3h.9v-.4h-.6v-.6h.6v-.2h-.9v-1h1.1c.1,0,0-.1,0-.2a.1.1,0,0,1,.1-.1.35.35,0,0,1,.2.1v.1a1.27,1.27,0,0,0,.6.1v-.5h-2.3a3.4,3.4,0,0,1-.1-1,.67.67,0,0,1,.4-.7l-.1-.3h-.6v-.4h.4v-.5h.3c.4-.4,0-.8.3-1.2-.3-.2-.2-.3-.3-.6a1.79,1.79,0,0,1-.7-.5h.4a4.42,4.42,0,0,0,.6-1.6l.2.2c-.1,0,0,.2,0,.2s.2-.2.3-.2.1-.2.1-.3h-.9v-.7c-.1-.2-.4-.1-.4-.2a1,1,0,0,1,.1-.3h.3v-.9c-.1-.2-.2-.1-.3-.1a.1.1,0,0,1-.1-.1c0-.1.1-.3.1-.4h.3v-1.2h-.3l.1-.2c.1.1.3,0,.5,0a1.7,1.7,0,0,0-.6-.6c.2-.4.4-.8.8-.9l-.1-.3h-.4v-.9h-.3a.35.35,0,0,1-.1-.2h.4a.1.1,0,0,0,.1-.1.35.35,0,0,0-.1-.2h-.3c0-.2-.1-.3-.1-.4,0-.4.4-.4.4-.7v-.1h-.3v-1.4h.6a3.18,3.18,0,0,1-.3-.9h.9l-.3-.5a1.7,1.7,0,0,1-.1-.7h-.5l.5-.3a2.39,2.39,0,0,0-.5-1.4h-.3a4.19,4.19,0,0,0,.4-1.5,1.45,1.45,0,0,0,.2-.7,3.81,3.81,0,0,0-.3-1c.2-.4.1-.8.3-1.2h.6l-.3-.3.3-.3c-.1-.1-.1-.2-.2-.3a2,2,0,0,1-.7.1,1.51,1.51,0,0,0,.1-.6c0-.3-.1-.6-.1-.9h.5v-.41h-.2c-.4-.4-.1-.5-.1-.9a.52.52,0,0,0-.2-.39v-.4l-.2.19-.1.21h-.4a7.2,7.2,0,0,1,.4-.9l.2.19a1.1,1.1,0,0,1,.1.31s.2-.1.1,0l.2-.1h.2c0-.5-.2-.81-.2-1.21h-.6v-.6h.6c0-.4-.3-.8-.3-1.2,0-.1.5-1.1.5-1.2h-.2a1.93,1.93,0,0,1-.3-1,4.15,4.15,0,0,1,.3-1.6h-.6a3.39,3.39,0,0,0,.6-.6v-.8h.2c.1-.1.2-.2.2-.3s-.4,0-.4-.2a2,2,0,0,1-.3-1.1,4.53,4.53,0,0,1,.3-1.6h-2.3v.6a3.08,3.08,0,0,0-1.2-.5.47.47,0,0,0-.5.5.76.76,0,0,0-.4-.2c.1-.1,0-.3,0-.4-.3-.1-.7-.1-1-.2.1-.2.1-.3.2-.5,0,0,.2,0,.2-.1-.2-.3-.5-1.1-.9-1.3a4.55,4.55,0,0,0,.5-2h-.5v-.9H36V89c0-.1-.2,0-.3,0s-.1-.1-.1-.2v-.2H36v-.2a1.38,1.38,0,0,1-.4-.3H36v-.3h-.4v-.4H36c0-.1-.3-.1-.4-.1,0-.4.5-.3.5-.6,0-.1-.1-.2-.1-.3h-.4c.1-.4.2-1.2.7-1.2.2,0,.5.2.8.2a2.35,2.35,0,0,0,.8-.2v-.4a.76.76,0,0,1,.5-.2c.2,0,.4.1.7.1a.76.76,0,0,0,.4-.1V84c0-.1.1-.1.2-.1s.2.1.4.1c.4,0,.5-.5.5-.8s.7-.3.9-.3a5,5,0,0,1,.2-1.2h.6v-.9h.6v.5h.5l-.2-.1c.1-.1.1-.3.2-.3s.4-.1.6-.1v-.3h-.8V80a24.73,24.73,0,0,1,3.8-.5c.3,0,.4-.5.4-.7.2-.1.3-.2.5-.2l-.1-.1h-.4v-.6s-.2.1-.3,0a.76.76,0,0,1-.2.4h-.3c.1-.4.2-.7.3-1h2.9c.6,0,2,0,2,.8a13.14,13.14,0,0,1-.5,1.5h3.2a14.77,14.77,0,0,0-.1,2.1,1.16,1.16,0,0,0,.8,1.2v.3c-.3.1-.5.1-.7.3,0,.6-.3,1.2-.3,1.8,0,.3.3.5.3.8h-.1c-.1.1-.2.2-.2.3.2.4.7.7.7,1.2,0,.2-.1.3-.1.5h-.3a6.15,6.15,0,0,1-.3,1.1c0,.5.6.1.6,1.2h-.6c.1.1.5,2.2.6,2.6h-.3a3.81,3.81,0,0,1-.3,1c.4.3.4.6,1,.8l-.3.2-.4.2v.4h.7a1.11,1.11,0,0,1-.7.9v.4h.3v.5h.4c0,.5.1.9.1,1.4-.5,0-.9-.2-1.3-.2l.2.3v.5h.6a.6.6,0,0,0-.1.4c0,.1-.1.1-.2.2v.4a.6.6,0,0,1,.4-.1l.3-.3h.1a1.05,1.05,0,0,1-.5.9,2.18,2.18,0,0,0,.5.8v.4h-1.1c0,.1-.1.2,0,.3l-.2.2v.3h.5v.5c.1.21.4.1.4.3a1,1,0,0,0-.1.3h-.3a4.49,4.49,0,0,1-.3.9H54v.81h-.4c.1.5.3.5.6.79a5,5,0,0,1-.2,1.71h-.4a9,9,0,0,1,.9,2.9v.2l-.3.4H54a.37.37,0,0,0-.1.3c.1.3.4.1.4.4a.37.37,0,0,1-.1.3H54c-.1.1-.2.2-.2.3,0,.3.5.8.7.9a1.8,1.8,0,0,1-.9.6v.2h.6a6.88,6.88,0,0,1,.2,1.3,1.09,1.09,0,0,1-.4.9,4.33,4.33,0,0,0,.5.1v-.5h.8v.4c-.3,0-.5.1-.8.1-.1.1-.2.3-.1.4-.1.2-.3.3-.4.4v.8a2,2,0,0,0,.8.1v1H54a.6.6,0,0,0-.1.4c-.1.1-.2.2-.3.2l.6.3-.1.3h-.5a3.18,3.18,0,0,0-.2,1.4c.7,0,1.1.3,1.8.3a.6.6,0,0,0,.1.4v.1C54.65,123.13,54.05,123,53.55,123ZM36.85,89.82l-.2-.2c0,.1-.2,0-.2,0a.31.31,0,0,1-.1.2h-.3l.4.4v.6h.4Zm.2,1.1h-1c.4.3.3.4.4.8a3.11,3.11,0,0,1,.6-.4Zm.4-3.1h-.4v.3h.4Zm2,0h-.3v.3h.3Zm.9-3.2H40c.1.1.1.2.2.2h.2Zm.8,36v.3h.3Zm.9-20.91h-.6v.7a2.09,2.09,0,0,1,.6-.4Zm-.4,38.61h-.2v.4h.2Zm0-33.51a1.27,1.27,0,0,1,.6.1A1.27,1.27,0,0,0,41.65,104.82Zm.4,17.81h-.4v.4h.4Zm.5,9.2h-.5v.8h.5Zm.3,6.9a2,2,0,0,1-.8.1v.3a1.7,1.7,0,0,0,.7.1c.1-.1.3-.2.4-.4h.2A4.33,4.33,0,0,0,42.85,138.73Zm-.3,2.7h-.3v.4h.3Zm0,3h-.3v.3h.3Zm-.1,4-.2-.2h.2l.1.2S42.45,148.33,42.45,148.43Zm.4-42.8h-.3v.89h.3Zm0,22.7h-.3v.4h.3Zm0,16.4h-.3a.1.1,0,0,1,.1.1c0,.1.2.1.2.2Zm0-62.21v.4h.3C43.05,82.82,43,82.62,42.85,82.52Zm.3,45.81-.1.2-.2.2.1.2a.54.54,0,0,0,.4.3c.1,0,.2,0,.2-.1h.2A.76.76,0,0,0,43.15,128.33Zm.1,16.1h-.4v.3h.5Zm-.4,1.4v.4h.3A1.38,1.38,0,0,0,42.85,145.83Zm.5-63.61-.2-.1v.4h.2Zm0,.7h-.2l.2.3ZM44,109h-.8l.2.51H44Zm.4,24.61h-1.2v.3h.6v.5h.6Zm-.4,8.2c0-.3-.2-.6-.2-.8h-.6v-.4h1.4v1.2Zm-.6,2.1h-.2l.2.1Zm.4-11.7-.1.2s-.2.2-.3.2v.5a2.11,2.11,0,0,1,1-.4Zm-.4,16v-.3h.4v.3Zm.4-20.7a6.7,6.7,0,0,1,0,2c.7-.1.8-.1.8-.7,0-.3.3-.5.6-.6C45.05,127.63,44.25,127.53,43.75,127.53Zm.1,11.2h-.1l.2.1h.4C44.15,138.83,44.05,138.73,43.85,138.73Zm.7-28.6c-.2.1-.4.3-.6.4v.2h.6Zm-.2,10.2H44l.2.2.2.1ZM44.55,96h-.2l.2.2Zm0,10.5v-.39l-.2.2c.1.09,0,.19,0,.3h.5Zm0,23.41h-.2c0,.1.2.1.2.1Zm0-43.81v.3h.3Zm0,36.21v.3h.3Zm1,11.1c-.3.1-.7.1-1,.2v.3l.2.2.1.2h.7Zm-.8,12-.2-.2v.4h.3Zm1.6-15.7a1.21,1.21,0,0,1,.5-.5h-.5a.37.37,0,0,1-.3-.1v-.4a1.7,1.7,0,0,0-.7.1l-.5.3c0,.5.1.4.3.8h.5a4.33,4.33,0,0,1-.1.5v.4a3.55,3.55,0,0,1,1,.2,1.42,1.42,0,0,1,.2-.6h.1v-.1C46.85,130,46.35,129.93,46.35,129.73Zm-1.2-19,.5.3A2.19,2.19,0,0,0,45.15,110.73Zm0,4.4a3.11,3.11,0,0,1,.4.6c0-.2.1-.3.1-.5v-.1Zm.2,33.2-.2-.1h.5C45.55,148.23,45.45,148.33,45.35,148.33Zm.2-29.2v.4h.1Zm.8,2.2h-.7a1.09,1.09,0,0,1-.1.5v.3a6.89,6.89,0,0,1,.8-.3Zm0,6c-.3.1-.6.1-.8.2v.7a1.23,1.23,0,0,1,.8-.4Zm.4,4.9c0,.1-.1,0-.2,0V132l-.2-.2a1.09,1.09,0,0,1-.8.8l1,.5a.6.6,0,0,0,.1-.4c0-.1.2-.1.2-.1S46.75,132.33,46.75,132.23Zm-.4,3.4c-.3.4-.4.3-.8.4v.6h.8Zm-.3-16.1h-.4c.1.1.3.1.4.2Zm0,27.9h-.4c.1-.4.3-.6.4-1h.5A1.6,1.6,0,0,0,46.05,147.43ZM46.35,88l-.3-.2v.6h.3Zm0,24.21h-.3v.3h.3Zm0,6.9h-.3v.4h.3Zm.2,18h-.5v.8h.5Zm-.2-31v.39h.2A.52.52,0,0,0,46.35,106.13Zm.9,5.6a4.35,4.35,0,0,0-.7-.4v.2l-.2.2v.1h.9ZM48,147h-.6a2.77,2.77,0,0,0,.1-.9v-.3h-1.1l.2-.2v-.4c.6.1,1.1.3,1.6.4v1.1Zm-1.1-29.1h-.3v.7h.3Zm3.6,14.8c-.3,0-.6-.1-.9-.1V131h-.4v.8h-.6V131a2.77,2.77,0,0,0-.9-.1,4.1,4.1,0,0,0-1.1.1c.2.4.3.3.3.8a3.31,3.31,0,0,1,1.5-.4c-.1,0-.1.2-.1.2l-.1.2a3.09,3.09,0,0,0,.2.8c.2.1.4,0,.6,0a.76.76,0,0,1,.2.5h.4v1.3H50v.7c0-.3-.1-.5.1-.8h.4Zm-3.6,6.8h-.3a.37.37,0,0,0,.3.1Zm0,1.5h-.3v.4h.3Zm0-25.9a.82.82,0,0,1,.4.6.9.9,0,0,0,.1-.5v-.1Zm.4.8h-.4l.2.2.2.1Zm0,9.9-.1.2a.49.49,0,0,0-.3.1v.4h.9A.75.75,0,0,0,47.25,125.83Zm.5,3.3v-.9h-.5c0,.2.1.3.1.5l-.1.4-.4.1v.3a1.7,1.7,0,0,1,.7.1.52.52,0,0,0,.2-.4l.3-.1h-.3Zm-.5,6.9h-.4c.1.1.3.1.4.2Zm0-30.3v.4h.1C47.35,105.92,47.35,105.82,47.25,105.73Zm0,16.9v.4h.1A.6.6,0,0,0,47.25,122.63Zm.5-31.31h-.4v.4h.4Zm.6,29.31h-1v.8a.76.76,0,0,1,.4-.2c-.1-.1,0-.3,0-.3h.6Zm-.2-42.91h-.4l.4.2Zm0,54.91h-.4l.4.1Zm0-7.7v.4h.2C48.25,125.13,48.25,125,48.15,124.93Zm.4,13.2-.2.2v.4h-.2v-.1a1.85,1.85,0,0,1,.2-.7h.2Zm-.4,5.4v-.4h.4v.4Zm.4-25.2h-.2v.3h.2Zm0,3h-.2l.2.1Zm0,1h-.2v.3h.2Zm1.4,7.6h-.4a.76.76,0,0,1-.2-.4c0-.3.3-.4.6-.4v-.4H49c.1.2.2.3.2.5l-.2.3v.4c-.2-.1-.3-.4-.4-.7h-.2c0,.7.2,1.2.2,1.8a6.75,6.75,0,0,1,1.4-.2c0-.3-.1-.4-.4-.4-.1,0-.1-.1-.1-.2s.2-.1.4-.1a.1.1,0,0,0,.1-.1Zm-1.6,11.9v-.4H49v.8A1.06,1.06,0,0,0,48.35,141.83Zm0,2.6V144H49A.62.62,0,0,1,48.35,144.43Zm.8-28.7h-.6v.5h.6Zm-.6,31v-.5h.6v.5Zm1-6.7a.82.82,0,0,0,.4.6h-.3c0,.1-.1.3-.1.4H49a3.79,3.79,0,0,0,0-1.5c.4-.1.7-.3,1.1-.4v.9Zm0-51.61h-.4v.2h.4Zm.4,22.91h-.8v.4H50Zm-.4,11.3h-.4v.4h.4Zm1.3,2.7a.37.37,0,0,0-.3-.1,1,1,0,0,0-.1-.3h-1.3v.4c1,0,.8.3,1.7.5Zm-1.4,1.2h-.3a.76.76,0,0,0,.5.2c.2,0,.5-.1.8-.1A3.08,3.08,0,0,0,49.45,126.53Zm.3,10.4a.22.22,0,0,0-.2.2h-.4a2.18,2.18,0,0,0,.4-.5h.5Zm-.2.9h-.4a.76.76,0,0,1,.4.1Zm-.4,4.4v-.4h.4v.4Zm.1,3.4-.1-.4h.4v.6Zm.7-40.71h-.4v.71H50Zm-.2,16.51-.2-.1v.5H50Zm.2,6.1h-.4v.3H50Zm0-17v.2h.1Zm.1,31.3a.34.34,0,0,1,.3-.6h.1v.6Zm.4-53.71h-.4c.1.1.3.2.4.3Zm0,27.61h-.4v.2h.4Zm0,6.4h-.4a.76.76,0,0,0,.4.2ZM53,144v.7c-.2,0-.5.1-.8.1h-.3c-.6,0-1.2-.1-1.8-.1V144c.5,0,1.1.1,1.2.7l.5-.3a.37.37,0,0,0-.1-.3.6.6,0,0,1-.4-.1l.3-.3a1.7,1.7,0,0,0,.1-.7,6.46,6.46,0,0,1,1.9-.4V144Zm-2.4-.7-.1.2h-.4v-.9h.7v.5Zm-.5,4.9a.76.76,0,0,1,.4.2C50.35,148.33,50.15,148.33,50.05,148.23Zm.8-38.1h-.1l-.1.2-.2.2v.2h.4Zm-.1,24.4a.49.49,0,0,1-.3-.1v.4h.4A1,1,0,0,1,50.75,134.53Zm-.2,11.5h-.1v-.4h.3v.6Zm.2-37.8a.6.6,0,0,0,.4.1h.1A4.33,4.33,0,0,0,50.75,108.23Zm0,5.2a.6.6,0,0,0,.4.1h.1A4.33,4.33,0,0,0,50.75,113.43Zm0,8v.4h.1A1,1,0,0,0,50.75,121.43Zm.5.4h-.4a2.2,2.2,0,0,1-.1.8h.5Zm0,8.2h-.5v.8h.5Zm.4,18.4c-.2,0-.8-.2-.9-.2a2,2,0,0,0,.1-.7,3.26,3.26,0,0,0,1.3.4C52.05,148.13,52,148.43,51.65,148.43Zm0-30.5a5.94,5.94,0,0,0-.8.4v.3h.8Zm1.7,24.3h-2.1V141h.4v-.4h-.4v-1h-.4c.1-.3.3-.5.4-.8.1.1.8.1.8.3s-.1.2-.1.3.2.8.4.8l.1.1h.3v.3h-.3a.22.22,0,0,1,.2.2c.1.1.2.1.3.2v-.7l.6.3H54C53.65,141.13,53.65,141.73,53.35,142.23Zm-2.5,4.2c.3-.3.2-.3.4-.6a.66.66,0,0,1,.5.4v.2Zm.8-56.21c-.1,0-.3-.1-.4-.1v.3h.5C51.75,90.32,51.75,90.22,51.65,90.22Zm.8,29.31h-.3v-.3l.3-.1v-.4c-.4.1-.8.3-1.2.4v.6c.4.1.8.3,1.2.4Zm-.8-9v.2h.1Zm.5,6.9h-.4l-.1.5.1.4h.4Zm0,2.9h-.4v-.2a4.33,4.33,0,0,0-.1.5h.5Zm-.4.6-.1.5.1.4a1.78,1.78,0,0,1,1-.4A4.67,4.67,0,0,0,51.75,120.93Zm-.1,4.6c.1.3.7.3,1,.3h.1A1.55,1.55,0,0,0,51.65,125.53Zm.4,15.7-.3-.2c0,.1-.1.2-.1.4a.37.37,0,0,1,.3.1c.1.1.2.2.2.3l.2-.2c0-.1.1-.3.1-.4Zm-.3-61.71v-.4h.4v.4Zm.4,37h-.4v.4h.4Zm.3,13.4h-.7v.9a1.33,1.33,0,0,0,1-.8Zm.5,1.5a2.17,2.17,0,0,1-1.2.2.91.91,0,0,0,.7.3c.2,0,.3-.1.5-.1Zm-.8,5.4h-.4a1.38,1.38,0,0,1,.4.3Zm0,3.2h-.4v.3h.4Zm.5-26.8-.2-.2v.4h.3Zm0,30.1-.2-.2v.4h.3Zm.7-14.1h-.6v.7a2.09,2.09,0,0,0,.6-.4Zm-.4,14.3h-.2v.4H53Zm-.2,2.3v-.2l.2-.2c-.1,0,0-.2,0-.2a.76.76,0,0,0,.4.2c-.1.1,0,.3,0,.4Zm.6-42.41H53v.4h.4Zm0,12.81H53v.7h.4Zm0,1.8a.6.6,0,0,1-.4-.1v.4h.6C53.45,118.23,53.35,118.13,53.35,118Zm0,2.3H53l.2.2a.35.35,0,0,1,.2.1Zm.6,18.5a1.27,1.27,0,0,1-.6-.1H53c.1-.3.3-.5.4-.8a1.07,1.07,0,0,1,.6.2.76.76,0,0,0,.5-.2l.1.2.2.2v.5Zm-1,9.4v-.3h.4v.3Zm.4-43.31v.31h.2Zm0,9v.6h.2C53.55,114.33,53.35,114.13,53.35,113.93Zm0,20.5v.4h.2C53.45,134.73,53.45,134.63,53.35,134.43Zm.6-17h-.4v.4H54Zm-.4,22.6v-.4H54v.4Zm0,5.6V145H54v.6Zm.6-35.1H54v.2h.2Zm0,23.8H54l.2.1Zm.2-37.11-.2-.2v.4h.3Zm0,6.41-.2-.21v.4h.3Zm-.2,18.2v-.4h.3v.4Zm.6-.9v-.3h.4v.3Zm.4-5.2v-.4h.1v.4Zm0,32.2v-.4H56v.4Z"/><path class="cls-2" d="M106,20.12h56.36a7,7,0,0,1,7,7V202a3,3,0,0,1-3,3H102a3,3,0,0,1-3-3V27.12A7,7,0,0,1,106,20.12Z"/><path class="cls-3" d="M107.38,21H161a7,7,0,0,1,7,7V195.62a3,3,0,0,1-3,3h-61.6a3,3,0,0,1-3-3V28A7,7,0,0,1,107.38,21Z"/><rect class="cls-4" x="125.21" y="155.33" width="42.77" height="42.77" rx="12" ry="12"/><rect class="cls-4" x="101.76" y="116.7" width="42.77" height="42.77" rx="12" ry="12" transform="translate(-43.24 57.17) rotate(-22.34)"/><rect class="cls-4" x="123.83" y="76.69" width="42.77" height="42.77" rx="12" ry="12" transform="translate(68.49 -59.47) rotate(30)"/><rect class="cls-4" x="103.14" y="35.3" width="42.77" height="42.77" rx="12" ry="12" transform="translate(-12.08 64.34) rotate(-27.68)"/><path class="cls-5" d="M143.85,19.44l-21.4,9c5.19,11.54,19.88,17.61,31.74,12.42S171.71,20.74,166.6,9.08Z"/><path class="cls-6" d="M167.28,8.78l-1.86.81c5,11.86-.18,25.62-11.59,30.62s-24.88-.46-30.28-12l-1.68.76A24.84,24.84,0,0,0,167.28,8.78Z"/><polygon class="cls-1" points="144.31 22.19 146.27 42.37 144.53 42.26 144.31 22.19"/><polygon class="cls-1" points="142.75 21.98 134.31 40.41 132.86 39.45 142.75 21.98"/><polygon class="cls-1" points="142.07 21.71 123.8 30.49 123.3 28.82 142.07 21.71"/><polygon class="cls-1" points="148.88 18.74 167.22 10.1 167.71 11.78 148.88 18.74"/><polygon class="cls-1" points="148.2 20.16 168.39 22.02 167.95 23.71 148.2 20.16"/><polygon class="cls-1" points="146.73 21.55 159.78 37.07 158.28 37.97 146.73 21.55"/><path class="cls-7" d="M100.38,29.78H168a0,0,0,0,1,0,0V195.62a3,3,0,0,1-3,3h-61.6a3,3,0,0,1-3-3V29.78A0,0,0,0,1,100.38,29.78Z"/></g></svg>
