<svg xmlns="http://www.w3.org/2000/svg" width="210" height="210" viewBox="0 0 210 210"><defs><style>.cls-1{opacity:0.6;}.cls-2,.cls-3{fill:#fff;}.cls-3{stroke:#000;stroke-miterlimit:10;stroke-width:9px;}</style></defs><title>Replay</title><g id="UI"><path class="cls-2" d="M185.35,104.85c4.25,26.35-1.56,50.13-16.65,63.64-14.86,13.89-39,17.5-65.82,12.38s-50.2-19-64-33.65c-14.09-15-18.65-30.88-13.44-48.9,12-36.1,47.82-71,81-77.28C139.54,15.07,175.32,52.49,185.35,104.85Z"/><path class="cls-3" d="M64,119.27s30,36,51,26,33-14,33-32-13-43-30-45-34,6-39,8"/><polygon points="54.17 89.84 76.07 56.35 94.12 92.07 54.17 89.84"/></g></svg>
