<svg xmlns="http://www.w3.org/2000/svg" width="170" height="170" viewBox="0 0 170 170"><defs><style>.cls-1{opacity:0.6;}.cls-2{fill:#fff;}.cls-3{fill:gray;}.cls-4{fill:#4d4d4d;}</style></defs><title>Tandhjul</title><g id="Layer_4" data-name="Layer 4"><path class="cls-2" d="M33,109.06A14.11,14.11,0,0,1,20.56,97.6c-.43-2.35-.58-4.43.44-5.33,9.43-8.29,15.51-14.18,24-22a8.24,8.24,0,0,0,2.56-7.2C46,52.7,44.75,48.21,43.33,39.56a15.53,15.53,0,0,1,4.28-13.4C49.83,23.91,52,21.71,53,22.27c12,7,19.4,11.24,30.68,17.82a6.78,6.78,0,0,0,6.31.27c10.64-5.06,16-7.91,25.24-12.39a13.39,13.39,0,0,1,12.76.6c2.2,1.32,4.24,2.63,4,3.7-2.89,13.29-5.26,21.89-8,34.24a8.21,8.21,0,0,0,2,7.41c7.74,8.33,12.09,13.34,19,20.84a13.26,13.26,0,0,1,2.83,13.5c-.42,1.11-.95,1.93-1.78,2-13.11,1.31-22.56,2.23-34.92,3.46a8.26,8.26,0,0,0-6.47,4.37c-4.41,8.41-6.06,13-9.22,19.68A15.9,15.9,0,0,1,85,146.42c-3.28.83-6.38,3.32-9-.15-8.19-10.92-9.28-18.46-13.8-29.92a8.15,8.15,0,0,0-6.27-5C46.41,109.78,40.76,109.86,33,109.06Z"/><path class="cls-3" d="M106,85.27A22,22,0,1,1,94.62,66,22,22,0,0,1,106,85.27Z"/><path class="cls-4" d="M106,85.27a22,22,0,0,1-27.62,21.28A22,22,0,0,1,94.62,66,22,22,0,0,1,106,85.27Z"/></g></svg>
