<svg xmlns="http://www.w3.org/2000/svg" width="250" height="270" viewBox="0 0 250 270"><defs><style>.cls-1{opacity:0.6;}.cls-2{fill:#fff;stroke:#000;stroke-miterlimit:10;stroke-width:7px;}</style></defs><title>Tid</title><g id="UI"><path d="M24,79.14c.08.08.24.08.32.16C24.28,79.22,24.12,79.22,24,79.14Zm13.62-55c.08.08.16.32.24.32H38a.08.08,0,0,1,.08.08c0,.47-.08.95-.08,1.51,0,.95.08,1.91.08,2.86,0,.4-.08.8-.08,1.2a3.59,3.59,0,0,0,.31,1.51.58.58,0,0,0-.39.08v1.35c0,.16.16.32.16.48s-.16.88-.16,1l-.32.31c.16.24.16.16.4.16,0,.08,0,.16-.08.16,0,.56.08,1.59.08,1.59h-.4l.32.4-.16.56-.4.4.32-.48h-.08l-.72,1s-.79-.32-1.11-.08c0,.08,0,.16-.08.16a.28.28,0,0,0,.08.23V39c-.16-.08-.32-.24-.32-.39l-.32.08h0v.23c-.08-.08-.16-.16-.16-.23s.08-.08.08-.16l-.16-.24c-.16.16-.4,0-.48.24H34c-.08-.08,0-.16,0-.24s-.16-.16-.24-.16-.56.32-.72.4c-.24-.08-.56.63-.8.55v-.39c-.23,0-.55.07-.63.23l-.16-.08a.58.58,0,0,0,.16-.31,4.37,4.37,0,0,1-1.44-.08.81.81,0,0,0-.07-.4,1,1,0,0,1-.48.08v-.24l-.08-.16a6,6,0,0,1-1.67.56,1.14,1.14,0,0,1-.48-.16h-.32a6.41,6.41,0,0,0,.4.79.6.6,0,0,0-.4-.08c0-.15-.08-.23-.08-.39-.24,0-.4.08-.56.08v-.24a1.1,1.1,0,0,0-.47-.16c-.16-.4-.08-1-.24-1.44l.32-.07v-.08H26a.6.6,0,0,1-.08-.32c0-.32.24-.48.24-.8,0-.08-.08-.16-.08-.24l-.32-.08c0-.16-.08-.24-.08-.4,0-.47.55-1.19.55-1.67a.67.67,0,0,0-.07-.4l-.32-.07v-.32c0-.72.39-1.2.39-2s.72-1.36.72-2a.44.44,0,0,0-.32-.48c.08-.08.16-.16.16-.24s.24-.08.32-.08c-.16-.24-.16-.16-.32-.32.08-.63.72-.63.72-.87h-.16a2.49,2.49,0,0,0,.32-.48,1.34,1.34,0,0,0,.55.08,1.56,1.56,0,0,1,.08-.64h-.08v-.16l.16-.08a1,1,0,0,0,.16-.63c.08-.08.08-.08.16-.08s.24.08.32.08.08-.08.16-.16v-.56c.16,0,.32-.08.48-.08-.08-.08-.16-.16-.16-.24s.4-.48.48-.64h.23c-.07.08-.07.16-.15.32v.32A2.06,2.06,0,0,1,31,23.1v-.56h-.56c.08-.15.08-.31.16-.47a.61.61,0,0,0,.4-.16l.08-.24h.72c.16-.32.4-.64.71-.64.08,0,.16-.08.24-.16v-.24h1c.24-.15.24-.39.48-.63a2.2,2.2,0,0,0,1.43-.24,1.36,1.36,0,0,0,.56.08V20h.07a.08.08,0,0,0,.08-.08v-.16h.4v-.32c.4.08.8.24,1.2.32a12.46,12.46,0,0,1,.31,1.83c0,.56-.39,1.11-.39,1.43,0,.48.39.72.71,1v.16A3.15,3.15,0,0,1,37.66,24.14Zm16.16,7c0,.08.24.4.24.48a2.67,2.67,0,0,0-.4,1c-.08,0-.08.15-.08.23s.32.56.32.72-.16.4-.16.64a.56.56,0,0,1,.32.16c-.16,0-.4.16-.56.16,0,.55-.16,1.11-.16,1.67h.56a3.49,3.49,0,0,0-.4,1.19.84.84,0,0,0,.4.72c-.08.08-.08.24-.16.32a.28.28,0,0,1-.16.08.29.29,0,0,0-.24-.08,3.16,3.16,0,0,1,.24,1.19c0,.56-.48,1-.4,1.59a.72.72,0,0,1,.08.4L53,41.33h-.16l.08.32c.08.08.16.16.24.16s.08-.08.16-.16A.62.62,0,0,1,53,42a3.48,3.48,0,0,0,.32.56l-.08-.08c-.56.08-.72.79-.72,1.35l-.24-.24h-.39v.64a1.19,1.19,0,0,0-.72.16,1.93,1.93,0,0,1-.08.63c-.32.24-.64.56-1,.8,0,.4.16.72.16,1,0,.16-.08.24-.16.4s.08.16.23.16v.24h.32v.64a.87.87,0,0,1,.4.08.61.61,0,0,0-.16.32.41.41,0,0,0,.16.31c-.08.16-.08.24-.16.32s-.16.08-.24.16l.16.4c.08-.08.24-.08.32-.16v-.4a.29.29,0,0,0,.24.08c.08,0,.16-.08.32-.08a1.67,1.67,0,0,1-.48.32l.16.48.32-.16A8.64,8.64,0,0,0,52,52v.08a1.09,1.09,0,0,0,.31-.16.07.07,0,0,0-.07-.08c-.08,0-.16,0-.16-.16a.28.28,0,0,0,.08-.16.17.17,0,0,0,.15.16.86.86,0,0,0,.16-.48c0,.16.08.24.08.32s-.24.08-.24.24a.61.61,0,0,0,.16.32c0,.4.48.48.48.87,0,.24-.16.48-.16.8,0,.88.32,1.83.32,2.71,0,.08-.08.16-.16.24a.17.17,0,0,0-.16.15c0,.08.08.16.08.24H53a.86.86,0,0,1,.24.56,1.35,1.35,0,0,1-.72,1.12V59h.72c0,.24.08.48.08.72s-.4.24-.4.56v.08l.32.24v2.15h.4l.08.23a1.52,1.52,0,0,1-.72.24,6.18,6.18,0,0,1-.16,1.2c.08-.08.24,0,.4-.08h.08c-.4.4-.08.63-.72,1l.08.32.24.24c-.32.72-.48.56-.48,1.51a.57.57,0,0,0-.55.64,2,2,0,0,1-.64-.08V68h-.08a1.67,1.67,0,0,0,.32.48v.24c0,.47-.4.47-.4,1.19-.32.16-.56.08-.87.24a.28.28,0,0,1,.08.16c.07-.08.23,0,.23,0v.4l-.39-.4h-.4c.08.16.08.24.16.4v.55l-.16-.16h-.32c0,.24.08.48.08.72a.7.7,0,0,0-.72.64,3.46,3.46,0,0,0,.08.4c0,.15-.08.31-.08.47h-.32a2.59,2.59,0,0,1,0-1.11c-.15.16-.31.48-.47.56h-.88c-.16.23,0,.31-.4.55a1.29,1.29,0,0,0,.56.32v.24c-.24-.08-.32.08-.56-.24v-.16H46c-.08.08,0,.32-.08.4-.32.64-.56.08-.56,1.11-.56-.31-.16-.47-.88-.63v-.72h-.31a2.21,2.21,0,0,0-.08.72.66.66,0,0,0,.15.4l-1.91.39v-.23H42l-.16-.32c-.32,0-.4.32-.88.32v.47l-.48-.24a.5.5,0,0,1-.39-.16c.08-.15.08-.31.16-.39a.56.56,0,0,0,.39.16v-.4a1.32,1.32,0,0,0-1,.4h-.4c.08-.08.16-.24.32-.32a3.9,3.9,0,0,1-.24-.56h-.88v.48H39a5.8,5.8,0,0,0,.32,1.11l-.24-.24-.32-.08v.64c-.79-.16-.87-.56-1.59-.87,0-.16.16-.32.32-.48-.08,0-.16-.08-.16-.24-.08,0-.24-.08-.32-.08v.48a1.35,1.35,0,0,0-.4.16.6.6,0,0,1-.08-.4,1.7,1.7,0,0,0-.63.4,3.46,3.46,0,0,1-.08-.4l-.32.08-.08.32c-.64-.08-1-.48-1.51-.72a2,2,0,0,1-.4,1,2.11,2.11,0,0,0-.32-.55c-.32-.24-.4,0-.88-.32v-.24c-.08.08-.15.16-.24.16-1,0-.55-1.75-1.91-1.35a3.7,3.7,0,0,0-.55-1.44h-.4a.7.7,0,0,1-.08-.39L28.9,71h-.08v-.47c-.08.08-.08.08-.16.08s-.4-.32-.4-.48l.08-.16a.17.17,0,0,0,.16-.16c0-.08-.08-.16-.16-.24-.08-.32-.31-.63-.39-1,0-.08,0-.32-.08-.4a1.19,1.19,0,0,1-.56.08,1,1,0,0,0,.08-.48c0-.48-.24-.56-.64-.64v-.31l.56.31c.16-.24.48-.39.64-.63V66a1,1,0,0,0-.8.32,2.89,2.89,0,0,1-1-2.07c0-.4.39-.48.39-.88l-.32-.24v-.79a4.92,4.92,0,0,1,.16-1.52.8.8,0,0,0,.16-.47c0-.48-.16-1-.16-1.59a22.22,22.22,0,0,1,.16-2.31c.4,0,.88-1.44,1-1.2a1.49,1.49,0,0,0,.63-.08V55a.89.89,0,0,0-.23-.31.28.28,0,0,0,.16-.08v.08l.07-.08a.28.28,0,0,1,.08.23c0,.16.4.32.56.4V55c.16.08.48.08.72.16v-.24l.16-.08V55h.16a.28.28,0,0,0,.16-.08h-.08v-.08c.08-.07.31-.07.47-.15l-.16-.16c.08,0,.16.08.24.16a.27.27,0,0,0-.08.23,1.76,1.76,0,0,0,.64-.08l.24-.23.08.08c0,.08-.08,0-.08,0s-.08,0-.08.08l.08.07h.16a.42.42,0,0,1,.32.16c.08,0,.08-.16.16-.16H32c.16,0,.23.24.23.24A.28.28,0,0,0,32.4,55v-.08c.24-.08.24-.23.4-.31H33a.79.79,0,0,1-.64.55c.08.08.24.08.32.16l.24-.16a1.72,1.72,0,0,0,.56-.32l.16.08c.4,0,.32-.15.87-.08.08-.07.08-.15.16-.23-.08,0-.08-.08-.16-.08H35l.16.08-.32.23V55c.24-.08.4,0,.64-.16a1.67,1.67,0,0,1,.87.16l-.15.16v.16a.61.61,0,0,0,.39-.16l.08.08.08.08v.24H37c0-.24.16-.48.16-.72.08-.07.24-.07.32-.15h.08c-.08.15-.16.39-.4.47.24.24.32.08.72.08v.08a.29.29,0,0,1-.24.08v.16h.4v.56H37.9a2.18,2.18,0,0,0-.08,1c0,.24-.16.4-.24.64a7.8,7.8,0,0,1,.4.88.72.72,0,0,1-.08.23c0,.32-.08,1-.4,1v.4c.24,0,.48.16.79.16V61H37.5v2.15c.56.08.79.64,1.27.48a1.14,1.14,0,0,1-.16.48v.24l-.08-.16a.84.84,0,0,0-.16-.4c-.23.16-.63,0-.87.16a.86.86,0,0,0,.16.48l-.4.24.24.39a1.34,1.34,0,0,0,.79-.15c0,.07.08.15.08.23a1.35,1.35,0,0,0,.4.16v.24c-.24,0-.48-.08-.79-.08a.84.84,0,0,0,.31.4v.24A.45.45,0,0,1,38,66H37.5a1.26,1.26,0,0,0,.56.56s-.08.16,0,.24a.28.28,0,0,0-.16.08c0,.07.08.15,0,.23.16,0,.24.08.39.08a.4.4,0,0,0-.15.24H37.9v.88h.16c0,.32-.08.56-.08.79h.55c.08-.23-.08-.55.24-.55s.32.16.48.32h.16v-.4c.24-.08.4.08.64,0s.31-.08.47-.16a.93.93,0,0,0-.47-.72v-.16h.24c.15-.32.07-.4.07-.79a1,1,0,0,1,.32-.64c.08-.08.16-.08.32-.16l.08.16v-.4a2.34,2.34,0,0,0,.72-.16c-.08-.32-.08-.63-.32-.79V64.5c.32,0,.56.16.87.16a2.25,2.25,0,0,1,.48-1.6A18,18,0,0,1,42.59,61l-.24-.31H42.2a1.78,1.78,0,0,0,.71-1.28,5.8,5.8,0,0,0-.4-1.59c0-.32.24-.4.32-.64a3.46,3.46,0,0,1-.4-.08v-.24h.48V56.3l.32-.16-.72-.8c.08,0,.16-.08.24,0h.16c.24-.63.4-2,1.2-2.31v-.24h.08v.56h.39c.08-.4.24-.79.32-1.19-.24.08-.4,0-.64.24h-.15v.08h.08v.16a2,2,0,0,1-.56-.32,2.21,2.21,0,0,0-.72.08,1.1,1.1,0,0,1,.24-.32v-.64h-.32l-.08.08a1.88,1.88,0,0,0-.16.64c0,.16.16.24.24.32v.16a.86.86,0,0,1-.48-.16c-.08,0-.08-.08-.15-.16s.15-.08.23-.16V52l-.16-.16-.15.16a.28.28,0,0,1-.16.08L41.8,52h-.32c.08-.16.24-.16.4-.24v-.24H41.8v-.08c-.48,0-1-.24-1.2.16l-.47.08v-.32a.29.29,0,0,0-.24-.08c-.08,0-.16.16-.16.32h-.48c0-.08-.16-.4-.16-.48a.42.42,0,0,1,.16-.32v-.31l-1,.08v.63a1,1,0,0,0-.63.16c-.32-.08-.72-.16-.8-.48a2.14,2.14,0,0,0-.87.32c-.08,0-.08,0-.16-.08V51h-.16c-.32,0-.56-.08-.8-.08s-.32.72-.64.88c-.07-.08,0-.24-.07-.4a12,12,0,0,0-1.6-.16c.08-.16.16-.24.16-.4a.56.56,0,0,1-.16-.39c0-.08.08-.24.08-.32H33a.28.28,0,0,1,.08-.16L33,49.69a3,3,0,0,1-.4-.88v-.07h.24c.24-.16.16-.32.24-.56h-.48c.08-.08.08-.32.08-.48v-.16c.16.08.24.16.4.16a.17.17,0,0,1,.16-.16c-.08-.08-.16-.24-.24-.32a.42.42,0,0,1-.32.16c.24-.4.4-.4.4-.79l.16-.16h-.56l.16-.32.4-.08v-.4h-.4a1.14,1.14,0,0,0,.16-.48c-.08-.08-.24-.16-.32-.32l.56-.08c-.08-.15-.08-.23-.16-.39a.6.6,0,0,1-.4.08c.32-.64.16-.64.16-1.28a1.45,1.45,0,0,0,.4-.95c.16.16.32.24.48.4h.08V42c.32,0,.63.16,1,.16v.4a.8.8,0,0,0,.4-.32l.16.16v.24a1.62,1.62,0,0,0,1.59-1h.32c0,.16.16.32.16.56l.48-.16.08.24c.16,0,.24.08.31.08a1.59,1.59,0,0,0,1-.48h.24c-.08.08-.08.24-.24.32v.4l.32-.24a.25.25,0,0,1-.08-.16.72.72,0,0,1,.4.08c.08-.08.16-.08.32-.08L40.13,42c.23-.08.31,0,.63,0a.61.61,0,0,0,.32-.16v-.24H42.2a.61.61,0,0,1,.15-.4,3.46,3.46,0,0,0,.4.08.83.83,0,0,1,.16-.63.45.45,0,0,0-.48-.4,3.3,3.3,0,0,1,.16-.72l.48.24a5.51,5.51,0,0,1-.24-.64v-.16h.32V37.67l.16-.16v-.32l-.08-.08c0-.16,0-.08.08-.08a2,2,0,0,0,.16-.55c0-.48-.32-.64-.32-.8s.24-.4.4-.48l-.24-.32h-.4c.16-.16.72-.71.72-1s-.24-.08-.4-.08c0-.32.08-.56.08-.88l-.16-.32v-.31l.16-.24c0-.56-.08-1-.8-1a4.47,4.47,0,0,0,.4-.87.68.68,0,0,0-.56,0,2.37,2.37,0,0,1,.16-.8c-.16-.16-.39-.95-.55-.95s-.32.23-.4.31l-.16-.23v-.32l.16-.24-.08-.24h-.32c0-.32-.08-.56-.08-.88.16-.16.48-.08.48-.39s-.24-.32-.4-.4v-.24c0-.24.24-.16.24-.32a1.35,1.35,0,0,0-.24-.48c.08-.08.16-.24.24-.32a.39.39,0,0,0,.48-.23c-.16-.16-.48-.32-.72-.56h.24s.16-.16.08-.16l.08.16H42a2,2,0,0,0-.32-.56c0-.24.08-.56.08-.72a.86.86,0,0,1,.63,0c-.08-.23-.39-.95-.39-.95a.84.84,0,0,1,.31-.56c-.08-.08-.08-.32-.15-.4a.72.72,0,0,1-.4.08c0-.24.08-.79.4-.79.07,0,.07.16.23.16h.32a1,1,0,0,1,.4-.4l.08.4a1,1,0,0,0,.08-.48c.16.08.32.08.48.24.08,0,.32,0,.32-.16v-.08H44v-.24h.16a.27.27,0,0,1,.23.08l.24.24c-.08.24-.16.24-.32.4v.16h.32a1.19,1.19,0,0,0,.08-.56c.24.16.24.32.48.48h.56c.24.16.24.24.24.39s.39.32.47.4a2.1,2.1,0,0,1-.47.8l.39.24v-.72a1,1,0,0,1,.08.48c.08-.08.4-.16.4-.32a.28.28,0,0,1-.08-.16.61.61,0,0,1,.16-.32v-.24c.8.32.72.56.88,1.36a.51.51,0,0,0,.4-.48c.87.4.39.48.95.95v.4h.64v.48a2.62,2.62,0,0,0,.79,0c.4.8.64.56.64,1.67l.4-.16c0,.16,0,.4-.08.48v.32l.4-.24a3.45,3.45,0,0,1,.55,1.51h.4v.4h.8c0,.64.08,1.19.08,1.83-.08,0-.32,0-.4-.16H53c.16.16.4.4.4.56a.42.42,0,0,1-.16.32c.08.16.4.16.48.16v.16c-.08,0-.24,0-.24.08v.39s.16-.08.24,0v-.23c.08.07.32.23.32.31S53.82,31,53.82,31.14ZM27.47,63.22l-.32.32h-.08v.08c.16,0,.4,0,.4-.24Zm-.4,5.89V68.8h.08v.31Zm.24-29.53v-.24h.08v.24ZM28,57.81h-.24c0,.08.08.08.08.16l.08.08h.23v-.16C28.18,57.81,28.11,57.81,28,57.81Zm-.16-19.1.24-.24h.23v.08A1.1,1.1,0,0,1,27.87,38.71Zm.24.63V39.1h.07v.24ZM28.5,27.8h-.24l.24.24Zm.32,45.85v-.16h.08v.16Zm.32-18.39c-.16.08-.16.24-.24.32.08,0,.16-.08.24-.08s.08-.16.16-.24ZM28.9,72.54v-.32h.32v.32Zm.56-34.23.16.16Zm.16,36.14v-.32h.32v.32Zm.71-35.51v-.23h.16v.23Zm3.35,18.63a2.21,2.21,0,0,0-.72-.08,1.63,1.63,0,0,0-1.51.8h-.16a2.12,2.12,0,0,1,.4-.48c-.08-.08-.16-.16-.16-.24h-.24c-.24.4-.32.4-.88.64v.64a1.15,1.15,0,0,0,.48.07.81.81,0,0,0,.4-.07.89.89,0,0,0,.24.07c0,.08.16.24.24.32v.24l-.4.48c0,.32.08.56.08.8A9.46,9.46,0,0,1,31,64.42v.24c1,0,1.35-.32,1.67-1.28-.32-.24-.47-2-.95-2.39v-.08H32a10,10,0,0,0,.16,1.76h.15V60.91c-.24-.31-.24-.39-.63-.55a1.06,1.06,0,0,1,.24-.64.34.34,0,0,1,.39,0v-.24a.15.15,0,0,0,0-.24c.16-1.35.48-.71,1.2-1.43h.16ZM30.57,71.26c0,.08,0,.32-.16.4V72c.32-.24.56-.24.56-.64v-.08Zm-.16,2.07a.29.29,0,0,0,.08-.24,3.46,3.46,0,0,1,.4-.08v.48A1.14,1.14,0,0,0,30.41,73.33Zm.16-44.73V29h.08A.81.81,0,0,0,30.57,28.6Zm.32-2.55-.24.16H31A.28.28,0,0,0,30.89,26.05Zm-.24.87v.24H31Zm1.12,38.93h-.88a2.61,2.61,0,0,0,.4,1.59c.64,0,.56-.16,1-.48A3.7,3.7,0,0,0,31.77,65.85Zm-.32-10.67v-.24l-.08.08-.08.08v.16h.4Zm0,1h-.16V57h.16Zm0,14.33c0,.16-.08.32-.08.47.08-.08.24-.15.24-.23S31.53,70.63,31.45,70.55Zm0-45.62v.32h.24A1.1,1.1,0,0,0,31.45,24.93Zm.48.32h-.24v.32h.24Zm1.51,25.24h-.32c-.08.08-.08.24-.24.31.08,0,.08.08.16.08l.08-.08a.59.59,0,0,0,.32-.15h.08S33.36,50.57,33.44,50.49Zm-.16-.72h-.16V50c0,.08.08.24.16.24l.08-.08c0-.16.16-.24.32-.32A.87.87,0,0,0,33.28,49.77Zm.08,5.09h-.24c.08-.07.16-.15.16-.23a.6.6,0,0,1,.08-.32,1.1,1.1,0,0,0,.32.24Zm.16-27.7c-.08,0-.16.08-.24.16a.29.29,0,0,1-.08.24h.48C33.6,27.4,33.52,27.32,33.52,27.16Zm-.32,53v-.32h.16v.32Zm.08-41.63h.32v.16Zm.4-2h-.24v.15c.08.08.16.16.24.16Zm1,6c-.08,0-.16-.08-.24-.08l-.24.23v.16a.61.61,0,0,0,.4-.16h.08C34.71,42.69,34.63,42.61,34.71,42.61Zm.08,30.72h-.32l.32.16ZM34.55,27l.08.16.16.16v.16h.08A.66.66,0,0,0,34.55,27Zm.56,10.83V38c-.08,0-.08.08-.08.16v.16h.08a.48.48,0,0,0,.32-.08s.08-.08.08,0a.25.25,0,0,0,.08-.16Zm.16-12.26v.32h.16Zm.32-4.38c0,.08.08.16.16.24v.24l.08-.16c0-.08.08-.24.08-.32Zm.32,3.35h-.16v.15h-.16c.08.08.24.16.32.24Zm-.32,4.29V29h.16Zm0,46.33v-.23h.24v.23Zm.24.8v-.4h.08V76Zm1-49.91-.16-.16h-.55c0,.08.07.24.15.24s.16.08.24.08h.32Zm-.71,1.11v.32h.07A.68.68,0,0,1,36.15,27.16Zm.15,1.2h-.15v.24h.15Zm.88,47.12s-.32.24-.32.32a1.75,1.75,0,0,0-.24-.4l-.08-.08a.56.56,0,0,0-.39.16v-.55a2.62,2.62,0,0,0,1.11.23C37.26,75.24,37.18,75.4,37.18,75.48Zm-.48-48.8-.16-.23a2.38,2.38,0,0,0-.24.71.25.25,0,0,1,.16-.08v.08l.08-.16h.16Zm.08,9.4h-.24l.24.08Zm.08-12.42v.48h.32A2.49,2.49,0,0,0,36.86,23.66Zm.4,1.43L37,25v.48h.24ZM37,28.28v.16h.16Zm.24,11.78v.4c-.08-.16,0-.32-.08-.48h.24a.08.08,0,0,1,.08.08Zm.4-19.19H37.5l-.08.08-.16.16.16.16a.29.29,0,0,1,.24.08Zm-.24,1.6-.16-.16v.39h.24A.28.28,0,0,1,37.42,22.47ZM37.26,76v-.4l.4.24V76Zm.48-25.63a.61.61,0,0,1-.32-.16v.32c0,.08.24.24.24.31s.08-.15,0-.15l.16-.08C37.82,50.49,37.74,50.41,37.74,50.33ZM37.5,26.68V27h.08A.48.48,0,0,1,37.5,26.68Zm.4,50.16h-.32l-.08-.16V76.6a1.36,1.36,0,0,1,.08-.56c.16.08.32.24.48.32Zm1.83-6,.4-.24a1.56,1.56,0,0,0-.08-.64v-.24h-.4l-.32-.56c-.24.08-.48.08-.48.32a.36.36,0,0,1-.24.32c-.16,0-.32-.16-.4-.16a.28.28,0,0,0-.23.08v.24c0,.08-.08.08-.08.16l.08.16a1.14,1.14,0,0,0,.55.08,2.21,2.21,0,0,0,.72-.08,1.36,1.36,0,0,1,.08.56,1.29,1.29,0,0,1-.72-.24.28.28,0,0,0-.08.16.28.28,0,0,1-.16.08,3.91,3.91,0,0,1,.16,1H39v.4h.4c.08-.16.16-.48.32-.48s.32.24.4.4h.16A3.38,3.38,0,0,0,39.73,70.79ZM37.9,74.13v.32H38A.48.48,0,0,1,37.9,74.13Zm.71.64L38,74.45v.08c0,.16,0,.55.23.55h.08c.08,0,.24-.15.32-.23C38.53,74.85,38.61,74.85,38.61,74.77Zm-.55-12.1h.31v.47Zm.95,10h-.4c0-.32-.08-.56-.08-.88h-.24a1.12,1.12,0,0,0-.15.48,1.19,1.19,0,0,0,.79,1l.08-.24Zm-.72,3.58V76h.32V76C38.53,76.12,38.37,76.2,38.29,76.28Zm.32,1-.16-.16a.26.26,0,0,0,.08-.23H39A.67.67,0,0,1,38.61,77.23Zm0-9.31v-.24h.32v.24Zm.32,3.5V71.1H39v.32Zm.48-1.19c.16-.16.08-.32.24-.48,0,.16.08.24.08.4v.08Zm.4,2.55c-.16,0-.24-.08-.4-.08V73h.4Zm.71,3.5v.08c-.39-.24-.47-.64-.87-.88V75h.4a3.89,3.89,0,0,0,.08,1,1.78,1.78,0,0,1,.63-.16v.48Zm-.79,1.11v.08h-.08v-.63l.16.08A1,1,0,0,1,39.73,77.39ZM40,50.33h-.24v.55l.4-.08-.24.24v.24l.47-.08a1.6,1.6,0,0,0,.24-.87v-.08C40.36,50.25,40.29,50.41,40,50.33Zm.08,18.31L40,69l-.24.16.32.16v.32h.08A4.83,4.83,0,0,0,40.05,68.64Zm0,8.59v-.31h.31v.31Zm.55-35.1v.32H41Zm.8,32a1.56,1.56,0,0,1-.64-.08,1.1,1.1,0,0,0,.64.4ZM41.48,23h-.4c.24-.48-.08-1.27.72-1.27C41.72,22.23,41.56,22.54,41.48,23Zm-.4,53.66c0-.16.08-.24.08-.4h.08a.29.29,0,0,1,.24.08v.32ZM41.4,72l-.24.24h.32A.29.29,0,0,0,41.4,72Zm1-47.44a.28.28,0,0,0-.15.39l-.16.16c0-.08-.16,0-.24,0v.48a1.22,1.22,0,0,0,.63-.48h.08A5.55,5.55,0,0,1,42.35,24.54Zm-.47,1.11v.4H42C42,25.89,42,25.81,41.88,25.65Zm1.43-3.11c-.4.32-.4,1.12-.4,1.6a1.14,1.14,0,0,1-.48-.16H42a4,4,0,0,1,.47.71,3.65,3.65,0,0,1,.72-.23c.08,0,.24.08.32.08H44C43.63,23.66,43.31,23.58,43.31,22.54Zm-1,4.78H42.2L42,27.8c.08-.08.39-.24.47-.32C42.43,27.4,42.35,27.32,42.27,27.32Zm.32-4.46a.81.81,0,0,1-.24-.08.61.61,0,0,0-.15.4v.08a.41.41,0,0,0,.31-.16h.24C42.67,23,42.59,22.94,42.59,22.86Zm-.39,53.5h.31v.32A.57.57,0,0,1,42.2,76.36Zm.31-47.53a.6.6,0,0,1-.08.4h.32A1.75,1.75,0,0,0,42.51,28.83ZM42.43,33v-.32c.08.08.16.08.32.08V33Zm.32,9.48h-.32a.42.42,0,0,0,.32.16ZM42.43,76v-.4h.32V76Zm1.2-54.77a2,2,0,0,1-.56.32.62.62,0,0,1-.32-.32c0-.08.4-.08.48-.08v-.32a2.21,2.21,0,0,0-.72.08,7.2,7.2,0,0,0,.24,1.28.62.62,0,0,1,.32-.32c.16,0,.32-.08.48-.08a3.46,3.46,0,0,1,.08-.4ZM42.51,38.63v-.24h.24v.24Zm.72,35.66c-.16,0-.24.08-.4.08l.16.16a.29.29,0,0,1,.24-.08l.08-.08A.08.08,0,0,0,43.23,74.29ZM43.07,72l-.16-.16v.32h.24Zm.16-45.77h-.08v.39h1C44.11,26.29,43.47,26.21,43.23,26.21Zm.88,25.47h-.48V51h-.32c0,.24-.08.48-.08.72.32.08.56.24.88.32ZM43.63,20.4c-.08.23-.24.47-.32.71l.64-.32Zm0,14.88h-.32v.32h.32ZM43.31,53l.24-.31h.08V53Zm.8-30.25h-.48v.4h.48Zm-.48,8.2v.4c.08,0,.24.08.32.08A1.67,1.67,0,0,0,43.63,30.9Zm.48-10.11v.32l.15-.24h.24A.7.7,0,0,0,44.11,20.79Zm.23,4.38c-.08,0-.23,0-.23-.08v.48a.57.57,0,0,1,.39-.08A.61.61,0,0,1,44.34,25.17Zm.48-4.06v.08l-.16-.08c-.08.24-.32.4-.47.56v.48c.55-.16.47-.32.79-.72A.61.61,0,0,0,44.82,21.11Zm.4,1.12H45c-.08.16-.16.39-.4.39v.08c0,.16.08.24.08.4h-.4v1.28a1.75,1.75,0,0,1,.4-.24,1.19,1.19,0,0,0,.56.08,1.75,1.75,0,0,0-.32-.4,1.19,1.19,0,0,1,.08-.56c.08-.08.08-.08.16-.08s.24.08.24.16h.32C45.46,22.7,45.06,22.94,45.22,22.23Zm-.32,7a5.51,5.51,0,0,0-.64-.24v.32c.08,0,.16.08.24.16h.4ZM45,25a.6.6,0,0,0-.4-.08H44.5l.16.16H45Zm-.32,1.59H44.5a.28.28,0,0,1,.08.16l.08.16Zm0,5.5A.28.28,0,0,1,44.5,32v.32h.16Zm0,25.47-.08-.08-.08.32h.16Zm0-29.21v.24H45Zm.48,42.74H44.9l.24.16Zm.56-44.65a1.25,1.25,0,0,0-.72.15l.16.32h.56Zm-.48-5c.24.24.24.08.48.24Zm.48,7.8h-.32v.24h.32Zm.16-7.08h-.32v.16h.4Zm.08,52.3v-.32c.08.16.31.08.39.24v.08ZM46,23.34v1.2h.31A1.66,1.66,0,0,0,46,23.34Zm.31-1c0,.16-.08.31-.08.47h.08c.08-.08.08-.16.16-.24S46.41,22.39,46.33,22.31Zm.08,3.9h-.16c0,.08,0,.39.16.39Zm-.08,30.33-.08.39h.4A.82.82,0,0,0,46.33,56.54Zm.16,6.76a.29.29,0,0,0-.24-.08l.08.16.32.16C46.57,63.46,46.49,63.38,46.49,63.3Zm.16-3.18-.24.24h.32Zm.08-37.81c.08.16.08.23.16.39V23h.16A2.64,2.64,0,0,0,46.73,22.31Zm.48,40c0-.24,0-1-.16-1.2A7.06,7.06,0,0,1,46.89,63h.16l.08.08c.08,0,.08-.39.08-.47Zm-.08-40.6c0,.16-.08.32-.08.48v.08h.08a.72.72,0,0,0,.08-.4A.25.25,0,0,0,47.13,21.67Zm.24,1.91v-.24h-.24a.29.29,0,0,1,.08.24l.16.08c-.08.08-.16.08-.24.16v.32h.48A.62.62,0,0,0,47.37,23.58Zm0,6.69h-.24l.16.24v-.16h.08C47.29,30.35,47.37,30.27,47.37,30.27Zm-.24,36.3V67h.16A.61.61,0,0,0,47.13,66.57Zm.16-2.23v.16h.08A.28.28,0,0,0,47.29,64.34Zm.08-39.8v.71h.32A.75.75,0,0,0,47.37,24.54Zm.32,43.38h-.32v.32h.32Zm0,5.65h-.32c.16-.08.24-.32.32-.48.08.16.24.16.32.24C47.93,73.41,47.77,73.49,47.69,73.57Zm0-51.34v.31h.08A.47.47,0,0,0,47.69,22.23Zm0,1.11.08.32v-.08l.24-.24Zm.87,8.36h-.08V32a1.1,1.1,0,0,0,.32-.24h.08C48.8,31.78,48.72,31.7,48.56,31.7Zm.08-9V23h.16A.42.42,0,0,0,48.64,22.7Zm1.44,49.2a.29.29,0,0,0,.08-.24.6.6,0,0,1,.08.32A.25.25,0,0,1,50.08,71.9Zm.47-47.52h-.31v.31h.31Zm.16.63c-.08.08-.16.16-.16.24h.16l.08.24c0-.08.08-.08.08-.16S50.71,25.09,50.71,25ZM50.55,71.1v-.31h.24v.31Zm.24-25.31c.16.08.32.16.32.32ZM52,63.62h-.24v.32H52Zm.16,2.79h-.24v.4h.24Zm0-12.1v.32h.15C52.3,54.47,52.15,54.47,52.15,54.31Zm.31-3.51h-.08a3.7,3.7,0,0,0-.08-.39.17.17,0,0,1,.16.16c0,.08.08.16.08.23Zm0-6.12v-.32h.08v.32Z"/><path d="M95.93,43.8l-.48.08a13.41,13.41,0,0,1-.4,1.91h.48c0,.24.08.48.08.72s-.24.39-.4.55l-.32.16v.24h.56c0,.08-.08.16-.08.32-.08,0-.16.08-.24.08a1.36,1.36,0,0,0,.48.48,2.16,2.16,0,0,1-.08.71h-.4l.08.56H95v.48h.24c.08.08.08.16.08.32-.08,0-.24.08-.32.08,0,.71.08.63.72,1,0,.08-.16.72-.32.72a.08.08,0,0,0-.08-.08c-.08,0-.4.16-.4.24s-.24.16-.31.16v.31c.07,0,.23-.08.31,0a.58.58,0,0,1,.16-.31h.24a7,7,0,0,1-.32.71,15.34,15.34,0,0,1,.08,1.91c0,.56.16,1,.16,1.52a.88.88,0,0,1-.48.79c.4.4.16.56.64.88a1,1,0,0,1-.64.71l.08.16a.42.42,0,0,1,.32.16c-.08.08,0,.48-.08.56l-.16-.4h-.55l.47.8H94.5v.47h.63c-.08.32,0,.4-.32.4v.48c.08.16.48.24.48.4l-.08.16h-.4c.08,0,.08.16.08.24s.24.08.32.16c-.24.23-.79,1.11-.71,1.43a.29.29,0,0,0-.08.24c0,.32.16.56.16.79a.6.6,0,0,1-.08.4v.32c-.48-.08-.88-.24-1.36-.32l.08,1h.24l-.08-.08.16-.08a.86.86,0,0,1,.64.16v.79h-1v.48h.56c-.08.16-.08.32-.24.48h-.32c0-.08-.08-.24-.08-.32l-.32.32h-.24l.24.48c.08,0,.24-.08.32-.08a.29.29,0,0,0,.08-.24h.4c-.16.71-.32.79-1,.71-.07.48-.07,1-.15,1.44a.91.91,0,0,0-.64.24v.31h-.56c-.4.4-.08.48-.71.8v.32H89.08v.32H88.6l.08.16h.72c-.08.24-.4,1.35-.72,1.35-.08,0-.08-.08-.15-.08s-.24.32-.24.48h-.4l.16-.16a.28.28,0,0,0,.16-.08V74c-.72.16-2.23-.08-2.71.24v.24h-.88v.32h-.08c-.23,0,0-.4-.31-.4a.29.29,0,0,0-.24.08v.32a3.9,3.9,0,0,0-1.36.08l.08.31H80.8a.6.6,0,0,0-.31-.55v-.08c0-.16.23-.4.31-.56h-.24a.67.67,0,0,1-.07-.4c0-.4.31-.48.31-.71a.48.48,0,0,0-.08-.32h-.23V71.9c-.08-.08-.16-.24-.24-.24-.16-.16-.16-.4-.24-.56h.48a6.79,6.79,0,0,1-.16-1.27,5.73,5.73,0,0,1,.31-1.27c0-.24-.31-.24-.31-.64a.6.6,0,0,1,.08-.4h.23l-.08-.63h.32c0-.32.16-.56.16-.8.64,0,1-.4,1.75-.56a1.22,1.22,0,0,1,.4-1.11h.16V63.3h.32c0-.55.08-1.19.08-1.83h.32v-.95h-.32a.61.61,0,0,1-.16-.32c.08-.16.24-.08.32-.08a.17.17,0,0,0,.16-.16V59.8h-.4v-.88H84c.08-.07.16-.15.16-.23L84,58.53c-.16-.08-.24-.24-.32-.32H84v-.72a.38.38,0,0,1-.4-.4v-.16H84v-.08c0-.47-.48-.55-.48-1a.72.72,0,0,1,.08-.4H84c0-.16-.4,0-.4-.24V55.1h.32l-.08-1.75h-.32c0-.24-.08-.48-.08-.79.16-.4.4.16.4-.88v-.16h-.48a6.57,6.57,0,0,0,.48-1.67,1.51,1.51,0,0,0-.56-1c.08,0,.08-.07.16-.15.08.08.24,0,.32,0v-.48h-.48c0-.16.08-.32.08-.56h.56a2,2,0,0,0-.08-.64,2.16,2.16,0,0,0-.48-.23,7.8,7.8,0,0,0,.4-.88c0-.64-.48-.4-.48-.64a.29.29,0,0,1,.08-.24h.32c0-.08.08-.24.08-.31a.78.78,0,0,0-.56-.64c0-.24.08-.56.08-.8h.32v-.32h.24a.71.71,0,0,0-.56-.79,3.43,3.43,0,0,0,.4-1.28c0-.39-.08-.71-.56-.71v-.08a.48.48,0,0,1,.08-.32l-.48-.24v-.56a3.74,3.74,0,0,0,.8.4l-.08-1.27h.48c-.16-.48-.32-.88-.48-1.43H83V36c0-.48.16-.88.64-1,0-.55-.24-1-.24-1.59h-.48v-.32h.48v-1H83a1.08,1.08,0,0,1,.56-.48v-.56c-.24,0-.72,0-.72-.32,0-.07.16-.23.16-.39l-.16-.72h-.31V29H82v-.47c-.72,0-1.36-.32-2.07-.32a1.79,1.79,0,0,1,.63-.4v-.24H80v-.4h-.48v-.4a6.07,6.07,0,0,1-1.35.56l-.08-.56h-.32a10.51,10.51,0,0,1,.4,1.2v.16h-.32c-.24.4.08,1-.08,1.51h.4c-.08.32-.48.56-.48.88,0,.16.16.31.24.47a9.68,9.68,0,0,1-.08,1.52h.4V33l.39.16c-.31.16-.55,0-.79,0v.8a1,1,0,0,0,.48-.08l-.48.4c0,.16-.08.32-.08.47,0,.4.32.48.32.72a.75.75,0,0,1-.4.56c.08.16.32.24.32.4s0,.24-.08.24H77.7c0,.23-.08.39-.08.55s.16.4.16.56-.24.24-.32.32a1.13,1.13,0,0,0,.56.48.37.37,0,0,0-.08.23l-.16.08v.24l.24.24v.08c0,.08-.08.16-.16.08h-.08l.08.88h-.4a2.89,2.89,0,0,0,.64.71,1.29,1.29,0,0,0-.24.72h.32v.24c0,.64.08,1-.64,1.19.16.32.48.64.48,1a.87.87,0,0,1-.08.4h-.32c.08.08.4.23.4.47,0,.08,0,.24-.08.24a.61.61,0,0,0-.4.16,6.88,6.88,0,0,0,.08,1.28,5.14,5.14,0,0,0-.08,1.11c0,.8.08,1.67.08,2.55,0,.39.16.79.16,1.27a1.36,1.36,0,0,1-.08.56h-.32a.29.29,0,0,0-.08.24c0,.55.48,1,.48,1.59v.24h-.4l.16.16c0,.08.16.16.24.24-.16,0-.24,0-.32.08l.08.15.24.16c0,.24-.16.24-.32.24v.72h.08a1.14,1.14,0,0,0-.16.48l.08.16c.08,0,.08,0,.08.08s-.32.15-.4.15a.85.85,0,0,0,.72.72v.56h-.32v.87h.32a.28.28,0,0,0,.08.16c0,.4-.48.56-.48.88,0,.08.32.24.48.24l-.24.16h-.16l.08.63H77.3c.08.08.4.24.4.4s-.08.16-.08.24H77.3a1.16,1.16,0,0,0-.16.56c0,.71.72.79.72,1.43a1.51,1.51,0,0,1-.16.64h-.32l.08,2.86a.43.43,0,0,1,.4.4c0,.32-.48.48-.48.8,0,.08.08.16.08.24a.48.48,0,0,0,.32.08c.08,0,.08,0,.08.08a.28.28,0,0,0-.08.15h-.32v.64h.48c0,.08-.08.08-.16.16h-.32c0,.16-.08.32-.08.48,0,.79.56,1.43.56,2.15,0,.24-.32.24-.48.24V74H76.9c.08,0,.08.08.08.16a.28.28,0,0,1,.16.08c-.08.24-.08.4-.16.64-.4-.16-.48-.48-.79-.64l-.08-.08c-.08,0,0,.16,0,.16s-.08.24-.16.24-.16-.08-.24-.08v-.24c-.56-.16-1.12-.08-1.59-.24v-.24h-.48v-.32h-.32V72.7H71.89a1.14,1.14,0,0,0-.16-.48V72h-.08a2.42,2.42,0,0,0-1.28-.4V71.1a.26.26,0,0,1-.23.08,3.46,3.46,0,0,0-.4-.08V71a1.72,1.72,0,0,1-.48-1.19c-.4,0-.72-.16-1.11-.16a5,5,0,0,0-.48-1.43H68a1.36,1.36,0,0,0-.08-.56,1.14,1.14,0,0,0-.48-.16l.08-.16.16-.08a.81.81,0,0,0-.08-.24.81.81,0,0,1-.24-.08,3.25,3.25,0,0,1,.08-.87c-.16-.24-.48-.24-.48-.48v-.08h.32a1.56,1.56,0,0,0-.64-.08v-.4H67V65c0-.23-.24-.15-.32-.15a.28.28,0,0,1-.16-.08.61.61,0,0,1,.16-.32H67l-.08-1.12h-.32v-.16c0-.31.4-.16.4-.55,0-.08-.08-.24-.08-.32h-.32c-.16-.4,0-.48,0-.8a.42.42,0,0,0-.16-.32v-.32c.08,0,.24.08.24,0a1.1,1.1,0,0,0,.24.32h.32a8.88,8.88,0,0,1-.48-2,1.32,1.32,0,0,1,.4-.95h-.32a.6.6,0,0,1-.08-.32c0-.4.32-.56.32-1h-.32V55.34H67c0-.08,0-.16-.08-.16a.28.28,0,0,1-.32-.32.28.28,0,0,0,.16.08c.08,0,.16-.08.24-.15-.16-.24-.4-.16-.4-.32v-.16H67v-.16h-.32v-.8h-.79v-.08h.32v-.4c.23,0,.08.08.08.24a.28.28,0,0,1,.08.16c.15-.08.39-.24.39-.4s-.24-.39-.24-.63a.61.61,0,0,1,.16-.4h.08c0-.08.08-.16.08-.24,0-.24-.32-.16-.32-.48a2.84,2.84,0,0,1,.08-.39h.32v-.24a1.15,1.15,0,0,1-.4-.88.48.48,0,0,1,.08-.32h.32v-.16c0-.16-.24-.08-.32-.08a.17.17,0,0,1-.16-.16c0-.08.08-.15.08-.23h.4v-.32c0-.32-.08-.64-.08-.88h-.63v-.24h.63v-.79h-.63c0-.32.23-.56.63-.64a1.43,1.43,0,0,0-1.11-.8c.08-.16.24-.24.32-.39h-.32l-.08-.24H66c0-.08.08-.16.08-.32s-.16,0-.16-.24v-.24h.16V43.4c0-.4-.48-.16-.48-.4v-.08h.32l.08-.31c.08-.08.08-.08.08-.16,0-.24-.16-.48-.16-.72l.08-.56h.32V40h.39v-.24a1.89,1.89,0,0,1-.47-.4h-.16l-.16.16a1,1,0,0,1-.08-.48c0-.24.16-.47.16-.79s-.48-.56-.8-.72c0-.08,0-.72.24-.72s.56.08.8.08c-.32-.23-.24-.31-.4-.71H65.2c.08-.16.4-.16.56-.16.08-.48.32-.8.4-1.28h-.48c0-.07-.08-.23,0-.31a.42.42,0,0,1-.32-.16v-.32h.8a.4.4,0,0,1-.08-.24c-.08-.08-.24-.16-.32-.24.32-.4.48,0,.79-1h-.16a.24.24,0,0,0-.15-.08l-.16.08h-.4c.16-.16-.08-.72.08-1.12h.32V31h.63v-.55c-.24-.08-.47,0-.63-.08h-.4a1.44,1.44,0,0,0,.32-.72h.71c-.08-.4-.32-.72-.32-1v-.15h.24V27.8H67a.42.42,0,0,0,.16-.32c0-.24-.16-.48-.16-.8h.4a.45.45,0,0,0-.08-.31H67a.28.28,0,0,0-.08-.16l.16-.16c.08,0,.16-.08.24-.16v-.56c.24,0,.56.08.72-.08h.24V24.3h.39c0-.08-.08-.24,0-.32h-.16c.08-.16.4-.16.48-.16l-.16-.32h-.4c.16-.48.8-.32,1.2-.32,0-.16-.08-.24-.08-.4V22.7a1.57,1.57,0,0,0,.32-.63,1.36,1.36,0,0,0,.56-.08,1.47,1.47,0,0,1,.39-.24v-.48h.4c0-.56.16-.48.24-.95.88,0,1.59-.32,2.47-.4a1.14,1.14,0,0,1,.16-.48V19.2c.16.08.24.24.39.24h.16V19.2h.88l-.08-.32h2.15v.32h.72c-.08.24-.48.4-.72.48l.16.16s.16,0,.16.08-.08.16,0,.24a.48.48,0,0,0-.32.08,1,1,0,0,0,.72,1v.4H78v.87H77.7l-.08.64a1.56,1.56,0,0,1,.08.64V24c0,.08-.08.16-.08.32,0,.39.48,0,.48.95h.4l.07.48h.32a.25.25,0,0,1-.08.16h-.24v.48a10.71,10.71,0,0,1,1-.48l-.24.24v.24H80a2.54,2.54,0,0,0-.16-1v-1a2.84,2.84,0,0,1-.8.16V24h-.16c0,.08-.08.24-.08.32H78.5V24a3.44,3.44,0,0,1,1.27-.16c0-.24.16-.48.16-.72h.32l-.08-1h.24c-.16-.4-.24-.24-.24-.8l-.24.24a.28.28,0,0,0-.08.16h-.4c0-.08.08-.16.16-.24s.16-.08.24-.16a1.35,1.35,0,0,0-.16-.4v-.24h.48v-.31h.24a10,10,0,0,1,.15-1.44,8.69,8.69,0,0,0,2,.32c.32,0,.48-.32.64-.32h.24v.32h1.75v.24c.08.08.24.16.32.24v.24h1v.32c.23,0,.47.08.71.08l.08.31h.4v.24c.56.16,1.19.08,1.75.24v.16h.24v-.16a3.83,3.83,0,0,1,.48,1.43h.47v.56h.56a.84.84,0,0,0,.16.4c.16.32.48.48.64.8h.4v.31c.24.08.47.24.71.32v.8h.4l.08.64c.16.39.16.23.4.23s.24.64.24.72h-.64v.8h.64l.08.87h.31a2.4,2.4,0,0,0-.31,1,1.91,1.91,0,0,0,.24.72h.47V31c.16,0,.08-.08.08-.24v-.07h.32c-.16.47-.64.55-1.11.39,0,.16,0,.48.16.56h.55v1.67h.48V35h-.4a13.48,13.48,0,0,1,.08,1.83v.24h.4a3.54,3.54,0,0,1-.4,1.2,1.1,1.1,0,0,0,.32.24h.32c-.08.31-.32.39-.64.39a2.21,2.21,0,0,0,.08.72l.64.08c-.08.16-.16.4-.24.56h-.32c0,.16.08.08.24.08h.08v.55a1.75,1.75,0,0,0-.4.24v.24h.64v.4h-.48c0,.4.08,1.19-.48,1.35a1.68,1.68,0,0,0,1,.4ZM66.08,37.19c-.08,0-.24-.08-.32-.08v.32h.48C66.16,37.35,66.08,37.27,66.08,37.19ZM67,76.84a1.48,1.48,0,0,1-.16-.56.66.66,0,0,0,.48.32v.24Zm.8-49.52h-.4c.16.08.24.16.4.24ZM68,76.52l-.32.08v-.4h.64Zm2.62.4-.15-.08h.39C70.77,76.92,70.77,76.92,70.61,76.92Zm.72-.32a2.54,2.54,0,0,1-.24-.72,1.75,1.75,0,0,0,.4.32v.4Zm2.07-.4c.08-.16,0-.24,0-.32h.32v.4C73.64,76.28,73.48,76.2,73.4,76.2Zm1,.87.15-.15a.28.28,0,0,0,.16-.08V76.6h-.55v-.4c.39.08.63.32,1,.4v.47Zm1.19-.23V76.6h.24v.24Zm1.51.08H76.9c-.08,0-.24-.08-.32-.08V76.6H77l.08.16.16.08A.28.28,0,0,1,77.06,76.92Zm-.24-2.71v.24H77Zm.4,2.07a.67.67,0,0,1,.56-.16c.32,0,.64.08,1,.08v.4A9.9,9.9,0,0,0,77.22,76.28Zm.88-33.75h-.24l.24.08Zm.32-16.8v.16h.15Zm.08,2.79V28.2h.07v.32Zm1.27,48.32V76.6h.08v.24Zm2.39-42.59v-.32h.24v.32Zm0,7.16v-.24h.16v.24Zm.08-4.93v-.32h.16l.08.32Zm.31-17.68v-.31h.08v.31ZM83,37.43v-.32h.08v.32Zm.24,39.41V76.6h.24v.24Zm.4-2.87.4.24C84,74.05,83.75,74.05,83.67,74Zm.24-57.24a1.56,1.56,0,0,1,.08.64A2,2,0,0,1,83.91,16.73Zm.16,58.43v-.31h.32l.07.31ZM84.31,77l-.16-.16.16.08.15.15Zm.87-57.56h-.32c.08.08.24.16.32.24Zm.24,54.29H85V74h.48Zm1,1a.17.17,0,0,0-.16.16H85.5c.16-.08.24-.16.4-.08.08-.08.24-.24.24-.32h.47Zm.39-2.15a.61.61,0,0,0,.4.16h.08C87.17,72.62,86.93,72.62,86.77,72.54ZM87.57,62h-.16v.32h.16Zm.24,7.4h-.24v.32h.24Zm0,8.36.16-.24v-.4h.32a.86.86,0,0,0,.24.56v.08ZM88.45,76l-.16.16v.08l-.24-.08L88,75.88h.56A.28.28,0,0,0,88.45,76Zm.39-11.14h-.63v.15h.71Zm-.55,9.87h.16l.08.39A.43.43,0,0,1,88.29,74.77ZM88.68,73h-.23v.32h.23Zm.8-6.05h-.64v.32h.64Zm-.08,3.83H89l-.08.31a.61.61,0,0,0,.4.16h.08Zm-.08-2.07H89V69h.32Zm0-7.89h-.24v.32h.24Zm.24,7.41h-.08a1.35,1.35,0,0,0,.4.16H90C89.88,68.32,89.72,68.32,89.56,68.24ZM89.88,67c-.08-.07-.16-.07-.32-.07l.08.39H90A.48.48,0,0,1,89.88,67Zm.4-.47h-.4l.08.4h.32Zm0,1.43c0,.16-.08.24-.08.32s-.16.08-.24.16v.32h.79A7.07,7.07,0,0,1,90.28,67.92Zm-.08-3.5v.24h.08Zm.08,2.47v.39h.08C90.36,67.12,90.36,67,90.28,66.89Zm.87,10V76.6h.24v.24Zm.4-7.81h-.16a1,1,0,0,0,.48.08C91.79,69.11,91.63,69,91.55,69Zm1-2.7c-.08-.08-.16-.16-.16-.24v.4h.23C92.51,66.49,92.51,66.41,92.51,66.33ZM94.65,55.1h-.31v.24h.31Zm.88-3.26h-.32c.16,0,.24,0,.32.08Zm-.24,7.8c0-.08-.08-.16-.08-.24h.24v.4Zm.88-38.45v.32c-.08.08-.16.16-.16.24h-.32l.16-.24.16-.4h.16Z"/><path d="M155.23,66.73v.47h.56c-.08.16-.08.24-.16.32s-.24.08-.4.08a3.34,3.34,0,0,1-.32.8c0,.16.32.4.4.48v.23h-.79v.72c0,.16.23.32.39.4V71c-.31,0-.63-.15-.95-.15a1,1,0,0,0,.4.79v.24h-.24a.76.76,0,0,1-.56.16c0,.32,0,.88.24,1.11-.32.48-.72.88-1.11,1.36h-.48c-.08.32,0,.79.32.87v.32c-.4,0-.88.08-1.36.08-.16.72-.24.56-.47,1.12-1-.32-.64-.72-2.08-.72a3.79,3.79,0,0,1-.63-.88,1.58,1.58,0,0,0-.8-.16c-.16,0-.4-.23-.56-.39l-.63.31c.16.4-.24.4.48.8a7.86,7.86,0,0,0,1.67.8c-.48,1-.8.24-1.28,1.11a3.82,3.82,0,0,0-1.35-.48,1.88,1.88,0,0,0-.64.16v-.24a.58.58,0,0,1-.08-.31c0-.16.08-.4.08-.64-.31,0-.47-.08-.79-.08v.24c-.4.16-.8.08-1.2.24,0,.08.08.24,0,.32l.24.23a2,2,0,0,1-.32.56.66.66,0,0,1-.47-.32c-.4.24-.4.72-.4,1.12-.16-.08-.16-.24-.16-.4a1.19,1.19,0,0,0-.72.16,3.9,3.9,0,0,1-.24-.56,3.71,3.71,0,0,1-1.83-.48.49.49,0,0,1,0-.47.75.75,0,0,0-.55-.16v.24a.08.08,0,1,1-.16,0v-.24a1,1,0,0,0-.64-.32c-.24,0-.4.16-.56.16a.54.54,0,0,1-.47-.72,1.56,1.56,0,0,0-.64.08l-.32.32c-.16-.48-.4-.72-.56-1.12-.4.08-.71.24-1,.32a1.89,1.89,0,0,1-.16-.63h-.64l-.08.55a1.14,1.14,0,0,1-.16-.47c0-.16.32-1,.32-1.2a6,6,0,0,1-1.19-.08h-.08l.08-.32.39-.08c0-.08-.07-.16,0-.23-.07-.24-.31-.32-.47-.4-.24.32-.64.79-1.12.79-.16,0-.87-.32-.79-.47h.08c0-.08-.16-.16-.24-.24-.4-1-1.83-1.12-2.79-1.12a1,1,0,0,1,.64-.32.67.67,0,0,1,.56.32H129l-.24-.24c.48-.47,1.36,0,1.91-.47h.08c-.31-.64-.79-.8-1.19-1.28l-.8.24v.16h-.23l.39.32a3.47,3.47,0,0,1-1.27.16,2.34,2.34,0,0,1,.72-.16v-.72h-.64v-.4a1.16,1.16,0,0,0-.56.16c-.87-.24-1.19-1.19-1.83-1.67v-.24h.8V67h.55a1,1,0,0,0,.08-.47,6.12,6.12,0,0,0-1.75-.24l.08-.16h.24c.32-.32.4-.24.8-.4l-.16-.24c.16-.16.4-.16.56-.24-.08-.39-.56-.55-.88-.63a5.55,5.55,0,0,0,.4-1V63.3h-.4c.16-.32.24-.32.24-.71h-.48v-.16c.24-.16.4-.4.64-.48h1.11v-.24h.24v-.64h-.79a1.12,1.12,0,0,1,.55-.79,1.75,1.75,0,0,0-1-.64s.16-.32.24-.32v.08a2.05,2.05,0,0,1-.16-.4.78.78,0,0,1,.55.56,1.75,1.75,0,0,0,.4-.32v-.71l.32.47a1.39,1.39,0,0,0,.24-.87,1.16,1.16,0,0,1,.16.56h1.35v-.56c.24.08.56.16.88.24a.56.56,0,0,0-.4-.32v-.4a1.75,1.75,0,0,1,.4.24h.55c-.08-.24-.15-.4-.39-.48a1.38,1.38,0,0,1,.31-.56v-.07a4,4,0,0,0,1.76.63l-.32.48a8.54,8.54,0,0,1,2.07-.4.7.7,0,0,0,.08.56v.08h.16v-.08h.24a5.51,5.51,0,0,0-.24-.64v.08c.08,0,.24-.4.24-.48h-.24a.29.29,0,0,0-.24-.08c-.16.08-.08.32-.32.32-.08,0-.32-.08-.4-.08v-.32a1.77,1.77,0,0,0-.64-.07,3.06,3.06,0,0,0-.79.07c0-.23.08-.39.08-.63l.48.24c.15,0,.23-.16.39-.24a3.26,3.26,0,0,1,.64.79c.08-.08.16-.16.24-.16v-.31c.16,0,.88,0,.88-.16s.39-.32.47-.4c.48.16.88.4,1.36.56V57H137v.48h-.55v.4H137c-.08.72,0,.64.24,1.27.72,0,1.43-.16,2.15-.16v-.31a1.83,1.83,0,0,1,.48.87h.4c.08-.56.16-.87-.48-.87,0-.24.08-.4.08-.56s-.16-.24-.16-.32.16-.24.24-.32l-.32-.32h-.48l-.32-.32c.48-.39,1-.15,1.52-.31-.08-.48,0-.48-.32-.48-.08,0-.16-.16-.24-.16a6.16,6.16,0,0,0,.32-1.67h-.8a1.43,1.43,0,0,1,.56-.4c0-1-.32-.56-.56-1.27.08-.16.32-.4.32-.56a.61.61,0,0,0-.16-.32.29.29,0,0,1-.24-.08v-.4l.4.4v-.16l.16-.16c-.08,0-.24-.16-.32-.24.16-.31.24-.08.32-.08s.24-.31.24-.47c0-.32-.32-.08-.56-.32v-.32a.86.86,0,0,0-.64.72h-.16v-.16h-.23c.08-.08.08-.24.15-.4s.24-.16.4-.16c-.24-1.43-.87-.64-1.43-1.67-.56,0-.72.16-.8.63H138v.08a7.07,7.07,0,0,1-1.83.56l-.08,1H136v.16c-1.28-.24-.64-1.28-1.83-1.28a1.88,1.88,0,0,0-.64.16v-.87h-.4a.61.61,0,0,0-.16-.4h-.32V47.7a4.94,4.94,0,0,1-.63-.4v-.87h-.48v-.24H131c0-.32-.08-.8-.47-.88-.08.08-.24,0-.32,0V43.64h-.64a1.75,1.75,0,0,1,.24-.4c.08-.16.08-.4.16-.63a1.32,1.32,0,0,0-.48.23,1.22,1.22,0,0,1-.48-1c-.16-.08-.47-.08-.63-.16h-.16a.17.17,0,0,1-.16-.16l.16-.08a1.83,1.83,0,0,0,.63-.16c-.24-.32-.16-.32-.47-.32s-.32-.55-.32-.63c0-.24.16-.32.16-.48s-.4-.48-.56-.56a.86.86,0,0,1,.64-.16v-.47a2.42,2.42,0,0,1-1.28-.4v-.64h1v-.08c-.8-.32-.4-.72-1.43-.56.08-.16.23-.32.23-.47a.17.17,0,0,0-.15-.16h-.16a.66.66,0,0,1-.48-.32.42.42,0,0,1,.32-.16c-.24-.88-.08-1.75-.32-2.63h-.32a10.66,10.66,0,0,1,.24-1.43h.56l-.16.4-.24.16-.08.23c.32-.07.56-.15.64-.39a1.41,1.41,0,0,1,.31.55h.32v-1a3.16,3.16,0,0,1-1.19-.24c0-.95.71-.16,1.11-1.35h-.63a.82.82,0,0,0,.15-.4c0-.16-.15-.32-.15-.48a.66.66,0,0,1,.15-.4h.48V28.6l-.48-.08a.62.62,0,0,1,.32-.32.77.77,0,0,0,.48-.72c-.16.08-.32,0-.48.16h-.32v-.8a2.84,2.84,0,0,0,.8.16v-.4l-.32-.23v-.64h.32V26a.61.61,0,0,0,.4.16c.08,0,.08-.08.24-.08a.61.61,0,0,1,.32.16c.71-.4.39-.56,1-1a.92.92,0,0,0-.64-1c0-.64.48-1,1.12-1a.61.61,0,0,0-.16-.4c.08-.16.16-.24.16-.31h-.16v-.32h-.08a.51.51,0,0,1-.24.39h-.56c.16-.15.48-.55.8-.55s.32.32.4.48c.55-.08.95-.32,1.43-.4l-.16-.24-.64-.16a.86.86,0,0,0,.16-.64h1.12c0-.08-.08-.24-.08-.32-.16,0-.24-.08-.4-.15v-.24a1.56,1.56,0,0,1,.64.08h1l-.48-.4.16-.24v-.24H133c0,.32.16.56.16.88h.8a1,1,0,0,1,.16-.64v-.24c2.15.64,1.51,1.51,2.31,3.18a.82.82,0,0,0-.4.64v.24h.48a.41.41,0,0,1,.15.32c0,.4-.71.08-.71.56a1.22,1.22,0,0,0,.48.79,2.21,2.21,0,0,1,.08.72h.63c-.16.16-.48.16-.63.24,0,.32-.16.55-.16.87s.31.16.31.4l-.07.32c-.08,0-.16-.08-.24-.08v.16a.61.61,0,0,0-.16.32.43.43,0,0,0,.4.4c.07.15.23.31.23.47l-.16.08a.07.07,0,0,1-.07.08c0,.16.39.32.47.4-.4.48-.47.4-.63,1a2.16,2.16,0,0,0,.63-.16h.32v.07c-.08.09-.24.24-.24.4a.28.28,0,0,1,.08.16.59.59,0,0,1,.48.16l-.64.24v.08h.16c0,.08.08.08.16.08a.61.61,0,0,0,.4-.16c.64.16.56.32.87.64,0,.16,0,.63-.15.71v.4h-.24c0-.16,0-.32.16-.4-.32,0-.72-.08-1.12-.08v.32a.61.61,0,0,0-.32.16c.08.24.24.4.32.64.08,0,.32-.08.4-.08a.28.28,0,0,1,.08-.16h.87l-.39.32.08.4.31.16a1.09,1.09,0,0,1-.39.63v.56a1.1,1.1,0,0,1,.24.32h.39c.16-.4.32-1,.8-1a6.72,6.72,0,0,1,1,.32,1.19,1.19,0,0,1-.56.08c0,1.51.24.64.63,1.67v1.12c.16.16.4.24.56.4v.47c.56.8,1.83.64,2.07,1.67h.56c-.16.32-.08.56-.24.88.16,0,.4,0,.48.16,1.27.24.48,1.59,2.15,2-.08.08-.08.16-.24.16l.24.24c0,.08.16.4.24.4a.29.29,0,0,1,.07-.16c.08,0,.32.08.32.16v.63h.72c.32.72.4,1.44,1.43,1.59a1.22,1.22,0,0,1-.63.32.48.48,0,0,0-.08-.32h-.48a3.69,3.69,0,0,0,2,2l-.08.64h.56v.32h.32l-.08.32a2.72,2.72,0,0,1-.8-.08c0,.08-.08.16-.08.32a1.35,1.35,0,0,1-.4.16l-.08.39h.88v-.55c.16.16,0,.32,0,.47,0,.72.63.4.87.72v.64h.32a.62.62,0,0,1-.32.32.39.39,0,0,0,.16.31h.08c0,.4-.32.64-.32,1a.48.48,0,0,0,.08.32l.4.16-.16.32h.16c.08.08.08.08.16.08a9.38,9.38,0,0,1,.88-.4.83.83,0,0,0,.39.08c-.15.16-.31.24-.47.39h-.32a.42.42,0,0,0,.32.16l-.08.24a2.35,2.35,0,0,0-.8-.24,4.73,4.73,0,0,1,.4,1.52l.56-.32c.24.24.55.32.79.56-.24.15-.08.23-.4.39v.32a2.06,2.06,0,0,0-.79-.64V57h-.16v.48h.4l-.32.32a1.56,1.56,0,0,0-.08.56h.56l-.08.79h.87a3.1,3.1,0,0,1-.48.88v.48l.32.24h.4v-1h1a.75.75,0,0,1,.55.4,1.53,1.53,0,0,1-.55.87c0,.08.23.4.31.4s0-.08,0-.08c0-.16.16-.16.24-.24,0,.24.08.48.08.72,0,.08-.08.24-.08.32a1.23,1.23,0,0,0,.32,1.27h.88l-.08.48c-.16,0-.4,0-.48.16h-.4c.08.4.24.24.4.48a5.62,5.62,0,0,0-.48,1,1.45,1.45,0,0,1,1.12.48A3.14,3.14,0,0,1,155.23,66.73Zm-29.29-7.49a.73.73,0,0,1-.56-.24h.56Zm-.56,1.52.24.31Zm1.2-27-.16.24h.16c0,.16.15.32.23.32h.08c.08-.08.16-.08.16-.16S126.65,33.85,126.58,33.77Zm.63,32.88a1.19,1.19,0,0,1-.48-.08c.16.16.4.39.56.39C127.29,66.89,127.21,66.73,127.21,66.65Zm0,.79c-.16,0-.32-.08-.48-.08v.4h.56A.48.48,0,0,1,127.21,67.44Zm.16,1.12c-.08,0-.16-.16-.24-.16a1.14,1.14,0,0,1,.16.48h.24A.61.61,0,0,0,127.37,68.56Zm.32-26.83h-.16v-.4h.16Zm.87-17h-.15v.24l-.56-.32h.71Zm.16,14.73c-.08,0-.23-.08-.31-.08l-.08.4H129C128.88,39.66,128.8,39.5,128.72,39.42Zm-.23,1-.16.31h.16c.07.08.15.16.23.16h.08a.17.17,0,0,0,.16-.16C129,40.62,128.56,40.38,128.49,40.38Zm1.11,16.79c-.24-.08-.56-.16-.64-.39a1,1,0,0,1,.64.23Zm.24-32.48c-.08.08-.16.16-.16.24h.16l.16.24c.08,0,.08,0,.08-.08A.68.68,0,0,0,129.84,24.69Zm1.35,31.85v.24H131l.24-.56c.08.08.08.08.08.16ZM131,70.79V71h1.2v-.23ZM134.46,20v.32c-.16.08-.32.24-.32.31H135V20Zm.08,49.91a.39.39,0,0,0,.31.16L135,70h.16v-.08Zm.15-12.74a1.14,1.14,0,0,0,.16.48,1.75,1.75,0,0,0,.4.24c0-.16.08-.32.08-.48A.91.91,0,0,0,134.69,57.17Zm1.2-40.91h-1.12l.32-.48a2.4,2.4,0,0,0,.8.32Zm0,53.65c-.08.08-.24,0-.32,0v.32h.56A1.1,1.1,0,0,1,135.89,69.91Zm.24,1.91a.61.61,0,0,1-.32-.16v.48h.4C136.21,72.06,136.13,71.9,136.13,71.82Zm-.08.72a6.05,6.05,0,0,0-.24.63h.4v-.08C136.21,72.94,136.21,72.62,136.05,72.54Zm.56,1.11h-.8c.16.32.16.48.48.48a.61.61,0,0,1,.32.16h.23A4.21,4.21,0,0,1,136.61,73.65Zm2.3-30.25.24-.4c0,.16.4.16.48.16v-.79l-.56-.24c-.16-.32-.08-.24-.08-.48,0-.08-.4-.24-.4-.32v-.08l-1,.24a10.13,10.13,0,0,0,.88,1,2.47,2.47,0,0,1-.8.08,1,1,0,0,0-.08-.48V42h-.32a11.78,11.78,0,0,1-.4,2.31h-.63v.87h.63a1.25,1.25,0,0,1-.47,1.12c.24.32.39.48.79.48.08,0,.08.07.08.15s-.08.32-.08.48a3.3,3.3,0,0,0,1.2-.56c0,.08.08.16.08.24s.23.08.31.08a2.84,2.84,0,0,0-.08-.39v-.08c.08,0,.16.08.24.15v.32h.4c.08-.08.16-.24.24-.32,0-.71-.24-1.19-.24-1.83a.44.44,0,0,0,.4-.24c.08,0,.08-.07.08-.15C139.87,44.36,139.15,43.56,138.91,43.4Zm-1.75-11.14a.4.4,0,0,0-.24-.08l-.16.24.4.23A.63.63,0,0,1,137.16,32.26Zm1.59-15.53v.16h-.08v-.63h-1.83V16h.32v-.24a2.26,2.26,0,0,1,1.75.48C138.91,16.42,138.91,16.65,138.75,16.73Zm.16,28h-.55v-.47l-.72.24h-.56c.08-.08.08-.32.08-.16l.24-.08a2.42,2.42,0,0,1,.72-.24l.16.08c.08.16.47.16.63.16Zm-1.11,6.61-.24-.16a.81.81,0,0,0,.24.08l.32.16Zm-.16-19.5v.4a1.76,1.76,0,0,1,.64-.08h.16Zm.08,6.37v.4c0,.31.32.55.48.71l.39-.16c.08-.08.16-.24.24-.32A7.41,7.41,0,0,1,137.72,38.23Zm.64,16h-.16a1.14,1.14,0,0,1-.48-.16h.64Zm-.48,23.08-.16.16v-.24c.16,0,.24,0,.32.08Zm.24-18.07v.56h.4C138.52,59.64,138.28,59.4,138.12,59.24Zm.24-11.46a.72.72,0,0,0,.08.4v.16h.39c.08-.16.08-.32.16-.4v-.16Zm.79,9.71a1.19,1.19,0,0,0-.56.08c-.07,0-.23-.08-.23-.16h.79Zm-.48-26.19-.23-.32h.23ZM138.75,76c0-.08-.08-.16-.16-.24,0,.16,0,.4-.15.48h.39A.81.81,0,0,1,138.75,76Zm.24-1h-.4l.4.32.16-.08Zm-.16-35.26a.42.42,0,0,1-.16.32c0,.08.08.16.16.24v.08H139v-.08h.08A.86.86,0,0,0,138.83,39.82Zm.72,36a5.6,5.6,0,0,0-.64.8H139v-.08c.24,0,.64.55.8.71h.4l.16-.31A1.44,1.44,0,0,0,139.55,75.8Zm17.2-42.91c0,.32.23.56.15.88h-.23a1.16,1.16,0,0,1,.15.56c0,.47-.31.55-.31.71a.84.84,0,0,0,.16.4v.24h-.8V35.2h-.8v.32a2.42,2.42,0,0,0-.63-.16l-.24.08c-.24.24-1,.24-1.36.24,0,.4-.08.88-.08,1.27a1,1,0,0,1,.48.08h.32c-.16.24-.16.48-.32.64-.16,0-.55,0-.55-.24s-.24-.32-.4-.4l.08-.08h-.16a10.61,10.61,0,0,0-1,2.15c-.79,0-.71.24-1.35.48a1.56,1.56,0,0,0,.08.64v.16c.08-.08.24-.16.32-.24v-.32h1.19v-.24h.24v.64l-.8-.24v.4a3.8,3.8,0,0,1-1.91.31c.16.4.08.4.4.64l-.24.16c-.4-.32-.56-.64-1.11-.64h-.4l-.08.16h-.4c-.08-.16-.08-.24-.16-.32-.4,0-.16.4-.4.4a7,7,0,0,0-1.35-.63.44.44,0,0,0,.4-.24V40c0-.16-.32-.48-.4-.64a2.15,2.15,0,0,0,.16-1l-.24-.08a3.54,3.54,0,0,0,.4-1.2,1,1,0,0,0-.08-.47,19.18,19.18,0,0,1-.56-2h-.39c0-.4.31-.32.31-.56s-.16-.48-.16-.72h-.39v-.87a3.25,3.25,0,0,1-.64-1.91c-.4-.16-1-.08-1.35-.4-.24-.16,0-.64-.8-.64-.48,0-.87.24-1.27.24-.16,0-.24-.08-.32-.08a6.57,6.57,0,0,1-.08-1.75h-.56l.24-.24c.08.08.24,0,.32,0a12.27,12.27,0,0,0,.16-3.82,3.39,3.39,0,0,0,.48-1.12.28.28,0,0,1-.08-.16H140c.08-.15.16-.39.24-.55l.08.08v.08h.08v-.56l-.4.08.08-2.79c.4-.16.87,0,1.35-.24a1.14,1.14,0,0,1,.16-.47.42.42,0,0,1,.32-.16c.24,0,.56.24.87.24a4.46,4.46,0,0,1,1.28-.56.28.28,0,0,1,.16.08.66.66,0,0,0,.32.48H145c.08-.32-.08-.64-.08-1l.56-.56a3.64,3.64,0,0,1-1.43-1.51h-.16a2.48,2.48,0,0,0,.48,1v.24h-.08v.15H144V16.5h-.48l.24.23v.4h-1v-.4h-.15a2.52,2.52,0,0,0-1.2.64h-.79a.55.55,0,0,0,.31-.48c0-.32-.31-.39-.47-.63-.16,0-.4.08-.64.08s-.48-.08-.64-.08v-.48a1,1,0,0,0,.64.32c.87,0,1.11-1.12,1.11-1.75.24.08.32.08.32.31,0,.08.16.08.24.08a.6.6,0,0,0,.4.08c.24,0,.16-.08.16-.24h.08c.08,0,.32.32.4.4.47,0,.95-.08.95-.63.32-.16.72-.08,1.12-.24l-.32.24v.79a1.33,1.33,0,0,0,.79-1c.32.08.64.32,1,.39a5.51,5.51,0,0,0-.24.64C147,14.9,147,14,148,14a1.61,1.61,0,0,1,.87.32,3.61,3.61,0,0,0,.88-.24l.16.16a.81.81,0,0,0,.24.08c-.16.15-.32.39-.56.39s-.32-.24-.56-.24-.47.4-.55.64h-.08v.32l.23-.24h.56c-.16.32-.4.48-.56.8h-.71a1.16,1.16,0,0,0,.16-.56h-.24a.42.42,0,0,1-.16-.32,1.48,1.48,0,0,1,.16-.56c-1,.24-.56.48-1.2.88,0,.08.08.24.16.24a1,1,0,0,1,.48-.08l-.4.4c.16.32.08.4.4.71v.4c-.4,0-1,0-1.19-.4-.16.08-.24.16-.4.24.08.08,0,.24-.08.32h1.27c-.08.16-.24.56-.47.56s-.24-.16-.4-.16-.16.08-.24.08v.4a.81.81,0,0,1-.56.32,3.82,3.82,0,0,1-.95-.08v.23h.16c.31.32.79.32,1,.64h.24c.4,0,.16-.4.48-.4.55,0,.24.72,1.11.72.4,0,.24-.4.64-.4a.6.6,0,0,1,.4.08v.24h2.23a.48.48,0,0,0,.71.48,1.07,1.07,0,0,1,.24.4,1.74,1.74,0,0,0,1.51-.48,1.18,1.18,0,0,0,.48.4,1,1,0,0,1-.48.08v.79a1.14,1.14,0,0,0,.48-.16h.16c0,.48-.24.64-.72.64a1.77,1.77,0,0,0,1.91,1.11,2.32,2.32,0,0,1-.71.56c.08.08.24.4.4.4s.55-.16.79-.16v.08c-.24,0-.48.16-.79.16a1,1,0,0,0,.08.48,2,2,0,0,1,.47.31h-.32a.8.8,0,0,1-.63-.39h-.4c.48.47.64.79,1.35,1-.16.08-.32.08-.39.16.47,1,2.46,5.1,2.46,6.13C157.14,32,156.75,32.5,156.75,32.89Zm-17.52,1a.6.6,0,0,0,.4.08A.6.6,0,0,1,139.23,33.93Zm.48,13.77c-.08,0-.08.08-.16.08h-.32v.56c.32,0,.48.08.72.08H140l.08-.64A3.46,3.46,0,0,1,139.71,47.7Zm-.4,25.24v.63h.4v-.63Zm.4,1.19c-.08.16-.08.32-.16.4.08.08.4.08.56.16v-.56Zm.4-36.94a1.18,1.18,0,0,1-.4.48v.16a1.66,1.66,0,0,0,1-.4Zm.24-17.91a1.14,1.14,0,0,0,.16.48v.16h.39v-.48A1.44,1.44,0,0,1,140.35,19.28ZM141,56.85a.64.64,0,0,1-.47.32v.32h.07a2.72,2.72,0,0,0,.8-.08.61.61,0,0,1,.16-.4A2,2,0,0,1,141,56.85Zm0-42.11a2,2,0,0,0,.08.72h.16v.16h.24A1.91,1.91,0,0,0,141,14.74Zm.4,43.71-.08-.08H141l.24.24c.16-.08.24,0,.32.08C141.46,58.61,141.38,58.53,141.38,58.45Zm-.08,16.63a.86.86,0,0,0-.16.64h.24A1.38,1.38,0,0,0,141.3,75.08Zm.64,1.76a2.43,2.43,0,0,0-.56-.4,2.66,2.66,0,0,0,.24.48h.48v-.08Zm.48-58.51a.6.6,0,0,1-.4-.08c-.16.16-.16.39-.32.55a1.48,1.48,0,0,1,.56-.16v.24a1.29,1.29,0,0,0,.55-.08h.08C142.81,18.33,142.81,18.33,142.42,18.33Zm-.72,55.72a2.81,2.81,0,0,0,.4.64h.24v-.64Zm.8-44.42V30h.16C142.58,29.87,142.58,29.79,142.5,29.63Zm.31,45.77c-.08,0-.23-.08-.31-.08v.4h.55C143,75.64,142.81,75.56,142.81,75.4Zm.16,3c.16.08.24.08.4.16C143.21,78.51,143.13,78.51,143,78.43Zm.4-16.64v.48h1v-.48Zm.16-43.62h-.08v.24H144v-.16C143.93,18.17,143.69,18.17,143.53,18.17Zm.4,59.78v.24c-.08-.08-.24-.16-.32-.24a1.75,1.75,0,0,0,.32-.4c0,.08.08.16.08.24Zm1.59-62.73v.4h.16C145.6,15.46,145.6,15.38,145.52,15.22Zm.56,61.54a.29.29,0,0,1-.24-.08v.55h.4C146.16,77.07,146.16,76.92,146.08,76.76Zm.55-62.49a.62.62,0,0,1-.31-.16h.55C146.79,14.19,146.71,14.27,146.63,14.27Zm.4,4.29-.24-.15a.81.81,0,0,1,.24.08l.16.15Zm.56-2.62-.16-.16s.16.08.16,0l.24.24A.81.81,0,0,1,147.59,15.94Zm.4,1.91a.4.4,0,0,0-.24.08v.32h-.24a5.51,5.51,0,0,0,.24-.64h.32A.81.81,0,0,1,148,17.85ZM148.07,45a1,1,0,0,1-.56-.31,1.54,1.54,0,0,0,.56.07Zm.16-28.57a.61.61,0,0,1-.4-.16h.79C148.47,16.34,148.39,16.42,148.23,16.42ZM148.86,78a4.51,4.51,0,0,1-.79-.48H148l.24-.24a1,1,0,0,1,.39.24l.24.08Zm-.24-8v.56h.8V70Zm1.76-53.26h-.88c.08-.08.08-.16.16-.23h.72ZM149.9,76c0-.08-.08-.16-.16-.24l-.16.24.4.24A.81.81,0,0,1,149.9,76Zm.48-60.42h-.16v.16h-.4v-.32h.56Zm0,37c-.08.08-.24,0-.32-.08a.39.39,0,0,1-.16.31c0,.08.08.16.16.24v.08h.16v-.08c.08-.16.24-.16.4-.24ZM151.17,15h-.95c.16-.32.24-.55.4-.87a1.89,1.89,0,0,1,.39.24c0,.08.08.23.16.23Zm.08,41a1.48,1.48,0,0,1-.55.4v.4a1.53,1.53,0,0,0,.79-.4h.24l.08-.16Zm-.32-14.09c-.08-.16-.08-.24-.16-.4v-.16a.29.29,0,0,0,.24.08l.16-.08c.08,0,.24.48.24.56Zm.24-6.21c0,.16.08.4.24.4h.16v-.4Zm.88,5.25a.48.48,0,0,0-.32.08l-.24-.32v-.31c.08-.08.16-.16.24-.16.24,0,.32.24.56.24s.24-.16.4-.24a1.74,1.74,0,0,1,.07.63l.08.16C152.53,41,152.29,40.93,152.05,40.93Zm0-24.51a1.14,1.14,0,0,1-.48-.16h1A1.14,1.14,0,0,1,152.05,16.42Zm-.24,19.5v.24h.24ZM153.08,59h-.24c.08,0,.08-.08.08-.15,0-.32-.23-.48-.23-.8a.61.61,0,0,1,.15-.4h.24Zm-.16-36.22c.24.4.88.4,1.2.4v-.4Zm.72-8a1.36,1.36,0,0,0-.56-.08c.16-.16.4-.08.56-.24h.24C153.8,14.58,153.8,14.74,153.64,14.82Zm-.4,25h-.16v-.24h.16Zm.24.64h-.24v-.24h.24ZM154,69.35l-.16-.08v.48h.24A3.46,3.46,0,0,1,154,69.35Zm0-48.72.24.32Zm1.35,17.6h-.24v-.16H154c.24-.4.24-1,.48-1.36h.39a1.23,1.23,0,0,0,.48,1.12Zm-.56,20.69-.55-.55a.61.61,0,0,1,.4.16h.15Zm1.84-22c-.08,0-.48-.08-.48.08h.4c-.16.4-.08.72-.24,1h-.16v-.24h-.4c.16-.24.08-.08.24-.08s.16,0,.16-.08l-.08-.32-.4.08a2.47,2.47,0,0,1,.16-.64c.16.08.24.08.32.16l.08-.79c.08.16.24.16.4.32Z"/><path d="M180.31,26.21l-.48.24c.08.23.16.08.24.08h.16c-.16.23-.32.15-.4.39,0,.64.24,1.28.24,1.91v.4c-.08.08-.4.08-.4.16s0,.16.08.16h.08a4.52,4.52,0,0,1,.08,1,.79.79,0,0,1-.64,0,1.67,1.67,0,0,0,.56,1c0,.4-.24.48-.24.8l.16.16v.31h-.4l.48.24a2.09,2.09,0,0,0-.24.64,1.34,1.34,0,0,1,.24.72c0,.39-.24.31-.24.47s-.08.16-.08.24c0,.32.24.72.24,1s-.16.47-.16.71.32.32.48.48c-.08.24-.24.24-.24.56h-.48l.16.16a.81.81,0,0,1,.24.08c-.08.08-.16.24-.24.32l-.24.23v.72h.32a.6.6,0,0,1,.08.4c0,.32-.4.24-.4.48a.81.81,0,0,0,.08.24V41h-.08v-.16h-.16v.56h.64a2.54,2.54,0,0,1-.4.48,1.36,1.36,0,0,0-.08.56c0,.47.32.87.32,1.27,0,.64-.32.64-.72,1a4.92,4.92,0,0,0,.72.55,5.52,5.52,0,0,0-.32.8.81.81,0,0,0,.08.24v.32a1.21,1.21,0,0,1-.79,1.43l.07.24h.72a2,2,0,0,1,.08.63,1.19,1.19,0,0,1-.56,1.2c.24.08.56.48.72.48a.58.58,0,0,1,.16.31c0,.16-.16.8-.32.56h-.08c-.08,0-.08.24-.08.32h.32a1,1,0,0,1,.16.64,2.17,2.17,0,0,1-.16,1V57a4.51,4.51,0,0,0-.32,1c0,.4.32.32.32.72l-.32.31v.48c0,.64.32,1.28.32,2h-.08V63h-.32v.48h.32c.16.32,0,1,0,1.36s.24.71.24,1c0,.56-.4,1-.4,1.27s1,1.36,1,2.15a10.89,10.89,0,0,1-.4,2.23c0,.4.24,1,.24,1.83a5.28,5.28,0,0,1-.08,1.12,10,10,0,0,1-2.47.79c-.24.24,0,.64-.88.64s-1.59-.88-2.3-.88c-.32,0-.56.32-.88.32s-.56-.32-1-.32c-.71,0-1.35.48-2.14.48-2.23,0-1.76-.63-1.76-2.23,0-.47.08-1.59-.39-1.75a.61.61,0,0,1,.39-.16c0-.47-.08-1-.08-1.59l.08-.08v-.48a.64.64,0,0,0-.15-.31l.55-.4-.16-.16a1.52,1.52,0,0,0,.4-.8,1.46,1.46,0,0,0-.4-.79c0-.24,0-.56.32-.56.08,0,.08-.08.08-.16v-.24a.72.72,0,0,0-.4-.08c0-.56.4-.32.4-.64V64.9l-.48-.16c-.08-.08-.08-.08-.08-.16s.16-.32.16-.48a.6.6,0,0,0-.08-.4,10.76,10.76,0,0,0,.48-2.31c0-.79-.64-1.27-.64-2,0-.08,0-.24.16-.24a.61.61,0,0,0,.32-.16,1.05,1.05,0,0,1-.16-.47c0-.32.16-.64.16-1-.08-.16-.08-.48-.24-.64.16-.47.08-1,.24-1.43h-.32c-.08,0-.08-.08-.08-.16l.08-.24c.08,0,.08-.08.08-.16a1.66,1.66,0,0,0-.08-.31c.08-.64.56-1.12.56-1.68,0-.71-.48-2.7-.48-3.34,0-.48.4-.64.4-1v-.24h-.4a.6.6,0,0,1-.08-.4c0-.4.48-.4.48-.88V46.9l-.4-.23c.16-.32.08-.56.24-.88a1,1,0,0,1-.48-.08v-.16c0-.16.4-.48.48-.64,0-.39-.24-.63-.24-1a.8.8,0,0,1,.4.32h.08c-.16-.48-.56-.72-.8-1.12h.08c.08,0,.08-.08.16-.16,0-.31-.16-.55-.16-.87.16-.32.56-.64.56-1l-.08-.08a.59.59,0,0,1-.48-.16c0-.47.08-1,.08-1.51a.48.48,0,0,0-.08-.32h-.23v-.08c.15-.23.39-.47.39-.71,0-.48-.39-.4-.39-.72v-.24h.39v-.08c0-.32-.55-.4-.55-.71l.08-.08h.31c.08-.16.16-.24.16-.4,0-.4-.39-.64-.39-1a1.24,1.24,0,0,0,.31-.63.81.81,0,0,0-.08-.24c-.08-.16-.55-.4-.55-.56l.08-.16h.24v-.48a1.1,1.1,0,0,1-.32-.24h.08c.08,0,.16-.07.24-.07l.23-.48c-.15-.16-.47-.16-.47-.4v-.16h.24v-.48h-.08V31h.31c-.15-.55-.15-1-.31-1.51a1.76,1.76,0,0,0,.08-.64c-.08-.08-.24-.08-.32-.16v-.15h.55v-.8a1.06,1.06,0,0,0-.79.48h-.24c.32-.32.24-.48.72-.56a1,1,0,0,0-.48-.64v-.08h.56a13.36,13.36,0,0,0-.24-1.75h-.32a.42.42,0,0,1-.16-.32c0-.31.32-.47.48-.63l-.56-.56h-.24v-.08c.88,0,.64,0,1.27.48a1.75,1.75,0,0,1,.24-.4v-.48h-.47l.47-.16c0-.16,0-.4-.08-.48a1.51,1.51,0,0,1-.63.08c.08-.23.47-.87.47-.95s-.23-.32-.31-.4c.08-.08.16-.16.16-.24h.31a2.36,2.36,0,0,0-.16-.55c0-.08.08-.16.16-.24a.94.94,0,0,0-.63-.16v-.32a.9.9,0,0,0,.63-.56h.32l-.16.16-.16.08v.64h.08a5.68,5.68,0,0,1,.8-1.12v-.24h.4v.08h.24a1.07,1.07,0,0,1,.95-.39,1,1,0,0,1,.8.31c.16-.08.32-.08.47-.16s0-.23.09-.39a2.89,2.89,0,0,1,1,.39,1.12,1.12,0,0,0,.48-.15.94.94,0,0,1,.48.15c.23-.07.47-.39.79-.39a.87.87,0,0,1,.4.08v.31c.08.16.32.16.48.16a1.49,1.49,0,0,0,.87-.31c.08,0,.16.08.24.15v.24h.72v.4c.32-.16.71-.08,1-.24l.16.32h.32v.4h.48c.16.4.08.88.24,1.35h-.08v1c-.08,0-.08.08-.16.08S180,22,179.91,22s-.08.24-.08.32a5.64,5.64,0,0,1,.64,1.19.08.08,0,0,1-.08.08c0,.4-.4.32-.4.72a.57.57,0,0,0,.08.39c0,.4.4.48.4.8A2.34,2.34,0,0,1,180.31,26.21Zm-12.66,5.17v-.32h.24v.32Zm.8-6.92c-.08.15-.16.39-.32.47.08.16.16.4.24.56h.47C168.84,25.17,168.76,24.61,168.45,24.46Zm-.08,11.46V36h-.24v-.24h.32v.16Zm.79-6.05h-.32v.24h.32Zm.24,13a.28.28,0,0,0-.08.16v.08c0,.08.08.24.16.24s.16-.08.16-.16A1.1,1.1,0,0,0,169.4,42.84Zm0-24.28v-.31h.24v.31Zm1.27,29.78h-.31v.4h.31ZM172,50.41c-.08,0-.16-.08-.32-.08l-.08.32-.32.15v.32a2.23,2.23,0,0,0,.8-.47h.08A.3.3,0,0,1,172,50.41Zm-.4,1.51h-.32l.32.16Zm.08-3.58h-.32c.08.16.08.4.24.47v.24h.08Zm1-2.15h-.32l.08.4-.08.47c.23-.08.39-.16.39-.47S172.67,46.35,172.67,46.19Zm-.09-1.44v.4h.09A.65.65,0,0,0,172.58,44.75Zm.32-.31-.08-.08c-.08,0-.15.16-.15.24v.08l.07.07a.29.29,0,0,0,.16-.07Zm.16,6c-.08,0-.16-.08-.24-.08v.32h.48Q173.18,50.65,173.06,50.41Zm.56-4.7a.6.6,0,0,0-.4-.08h-.08c0,.08-.08.16-.08.24a1.48,1.48,0,0,0,.56.16Zm-.24,2.15a.29.29,0,0,1-.24-.08c.16.16.32.16.48.24C173.54,47.94,173.46,47.86,173.38,47.86Zm-.24,7.32v.32h.16C173.22,55.42,173.22,55.26,173.14,55.18Zm1-8.75h-.48v.63a1.16,1.16,0,0,0,.56-.16h.16v-.08A.42.42,0,0,1,174.1,46.43Zm.56-1.44h.07v-.16l.08-.39h-.23a1.12,1.12,0,0,1-.72.24,3.64,3.64,0,0,0,.8.71v.24h.15v-.24h.08C174.89,45.23,174.66,44.83,174.66,45Zm-.48-3.34v.24h.16Zm.24,1.11c-.08,0-.16-.07-.24-.07v.47h.16v-.24h.24Zm.24,4.14h-.08v.64a1.17,1.17,0,0,1,.71.16.6.6,0,0,0,.08-.4v-.08C175.13,47,174.89,47.22,174.66,46.9Zm1,3.35c-.08-.08-.24-.08-.32-.16h-.4c.16.32.24.56.64.56h.08Zm.16-1h-.4v.32h.4Zm.48-1.83V47.3c0,.08-.24-.08-.24-.08v.16c-.08,0-.16.16-.16.16v.16c.16-.08.24-.08.32-.16h.16Zm.32.72a2.16,2.16,0,0,1-.72,0,2.49,2.49,0,0,0,.32.48l.4.16.23-.16C176.8,48.5,176.72,48.1,176.57,48.1Zm-.4.95h-.32c.16.08.24.08.32.16Zm.63-3.26-.23.24v.4a.82.82,0,0,1,.55-.24Zm.48,3.42h-.4a.28.28,0,0,1,.08.16l.16.16v-.24h.16Zm-.16.4c-.08.16-.08.4-.24.48.24,0,.32.16.48.16s.16-.08.24-.16C177.36,50,177.28,49.77,177.12,49.61Zm.48,1.83h-.32v.24h.32Zm.16-4.54h-.4l.16.16c.08-.08.16,0,.24,0Zm.08,1.2h-.48l.16.4.24.24v.07h.32c.08-.15.08-.31.16-.47C178.08,48.34,178,48.1,177.84,48.1Zm0,2.55c-.16,0-.24-.08-.4-.08h-.08v.55h.4V51a.28.28,0,0,1,.08-.16Zm-.08-8.92-.16-.08v.64h.16a.72.72,0,0,1,.08-.4Zm.56.08c-.08,0-.08.08-.16.16h-.08v.32h.48Zm-.24,3.82v.16h.16Zm.48.64c-.08.08-.24.08-.32.16v.32h.55C178.71,46.59,178.63,46.43,178.56,46.27Zm.15,22.45h-.39a.5.5,0,0,0,.39.39Zm-.08-19.91v.4c.08,0,.16.08.24.08A.69.69,0,0,0,178.63,48.81Zm.56,10.59c-.16-.16-.4-.16-.48-.32,0,.16.16.48.08.56h.4Zm-.08-32.24h-.32c.08,0,.08.08.16.08h.16ZM178.79,32v.32h.08C178.87,32.18,178.87,32.1,178.79,32Zm.32,6.76h-.32V39h.32Zm11.15,4.94a5.62,5.62,0,0,1,.08,1.11c0,.8-.32,1.52-.32,2.23,0,.24.16.4.16.64a.61.61,0,0,1-.16.4h-.32c-.08.24-.24.4-.24.64s.4.07.56.47c0,.72-.32,1.52-.32,2.23a4.11,4.11,0,0,1-.8-.32c-.08,0-.23.08-.23.16h-.4a2.49,2.49,0,0,0,.48.32v.08c-.24,0-.32-.08-.56,0h-.64a.61.61,0,0,0,.16-.4,3.6,3.6,0,0,1-1-.48V51h-.08c.08.24.24.24.4.4v.16h-.24a.08.08,0,0,1-.08.08c-.08,0-.31-.32-.31-.4a3,3,0,0,0-.88.4h-.48l.24-.64a2.27,2.27,0,0,0-1.27-.24v.64a1.67,1.67,0,0,1-.48-.32c-.08.08-.16.24-.24.32a1.36,1.36,0,0,1-1-1.11,1,1,0,0,0,.47-.08l.16-.08a.38.38,0,0,1,.4.4h.24c-.16-.8-.56-.88-1.27-1v-.24l.47-.08c-.23-.4-.55-.4-.55-1,0-.24.16-.4.16-.56s-.08-.24-.16-.4c.08-.08.32-.08.4-.08,0-.32.15-.55.15-.79a.41.41,0,0,1-.31-.16v-.08h.16c.08-.08.15-.24.23-.24h.08c.16,0,.24-.24.32-.32a.51.51,0,0,0-.48,0v-.88l-.47-.07a8.91,8.91,0,0,0,.16-1.36c0-.16-.24-.4-.24-.48a10.29,10.29,0,0,0,.87-1.19h1.2v.24h.16a.29.29,0,0,0,.24.08c.47,0,.87-.32,1.35-.32a.83.83,0,0,1,.63.16h.16v-.4a1.75,1.75,0,0,1,.4.24h.32l.24-.32c.4,0,.4.48.64.48l.24-.16v-.32a1.19,1.19,0,0,1,1,1h.48v.79l.32.16C190.42,43.4,190.42,43.64,190.26,43.72Zm1.91,24.92c-.16,0-.24.08-.4.16,0,.23.24.47.24.71s-.24.4-.32.64c.16.08.4.24.4.48s-.24.47-.32.71a1.58,1.58,0,0,1,.16.88c0,.48-.24,1-.24,1.51a2.46,2.46,0,0,0,.24,1l-.72.47-.24-.08-.08-.39c-.23.16-.39.23-.63.39a2.34,2.34,0,0,0-.72-.16h-.79l-.08.16h-.16c-.08-.16-.08-.39-.24-.47l-.72.31c-.08-.07-.08-.23-.24-.31a1.06,1.06,0,0,0-.56.31,17.67,17.67,0,0,0-1.91-.31c-.15,0-.39-.08-.39.24-.08,0-.16-.08-.24-.16h-1.75c.08-.16,0-.32,0-.48v-.4c.08-.16.39-.32.39-.48a.28.28,0,0,1-.08-.16l-.31-.16c0-.39.24-.71.24-1,0-.48-.4-1-.4-1.51s.55-.72.79-.88v-.4c-.32,0-.32-.16-.63,0v-.16h-.16a5.17,5.17,0,0,1,.79-2.15c-.08-.07-.16-.07-.24-.15l-.39.15c0-.23-.08-.47-.08-.71s0-.24.08-.32a.29.29,0,0,1,.24-.08h.07a.29.29,0,0,0-.07.16c0,.08.31.24.39.24V66h.16v-.56c.72,0,.72-.48,1.2-.48.79,0,1.67.24,2.54.24a.29.29,0,0,1,.24.08v.4c.16,0,.24-.16.32-.24h.16l.08-.08a.08.08,0,0,0-.08-.08h-.4v-.08h1a.29.29,0,0,1,.08.24h.32a.29.29,0,0,1,.08-.24h1c.24,0,.48.08.72.08s0-.32.39-.32.48.56,1,.32a6.17,6.17,0,0,1-.16,1.75,2.8,2.8,0,0,1,.48,1.12A1,1,0,0,1,192.17,68.64Zm-.48-42h-.16V28c0,.08-.08.16-.24.16a1.34,1.34,0,0,0-.08.55c-.32.08-.63.08-1,.16v.24c-.16,0-.32-.08-.48-.08-.32,0-.72.24-1,.24s-.64-.32-1-.32a1.16,1.16,0,0,0-.56.16s-.16-.08-.16-.16l.08.08h.08c0-.16-.4-.24-.48-.24-.71,0-1.35.48-2.06.48-.56,0-.8-.32-1.36-.71a.76.76,0,0,1-.48.31.92.92,0,0,0-.39-.39V27h.31v-.08a1.36,1.36,0,0,0-.31-1c.16-.32,0-.72.16-1h-.16c0-.47.39-.63.39-.95l-.08-.16h-.31l.16-.48h.63c-.08-.24-.71-1.11-.71-1.19,0-.32.47-.64.71-.8v-.48l-.48.16c0-1,.08-1.35,1-1.35.16,0,.4-.32.48-.48a1.2,1.2,0,0,1,.55,1.2,3.25,3.25,0,0,1-.08.87,1.14,1.14,0,0,1-.47-.16h-.24c0,.24.16.48.16.72.32,0,.55-.08.87-.08v-.48a.69.69,0,0,1,.48-.24,3.29,3.29,0,0,1,.64.24,1.36,1.36,0,0,0-.48-.48v-.08l-.08-.08c-.16,0-.24.24-.32.4l-.16-.16c0-.08,0-.24-.08-.31.24-.08.48-.16.56-.32s.08-.24.16-.4c.16.08.48.16.64.24v-.32l.63-.32c.4,0,.48.24.64.24a1.76,1.76,0,0,0,1.35-.72h.48v.32H190v.4a2.54,2.54,0,0,1,.72-.24c.23,0,.31.24.55.24a1,1,0,0,1,.08.48c0,.4-.08.71-.08,1v.56h.16c.08.08.08.16.08.32l-.4,1.11c0,.4.32.4.56.64a.48.48,0,0,0-.08.32c0,.24.16.4.16.63s-.08.24-.08.32h-.4v.08c0,.16.24.24.24.4a1.07,1.07,0,0,1-.24.4l.16.4a.61.61,0,0,0,.32.16ZM182.62,68v.32h.15C182.7,68.24,182.7,68.08,182.62,68Zm.47-20.78a1.67,1.67,0,0,1-.32.48h.48l.08-.48Zm.24,21.26a.29.29,0,0,0-.24-.08.81.81,0,0,1-.24.08v-.16h-.08v.56h.08a.81.81,0,0,0,.72-.24.11.11,0,0,1,0-.16Zm0-17.68h-.24v.32h.24Zm.24-26.42c-.16-.08-.24-.08-.32-.16a1.47,1.47,0,0,0,.32.71.61.61,0,0,1,.16-.32C183.65,24.54,183.57,24.46,183.57,24.38Zm.16,43a3.46,3.46,0,0,0-.4-.08c.16.16.32.32.48.32A.81.81,0,0,1,183.73,67.36Zm0,5h-.4l.24.16.16.08Zm.32-6.69h-.32l.32.08Zm.16,4.62h-.4v.08h-.08a.57.57,0,0,0,.48.24Zm1.35-46.65a4.47,4.47,0,0,1-.87.4v-.48c-.32.08-.4.24-.64.48a.92.92,0,0,0,.16.63c.95,0,.63-.15,1.35-.55ZM184.05,26v.24h.24Zm2.39-4.22a1,1,0,0,0-.64-.16c-.16.48-1,.64-1.35.95l.24.24V23c.95-.48.31-.95,1.75-.95Zm-1.75,27.54v.32h.15Zm1.11-5.17c-.16,0-.32.08-.48.08l.24.16h.24l.16-.16C185.88,44.12,185.88,44.12,185.8,44.12Zm-.24-24.68V19.2h.16v.24Zm.16,25.47a1.14,1.14,0,0,1-.16.48l.24-.16H186ZM186,22.39c-.08,0-.16-.08-.24-.08v.47l.48-.16Zm.71,25.87a.85.85,0,0,1-.47-.16.52.52,0,0,0-.16.4v.08h.63ZM186,51.92V51.6h.16v.32Zm.71-29.85h-.31v.24h.31Zm0-1.36s0,.16-.08.16a.73.73,0,0,0,.4.24A.53.53,0,0,0,186.75,20.71Zm.16,29.3h-.24c.16,0,.24.16.4.24C187.07,50.17,186.91,50.09,186.91,50Zm-.08,24.28h-.16l.16.24Zm.4-29.06-.16.48h.48A.66.66,0,0,0,187.23,45.23Zm.32,3.51h-.32c.08.07.16.07.32.07Zm.16,2.06v.48h.08v-.16H188Zm.48-2.46-.4-.08c.16.16.32.32.48.32Zm.56,1.43c-.16-.08-.24-.16-.4-.16h-.08v.48a.72.72,0,0,1,.4-.08h.08Zm0-7.72h-.24v.32h.24Zm.31,6.29h-.31l.15.24c0-.08.16,0,.16,0Zm.48-29.06h-.32a.42.42,0,0,0,.32.16Zm1.12,4.94h-.4v.39h.4Zm.23-2.15h-.23l.08.24v-.16h.15Zm0,1h-.23l.23.08Z"/><path d="M202,55.58l-.24-.08Zm.87,19A2,2,0,0,0,202,74v.48h.16C202.44,74.53,202.67,74.45,202.91,74.53Zm29.94-53.74h-.48v-.47c-.24-.08-.32-.32-.48-.48h-.24v-.48h-.32a.81.81,0,0,1-.63.4c-.56,0-1.52-.88-1.6-.88-.31,0-.47.48-.71.48s-.32-.4-.48-.56v.4h-.16a1.69,1.69,0,0,1-.56-.24l-.08.32h-3.42l-.08-.32a5.9,5.9,0,0,1-1.27.4c-.16,0-.4-.08-.64-.08-.08.08-.08.24-.16.32l-.48-.24-.16.48a1.39,1.39,0,0,1-.55.16,1.51,1.51,0,0,1-.64-.16,2.94,2.94,0,0,1-.16,1.43h-.32l.08,1H219v.79h-.31l-.08.08c0,.32.39.4.39.64s0,.24-.07.32h-.32V25h-.32c0,.24-.08.4-.08.64,0,.4-.24.88-.24,1.27a3.28,3.28,0,0,0,.08.88h-.4c-.08.24-.08.4-.16.64-.24.16-.4.31-.4.55s.24.32.24.64v.08a13.46,13.46,0,0,1-.95,1.83c.16.08.32.08.47.16h-.31c0,.08-.08.16-.08.32-.16-.08-.24,0-.32,0a4.86,4.86,0,0,1-.16,1.51h-.4a1.36,1.36,0,0,1,.08.56h-.4c.08-.08.16-.16.16-.24a.42.42,0,0,0-.16-.32v.24h-.08l-.08.16c0,.24.24.56.24.87h-.24c0,.08-.08.16-.16.24l.16.16.08.16h-.39l-.08-.48h-.32c-.08,0-.16-.08-.24-.08s-.08,0-.08.08L214,35c-.24,0-.24-.24-.24-.39a.21.21,0,0,0-.24.23.56.56,0,0,1-.08-.31c.16-.16.32-.24.4-.4-.08-.4-.32-.64-.4-1,0,0,.16-.08.16,0l.16-.24c-.72,0-.88,0-.88-.79h-.39v-.56c.63,0,.71.32,1.27.56V31.7a.61.61,0,0,1-.16-.32,2.12,2.12,0,0,0-.48-.4c0-.47.48-.95.48-1.35a.29.29,0,0,0-.08-.24c-.08-.16-.08-.32-.24-.48h-.55v.16c.15,0,.23.08.31,0,.08.08.08.08.08.16s0,.08-.08.16h-.08v.16a2.75,2.75,0,0,0-.87-.16c-.32.32-.24.72-.56,1l-.24-.48-.48-.24a2.21,2.21,0,0,1,.08.72h-.47a4.52,4.52,0,0,1-.08,1h-.48v.48c.08,0,.48-.08.48-.24v-.08l.08-.08c.16,0,.24.08.31,0a3.15,3.15,0,0,0-.31.88c-.08,0-.24.08-.32,0a.11.11,0,0,1,0,.16h.32a.84.84,0,0,1,.31-.4v.63h-.31c0,.08-.08.16-.16.24.08.08.08.16.16.16v.24H210c0-.24-.16-.64-.4-.64-.08-.08-.16-.23-.24-.31.32-.16.4-.64.4-1h-.16c-.08.16-.32.24-.4.4v.48a1.1,1.1,0,0,1-.32-.24l-.15-.08c-.08,0-.16,0-.16.08l-.08.32a1.66,1.66,0,0,1,.39.31c.08-.08.24-.16.4-.31v.79a3.83,3.83,0,0,1-.87-.32v.08a.61.61,0,0,1,.16.32.61.61,0,0,0-.16.4h.08a.42.42,0,0,0,.16-.32.1.1,0,0,0,.15,0c.24.48.48.24.56.88-.24.16-.63.47-.63.71s0,.24.07.32a1.35,1.35,0,0,0,.4.16l.24-.24h.32a3.9,3.9,0,0,1,.24.56,2.47,2.47,0,0,0-.64-.16c.08.16.08.24.16.4a2,2,0,0,0-.72.32,3.28,3.28,0,0,1,.4,1h-.08a.8.8,0,0,0-.79-.4,2.21,2.21,0,0,0,.08.72h-.16l-.08,1h-.72v-.32a1.17,1.17,0,0,0,.48-1,1.19,1.19,0,0,0-.56.08l.08.32c-.08.16-.48.32-.48.48v.16h.4l-.08.32H207l-.16.07h-.07l.07-.07-.07-.08a.6.6,0,0,0-.32.08v.23c-.16.16-.32.08-.48.24v-.4a2.39,2.39,0,0,0,.87-.55c-.47-.32-.63-.56-1.19-.56l-.08.16a.87.87,0,0,0-.4.08c0,.64-.24,1.27-.24,1.91,0,.08-.15.16-.23.16s-.08,0-.16-.08l-.16-.08c-.16,0-.32.08-.32.24s0,.08-.08.16v.08c.56.08.64.71.64,1.19h-.24c-.08-.56-.32-.8-.88-.8v-.47a3.32,3.32,0,0,0,.88-1h-.16c-.56.48-.88.56-1.12,1.43h.4c0,.16.08.4.08.64s-.24.16-.4.16a.29.29,0,0,0-.08.24c0,.08,0,.16.08.16s.16-.08.32,0v.72h-.32v-.24H203v.24h-.24a1.49,1.49,0,0,0,.72.47,1.48,1.48,0,0,1,.16.56h-.08a.66.66,0,0,0-.48-.32l-.32,1.36a1.06,1.06,0,0,1,.64.55,1.28,1.28,0,0,0-.64,1.12c0,.32.16.4.4.63a1.32,1.32,0,0,0-.08-.55l.32-.16v.48c0,.07-.08.15-.08.23,0,.48.72.24.88,1.12H204v.16h-.24a1.22,1.22,0,0,0-1.12-1.2v.16h-.07c.07.32.31.56.39.88a.89.89,0,0,0-.39.4c.07-.08.31-.08.39-.16.08.08.24.24.32.24v.31H203l.08.4-.4.24v.64h.16c.08,0,.08-.16.08-.16l.16-.08v.4c-.08.16.16.16.16.24a2.39,2.39,0,0,1-.4.55,6.4,6.4,0,0,0-.23,2.07,7.13,7.13,0,0,0,.79.32c.16,0,.16-.16.32-.16a.08.08,0,0,1,.08.08v.24c.08,0,.08.08.08.16h-.08c-.32.48-.88.4-1.35.64,0,.16.16.32.16.55a.29.29,0,0,1-.24.08c0,.32.08.56.08.8l-.08.16v.24c.24,0,.31.4.31.63,0,.4-.31.56-.31.88,0,.08.16.24.24.32l.15.32a3.73,3.73,0,0,0-.47.55l.47.24v.16c0,.24-.39,0-.39.48a3.93,3.93,0,0,0,.31,1.35c0,.24-.15.48-.15.72,0,.4.31.95.31,1.59a3,3,0,0,1-.23,1.12.92.92,0,0,0-.24.47l.39.48v.16c0,.16-.15.32-.15.48s.15.48.15.64-.31.55-.39.79.31.4.31.56a.8.8,0,0,1-.15.56v.31c0,.4.23.72.23,1.12a.66.66,0,0,1-.15.4h-.32c0,.16.16.24.24.39,0,.4-.24.72-.24,1.12a.48.48,0,0,0,.32.08,7.12,7.12,0,0,1,.15,1.11,4.49,4.49,0,0,1-.31.64c.23.16.31.32.55.48h.8c.24.16.64.55,1,.55.07,0,1-.31,1.19-.31s.16.24.24.31l.08.08c.08,0,.08-.08.08-.15a.53.53,0,0,1,.55-.32c.24,0,.56.32.8.39.08-.15,0-.31.08-.47.32.16.56.4.88.4.08-.16.15-.24.23-.4.4,0,.16.4.56.4.56,0,1-.24,1.59-.24h.4l.48.31a1.15,1.15,0,0,1,.48-.07,2.12,2.12,0,0,1,.71,0l.08.23h.4c.08-.16.16-.23.16-.39s.32-.16.48-.24a1.14,1.14,0,0,0,.48.16L215,74c-.31,0-.63-.08-.95-.08v-.24a1.19,1.19,0,0,1,.72-.16,2.66,2.66,0,0,0-.08-.79h-.08v.24c-.16.15-.24.31-.4.47-.08-.08-.4-.4-.4-.55s.24-.16.24-.4a.57.57,0,0,0-.24-.48v-.8a.25.25,0,0,0-.16.08c.08,0,0-.16,0-.16a1.16,1.16,0,0,1-.24-.55c0-.4.4-.4.4-.88v-.4c0-.31-.16-.71-.16-1v-.48l.16-.08V67.2c0-.47-.48-.87-.48-1.43a.73.73,0,0,1,.32-.64c-.16-.23-.08-.55-.24-.79h.24a1.67,1.67,0,0,0,.32.48c.4-1.36.56-.4,1-1.44-.15-.24-.08-.48-.15-.79.55-.16.47-.32.87-.64v.88h-.16V63l-.48-.23V63c.24.24.08.4.16.64h.32a1.47,1.47,0,0,1,.56,1.43v.16l-.24.24-.08.4h.32a1.76,1.76,0,0,1,.08-.64h.16v.16a3.46,3.46,0,0,1,.08.4c0,.32-.16.56-.16.88.24.47.32.95.56,1.43l.31.16c0,.08.08.24.08.32,0,.32-.32.32-.32.55a.36.36,0,0,0,.24.24v.08l.08.16a2,2,0,0,0-.55,1.43H218c-.08.8,0,1.68-.16,2.47a.76.76,0,0,1,.8.8.77.77,0,0,0-.72.4c1.35.71.4,1,2.47,1V76h.32v.32a.67.67,0,0,0,.39.08c.64,0,1-.56,1.68-.56a1.49,1.49,0,0,1,.55.16v.32a.25.25,0,0,0,.16.08c.32,0,.4-.32.64-.4v.32c.08.16,1,.16,1.19.16a4.39,4.39,0,0,0,1.75-.24V76a.59.59,0,0,1,.48-.16c1,0,1.83.32,2.79.32a.6.6,0,0,0,.4-.08,1.24,1.24,0,0,0,.31-.88,7,7,0,0,0-.16-1.27h-.23l-.16.16s-.16,0-.16.08c0-.56-.08-1.12-.08-1.67,0-.16.16-.32.16-.4,0-.48-.48-.72-.48-1.12v-.15h.4v-.48c-.8-.32-.64-1.83-.64-2.55h-.32l-.32-.4v-.63h.32v-.48h-.32a1.56,1.56,0,0,1-.08-.64V63c-.15-.23-.55,0-.71-.39,0-.24.08-.48.08-.8a6,6,0,0,0-.4-1.51h.32c.08.08.08.08.08.16s-.16.08.08.24v-.4c.08,0,.16-.08.24-.16a.81.81,0,0,1,.08-.24,1.36,1.36,0,0,1-1-1.35V58h-.4v-.64c.08-.08.16-.08.24-.16s.16-.16.16-.24a2.13,2.13,0,0,1-.87-.87h.47c0-.88-.24-.4-.4-1l.08-.47c-.15-.32-.47-.32-.63-.72l.16-.16.08-.16a1.32,1.32,0,0,1-.64-1,.71.71,0,0,0,.4-.64,1.14,1.14,0,0,0-.16-.48h-.24V50.17c-.16,0-.24-.08-.4-.08a1.19,1.19,0,0,1,.08-.56,1,1,0,0,0-.08-.48c.08,0,.24-.08.32-.08s.08-.16.16-.23c-.64-.16-.88-.4-.88-1,0-.32,1-.4,1-1,0-.8-.56-.88-1-1.52h.4l.16-.24c-.24,0-.56,0-.72-.24a.56.56,0,0,0,.16-.39,2.47,2.47,0,0,0-.16-.64h-.71v.4h-1c-.08-.4-.24-.48-.4-.8h.72v.4c.08,0,.24-.08.32,0a.42.42,0,0,1,.16-.32H224a.25.25,0,0,0-.16-.08,2.88,2.88,0,0,0,.88.16.61.61,0,0,0,.39-.16.67.67,0,0,1-.47-.56V41.65c.08,0,.16-.16.16-.24s-.16-.4-.16-.64h.47a2,2,0,0,1,.48-1.11l-.32-.24-.08-.24c.88-.16.88-.55.8-1.43.08,0,.16-.16.16-.24s-.08-.24-.08-.32a.29.29,0,0,1,.08-.24s.32,0,.32-.08h-.32V36.4h.4a8.48,8.48,0,0,1,.71-.88c0-.48.16-1,.16-1.43,1-.48.64-1.28,1-2.15l.4-.24A.42.42,0,0,1,229,32c0-.08.15,0,.15,0V31.7a.53.53,0,0,1-.55-.32c.16-.24,0-.56.08-.87.16,0,.55.07.71-.08a1.44,1.44,0,0,1-.16-.8c.16-.16.32-.56.48-.56s.08.08.16.08.24-.4.24-.48-.16-.07-.16,0l-.16-.15.16-.24V27.8h.48a3.77,3.77,0,0,1-.24-.72.56.56,0,0,1,.56-.63v-.64H231v-.56c0-.08.16-.16.32-.24a.65.65,0,0,1-.47-.24h.47c-.16-.16-.16-.47-.24-.63a.48.48,0,0,1,.32-.08c.08-.08.08-.16.08-.32h.24v-.08a.59.59,0,0,1-.48-.16h.16a1,1,0,0,1,.56-.4l-.48-.48a3.46,3.46,0,0,1,.4.08v-.31c.16.08.24.15.4.23v-.23c-.08,0-.16-.16-.16-.24s.32-.08.32-.8c0,0-.16,0-.16.08l-.16-.16C232.37,21,232.69,21,232.85,20.79ZM203,73.17h-.08v-.23Zm.24-32.08-.16-.24Zm0,25.56h-.08v-.4C203.23,66.41,203.15,66.49,203.23,66.65Zm.4-29h-.08v.08a.29.29,0,0,0,.08.24Zm.24,5.17s-.08.16-.16.16a.17.17,0,0,1-.16-.16v-.08c0-.07.08-.07.08-.15Zm.56-4.45H204a1.31,1.31,0,0,0-.32.55h.08v.24H204c0-.08.08-.55.16-.55v.08C204.27,38.71,204.35,38.39,204.43,38.39ZM204,25.81a.29.29,0,0,1-.24-.08v.32H204Zm0,26.67v.16l-.24-.16Zm.24-25.72c-.16-.08-.24-.08-.4-.16V27H204v-.24Zm.08,22.85v.16h-.16a.17.17,0,0,0-.16-.16Zm.32-14.41V35a.82.82,0,0,0-.4.48h.4C204.51,35.36,204.59,35.28,204.59,35.2Zm0,2.71-.4-.24a.62.62,0,0,0,.32.32v.24h.08Zm.23-4.14a1.41,1.41,0,0,0-.55-.48v.48a1.29,1.29,0,0,1,.55.08Zm.64,10.43c-.24,0-.4.16-.64.16v-.24l.24-.24c-.08,0-.16.08-.24.16s-.15-.08-.23-.16a1.16,1.16,0,0,0-.16-.56h.39C205.14,43.64,205.38,43.8,205.46,44.2Zm-.64.16v.24c0-.08-.15-.08-.15-.08l-.16-.16ZM204.9,46h-.08v-.32A.48.48,0,0,0,204.9,46Zm.32-25.24c-.08-.08-.24-.08-.32-.16C205,20.71,205.14,20.71,205.22,20.79Zm-.08,5.74h-.24v.23h.24Zm.08,8.27-.24-.23Zm3,.56h-.08c-.16.08-.24.08-.32.16a.76.76,0,0,1-.16.56c-.08-.24-.24-.48-.48-.48s-.4.24-.63.24-.4-.24-.48-.48a3.46,3.46,0,0,1,.4-.08c.08-.16.08-.24.16-.4h-.16V34.8c-.8.4-.32.72-1.44.72.08.08.08.16.08.32a.29.29,0,0,0,.24.08,1,1,0,0,1,.48-.08v.24h-.24c-.08,0-.16.16-.24.16s-.16-.24-.4.08h.08v.08a.86.86,0,0,1,.56.47h.24v-.16c.16-.15.24,0,.4-.31a.42.42,0,0,1-.16-.32h1v.48a6.45,6.45,0,0,1,.72.31A10.57,10.57,0,0,0,208.25,35.36Zm-3.11,2.07-.16-.08a.6.6,0,0,0,.08.4v-.08h.08Zm.4,3v.23h-.24c-.08-.15-.24-.31-.32-.47.08,0,.16.08.24,0l.24.24Zm-.24,34.07v.16h-.16a.17.17,0,0,1-.16-.16Zm.24-33.2v.32h-.24v-.32Zm0-1.67h-.16v-.4Zm.4-1.27c-.16.08-.32.24-.48.32V38c.08.08.24.08.32.16S205.86,38.31,205.94,38.39Zm.24,3.5v.24h-.64l.08-.32.24-.16.08.24Zm-.4-16.32a.28.28,0,0,0-.16-.08Zm.24,4.94h-.32v.39H206Zm.08,3.34h-.4v.24h.4Zm-.08-7.8h-.24v.4H206Zm.24,17.67v.4h-.32v-.4Zm-.16-11.78H206v.24h.08Zm.71,4.93c-.07-.08-.15-.16-.15-.23l-.24-.24c-.08.16-.16.55-.32.55l-.08.16v.24c.24.08.56.24.79.32Zm-.39-8.2-.32-.07A.54.54,0,0,0,206.42,28.67Zm.16,52.54h-.32v.24h.32Zm-.16-48.16h-.08v.4h.08Zm0,6.77h-.08v-.16ZM207.13,27c-.08-.08-.47-.16-.47-.32s.15-.08.15-.15-.31-.08-.39-.08V27.8h.08c.08-.08.16-.16.24-.16S207.05,27.16,207.13,27ZM207,33c0-.08-.08-.32-.08-.39a1,1,0,0,1-.47-.08v.31a2.86,2.86,0,0,0,.55.24Zm-.31.88h-.24c0,.08.08.24.08.32l.16.16Zm2.14-4.94h-.23v-.24h-.16c-.16.4-.4.88-.8,1l-.16-.24v.72c-.32,0-.64.08-.95.08v.32h.39c.08,0,1.2-.4,1.36-.4a1.76,1.76,0,0,1-.08-.64s0-.16.08-.16C208.49,29.31,208.65,29.15,208.8,28.91Zm-2-4.14-.23-.08A.28.28,0,0,0,206.81,24.77Zm.32,6.61h-.47v.16h.47Zm.08-11h-.47c.07.08.15.16.23.16S207.13,20.48,207.21,20.4ZM207.13,75h-.32v.32h.32Zm.24-40.91a.29.29,0,0,0-.08-.24c-.16.24-.32.24-.4.48l.08.24h.32C207.29,34.41,207.37,34.25,207.37,34.09Zm.08-1.67a.43.43,0,0,0-.32-.24l-.16.32h.32v-.08Zm.48-4.14a.76.76,0,0,1-.56-.16c-.08.16-.24.32-.24.48s.16.23.24.31c.08-.08.16,0,.24,0A1.57,1.57,0,0,0,207.93,28.28Zm-.48,23.16v.16c-.16-.08-.24-.08-.32-.16Zm.4-24h-.4l-.08.16h.48Zm.72,3.42a5.15,5.15,0,0,1-1.12-.23c0,.15-.08.31-.08.47.4.08.72.32,1,.4A.86.86,0,0,0,208.57,30.9Zm-.88,12.18-.16.08c-.08,0-.08-.08-.08-.16v-.08a.58.58,0,0,1,.16-.31C207.61,42.76,207.69,42.92,207.69,43.08Zm.32-10.5h-.24V32.5h-.24V33a.48.48,0,0,1,.32-.08C207.93,32.81,207.93,32.73,208,32.58Zm.24,8.11c0,.08-.16.08-.24.16s-.24-.16-.4-.16l.24-.23C207.93,40.46,208.25,40.62,208.25,40.69Zm-.32-6.2c0-.08-.08-.08-.08-.16a.58.58,0,0,0-.16.47h.16v-.23Zm1.83-8.92h-.32c-.32.4-1.19.24-1.59.24v.24c.72.16.56.24,1,.71l.24-.16ZM208.41,27c-.16-.16-.32-.16-.4-.24a1.14,1.14,0,0,0-.16.48h.08C208.09,27.08,208.25,27.08,208.41,27Zm-.24-3.26L208,23.5a.29.29,0,0,0-.08.24Zm.32,12.1h-.16v.24h.16Zm.39,2.55h-.08c-.15,0-.23-.08-.39-.16h.08A.58.58,0,0,1,208.88,38.39Zm-.15,2.07h-.08V40.3c-.16-.08-.16-.24-.24-.32.08.08.16.16.24.16S208.73,40.38,208.73,40.46Zm.31.63h-.24v.16a3.7,3.7,0,0,0-.39.08l.16-.48a.28.28,0,0,0,.23.08C208.88,40.93,209,41.09,209,41.09ZM209,28c-.08,0-.23.08-.31,0l-.16.24c.16.08.31.08.39.24Zm-.16,2.07-.31-.16v.56h.31Zm0,49.35h-.31v.4h.31Zm.4,3.82a1,1,0,0,0-.47-.08l-.24.16h.71ZM209,26.05v.4h-.31v-.4Zm.16,11.62v.24c-.16-.08-.24-.16-.39-.24Zm1.2-7.24c-.72,0-.88-.4-1.44-.72a1.36,1.36,0,0,0,.48.8.41.41,0,0,1-.32.23,1.88,1.88,0,0,0-.16.64H209a1,1,0,0,1,.72-.87c0,.07.24.23.32.23S210.24,30.58,210.32,30.43Zm-1-1-.16-.32c-.08.08-.08.24-.16.32Zm.72,8.2a.28.28,0,0,1-.08.16h-.4c-.08.08-.16.16-.16.24s.08.16,0,.16-.16-.08-.24-.16c0-.32.24-.16.4-.32,0-.16-.08-.24-.08-.4V37a2.12,2.12,0,0,0,.48.4Zm-.16.88h-.32c-.08.16-.24.16-.4.24v-.32c.16,0,.32,0,.4-.16Zm-.4,1.27h-.32v-.48l.16.16Zm0-12.18h-.16v.24h.08Zm.24.72h-.4a1.75,1.75,0,0,1,.4.32Zm.24,7.8v.24a.43.43,0,0,0-.32.24.61.61,0,0,1,.32.31h-.64V36.4C209.6,36.32,209.76,36.16,210,36.08Zm.24-13.77-.64-.24-.16.32c.24.15.56.08.8.23Zm.16,7.4c-.08-.16-.32-.24-.48-.32-.08.16-.16.24-.24.4a1.88,1.88,0,0,0,.64.16v-.24Zm-.24-5h-.32V25h.32Zm.79,1.36a2,2,0,0,0-.55-.32v-.48h-.24a3.34,3.34,0,0,1-.32.8c.64,0,.56.24,1.11.4Zm.24,11.62v.24a1.14,1.14,0,0,0-.16.48,2.59,2.59,0,0,0-1.11,0l.08-.48.16-.24A2.24,2.24,0,0,0,211.19,37.67Zm-.71,1.27v.32c-.08,0-.24-.08-.32-.08s-.16-.16-.24-.24Zm-.32,1.75h-.24v-.47a.28.28,0,0,1,.16.08A.67.67,0,0,0,210.16,40.69Zm-.16-6.6a1.08,1.08,0,0,1,0,.71ZM210.71,83l-.31-.16-.16.47h.32V83.2h.15Zm.16-62.34a1.46,1.46,0,0,0-.31-.23C210.71,20.56,210.79,20.63,210.87,20.63Zm-.08,27.15h-.23v-.24Zm.4-11.7v.32h-.55v-.32Zm.08-4.62a1.12,1.12,0,0,0-.24.72h-.24c.08-.16.16-.64,0-.64a.29.29,0,0,1-.08-.24V31a1,1,0,0,0,.48.08C211.27,31.14,211.27,31.38,211.27,31.46ZM211,38.63v.15c-.08.08-.08.16-.16.16l-.08-.08v-.08a.41.41,0,0,1,.16-.31Zm.24-15.53H211c.08.08.08.16.16.24l.16.16Zm.16,1.28h-.24c-.08.08-.16.23-.24.31h.32v.08h.08Zm0,8.43a.56.56,0,0,1-.4-.23.32.32,0,0,0,.24.07C211.35,32.65,211.43,32.81,211.43,32.81Zm.16-5.73a.87.87,0,0,1-.4.08c0,.08-.08.24-.08.32a1,1,0,0,1,.48.08Zm.4,1.2h-.32v.32a.68.68,0,0,0-.56,0v.07h.08a.43.43,0,0,0,.32.24C211.67,28.67,211.83,28.52,212,28.28Zm-.72,1.11-.16-.24Zm1.28,4.06h-.64c-.08.08-.08.16-.16.24s-.16.16-.16.16l-.32-.24c-.08-.16-.08-.4-.16-.56h.32a1.1,1.1,0,0,0,.24.32.17.17,0,0,0,.16-.16l.16-.08A.81.81,0,0,1,212.55,33.45ZM211.27,83h-.16v.31h.16Zm.8-52.46v.39h-.88v-.39Zm-.4-4.94h-.4A.36.36,0,0,0,211.67,25.57Zm-.08,14.17v.08l-.24-.08ZM212.15,77h-.24v-.16h-.56v.08c0,.31.32.39.56.39C212,77.23,212,77.07,212.15,77Zm-.48-42.12v.4h-.24v-.4ZM212,83l-.32-.16v.39H212Zm.08-48.4v.23l-.16-.23Zm0,2.78h-.16v-.48a.61.61,0,0,1,.16.4Zm.48-4.93a3.22,3.22,0,0,0-.08.39h-.32v-.23a.61.61,0,0,1-.16-.32v-.08C212.23,32.26,212.39,32.26,212.55,32.42Zm0,6.52h-.08c-.16.08-.32.24-.48.24.08-.16.24-.32.32-.47s.16.07.24.07C212.47,38.78,212.55,38.94,212.55,38.94Zm-.4-15.28h-.08V24h.08Zm.16,57.24-.24-.16Zm.4.79h-.64v.24h.64Zm.87-2.47h-.08a6,6,0,0,1-.79-.31l.08-.48a1.14,1.14,0,0,0-.48.16c.08,0,.32.16.32.32s-.4.39-.48.47h.4a.41.41,0,0,0,.31.16c.24,0,.48-.08.72-.08Zm-1.11-58.59h-.24l.24.24Zm.32,7h-.56V28h.08a1,1,0,0,0,.48.08Zm-.24,12.1v.08h-.08V40l-.16-.24Zm.16,40.2h-.4v.32l.4-.16Zm.39-53.41a3.34,3.34,0,0,0-.55-.32,1.46,1.46,0,0,0-.16.63,1.06,1.06,0,0,0,.24.64,1.74,1.74,0,0,1,.31-.4A.75.75,0,0,0,213.1,26.53Zm1.68,11.22a1.36,1.36,0,0,0-.56-.08c0,.64.08.72-.56.72a1.72,1.72,0,0,0,0-.64l-.24.24v-.32a.68.68,0,0,0,.24-.4.08.08,0,0,0-.08-.08l-.16-.16a.25.25,0,0,1,.08-.16c.16,0,.24-.08.4-.16v-.63h-.08a.48.48,0,0,1-.48.24,1.43,1.43,0,0,1-.87-.4c.32,0,.63,0,.79-.24l-.4-.16V35h-.31c-.08.08-.08.24-.16.32a1.39,1.39,0,0,1,.16-.79c.08.08.39.15.39.31,0,.32,0,.32.32.48l.16-.08c0,.32,0,.4.4.4V35.6c0-.16-.08-.16.08-.24,0,.32.32.48.32.72a9.83,9.83,0,0,1-.32,1.27h.32c.08-.08.16-.16.24-.16C214.7,37.19,214.78,37.67,214.78,37.75Zm-2,37.81h-.4V76h.4ZM213,37.43v.08c0,.08,0,.32-.08.4a2.35,2.35,0,0,1-.39-.48Zm-.16-14.09-.23-.16Zm.24,10.19v.56h-.24v-.56Zm.56,48.4-.24-.24h-.48V82a1,1,0,0,0,.64.32A.6.6,0,0,0,213.66,81.93Zm-.4-57.55h-.08l-.08-.16-.08.32h.24ZM219.87,81a1.67,1.67,0,0,0-.32-.48h-.08v.24c-.32.16-.24.47-.32.71-.39,0-.71-.32-1-.32-.72,0-.48.48-.8.64-.24,0-.63-.79-1.11-.87a.82.82,0,0,1-.4.15c-.32,0-.48-.31-.64-.31s-.24.16-.32.24h-.31V80.9l-.08-.16c0,.08-.08.24-.08.31s-.16.08-.24.16V80.9l-.24-.16V81a1.3,1.3,0,0,1,.24,1c0,.8-.56.72-1.12,1v.23c.08-.08.16,0,.32,0s.16-.08.24-.08.08.08.16.08a.17.17,0,0,0,.16.16v-.24c.08,0,.16-.15.16-.15.16.07.16.23.16.39l.08-.08V83.2a.94.94,0,0,0,.4-.39,1.27,1.27,0,0,1,.15-.48h.32c0,.16,0,.4.08.48s.16-.08.24-.08v.16c.08,0,.16-.08.24-.08s.24-.24.24-.32h-.16a1,1,0,0,1-.08-.48c-.24.08-.48.16-.8.24l.08-.32a.57.57,0,0,0,.48-.24c.4.08,1.75.16,1.83.56a.29.29,0,0,0,.08.24c-.24,0-.32-.16-.56,0a.29.29,0,0,1-.07.16c0,.24.31.32.47.32a.54.54,0,0,1,.48-.32,4.72,4.72,0,0,1,.64.32v-.24l-.16-.16c0-.08-.08-.16-.08-.24.16,0,.24-.08.32-.08.24,0,.32.16.55,0a1.48,1.48,0,0,0,.16-.56c.24-.16.48-.08.72-.24Zm-6.45-55.81c0-.08-.16-.16-.24-.16h-.08c0,.24.16.4.16.56h.16Zm0,3.43-.32-.08A.6.6,0,0,1,213.42,28.6Zm0,3.82h-.32v.16h.32Zm.72,45.93H214c-.16-.08-.64-.08-.72-.16h-.16v.24c.08.08.32.16.4.24a2.66,2.66,0,0,1,.48-.24c.08.16.08.24.16.4Zm-.4-38.93v.24c0-.08-.16-.08-.16-.08l-.16-.16Zm.56,23.88c-.16,0-.24-.08-.4-.16h-.16l.08-.16c0-.08.08-.08.16-.08-.08,0,0-.15,0-.15a1.06,1.06,0,0,1-.48-.8.86.86,0,0,1,.16-.48V62H214a6,6,0,0,1,.32,1.11Zm1.19,14.33c-.48-.16-.79-.56-1.27-.79,0-.08.32-.48.32-.56s-.24-.32-.32-.32v.4h-.56v.24c.08.16-.16.63-.16.79.32.16.56.32.64.64a2.35,2.35,0,0,0,.79-.4c0,.16.08.4.24.4h.24ZM213.82,30.9h-.24v.24h.24Zm.4,12.18h-.08a.42.42,0,0,1-.32.16.25.25,0,0,1-.16-.08l.16-.32A.44.44,0,0,1,214.22,43.08Zm-.32,8.6h-.24v-.24l.08.08C213.82,51.52,213.82,51.6,213.9,51.68Zm.16-11.46v.08l-.32-.08Zm.64,18.63-.16.39h-.48l-.24.24.32.16.24.24a.6.6,0,0,0-.08.4h-.56V58.92a2.13,2.13,0,0,1,.64-.15c.08,0,.08,0,.16.08Zm-.8,20.21h-.16a.61.61,0,0,0,.16.4Zm.24-44.57-.32-.16C214,34.41,214.06,34.41,214.14,34.49Zm-.08,7.88h-.24v-.24a.08.08,0,0,0,.08.08C214,42.21,214,42.29,214.06,42.37Zm.08,11.3H214l-.08.32h-.08v-.48h.08C214,53.51,214.06,53.59,214.14,53.67Zm-.24,1.83h-.08v-.4C213.9,55.26,213.82,55.34,213.9,55.5Zm.56,6.29H214l.08-.32c.08,0,.24.08.32.08S214.46,61.71,214.46,61.79Zm0,13.21h-.32c-.16.08-.16.32-.16.48h.24v-.16l.16-.16ZM215,40.3c-.08.08-.16.08-.31.16a.81.81,0,0,1-.24.08c-.08,0-.24-.08-.32-.08h.32c0-.08.08-.24.16-.24S214.85,40.3,215,40.3Zm-.16-.88v.32c-.15,0-.31.08-.31.24l-.16.08a.28.28,0,0,1-.16-.08l.24-.32v-.08c0-.16,0-.24-.08-.32A1.05,1.05,0,0,1,214.85,39.42ZM214.78,38v.4c-.16-.08-.24,0-.32,0s-.08-.08-.16-.16h.16V38Zm-.16,3.66h-.32v-.4l.16.08Zm.87,23.25h-.24v-.08h-.63c-.16.23-.08.55-.24.87h.24v.16c.08-.08.16-.08.23-.16C215.25,65.61,215.41,65.29,215.49,64.9Zm-.56,1.35c-.08.08-.23.08-.31.16-.08-.08-.16-.08-.24-.16.08.16.08.4.24.48l.16-.08c.07-.08.07-.16.15-.16Zm.32,12.34c-.32,0-.55-.16-.87-.16v.16a1.39,1.39,0,0,0,.32.79v.08h.23A1.18,1.18,0,0,1,215.25,78.59Zm-.47-16.32v.32h-.32v-.32Zm.63,17.67c0-.08-.08-.16-.16-.24s-.16-.16-.24-.24c.16.32,0,.56-.08.8h-.39c0-.08.08-.32-.08-.4v.4a1.28,1.28,0,0,0,.71.16h.16Zm-.24-26.43V54h-.55v-.48Zm-.08,17.28c-.16,0-.39,0-.47-.16a1.12,1.12,0,0,0,.47.39ZM215,71.9l-.16-.16-.15-.08.15.16A.28.28,0,0,1,215,71.9Zm-.16-37.33v-.24h-.07v.24Zm.56,40.75c-.08-.08-.32-.08-.4-.16l-.23.4a1.39,1.39,0,0,0,.55.16h.08Zm1.12-5.17h-.8a.6.6,0,0,1-.08-.4c-.32,0-.56-.16-.8-.16V70a3.14,3.14,0,0,0,1.12.64c0-.08.08-.08.16-.08h.08A.8.8,0,0,0,216.53,70.15Zm.24-1.83h-.56c.08-.4-.32-1.28-.8-1.28-.32,0-.48.32-.48.64.24,0,.56.08.8.08,0,.32-.16.56-.16.88a.28.28,0,0,1,.08.16,2.86,2.86,0,0,0,.88.31c-.08.16-.08.24-.16.4l-.4.24V70h.56a6,6,0,0,0,.08-1.19C216.77,68.72,216.77,68.48,216.77,68.32Zm-1.6-27.07H215v-.4C215.09,41,215.09,41.09,215.17,41.25Zm.16,1.36H215a1,1,0,0,1,.08-.48v.16h.16a.29.29,0,0,1,.08.24Zm-.08,5.17V48H215v-.08c0-.16.08-.24.16-.24Zm.88,23.8a.86.86,0,0,0-.64-.16v.24a.72.72,0,0,1,.08.4h-.16l-.16-.08h.08a1.17,1.17,0,0,1-.32.16v.8A1.91,1.91,0,0,0,216.13,71.58Zm-.8,2.31c-.08-.16-.24-.16-.32-.24C215.09,73.73,215.25,73.81,215.33,73.89Zm0-17.35h-.24V56.3ZM215.57,74h-.16v.16h-.08c-.08.16-.24.24-.24.56h.48Zm-.32-8.12h-.08v.32h.08Zm.4-12.34v.16a.61.61,0,0,1-.32-.16Zm-.16,19.19h-.16c.08-.08,0-.16,0-.24v-.32a1.14,1.14,0,0,1,.16.48Zm.08.47h-.08v.08a.6.6,0,0,0,.08.4Zm1,5.89c-.4,0-.56-.39-.72-.39-.32,0-.32.39-.32.55.24,0,.56.24.8.24s.16-.24.24-.24Zm-.24-1.75h-.72V78h.32l.4-.4Zm0,2.55h-.08v-.24h-.4v.08a.6.6,0,0,0,.08.4h.4Zm1.27-9.55v.24h-.4v-.24l-.16-.24c.16.08.32.08.48.24Zm.16,9.31a.61.61,0,0,1-.32-.16l-.24.48h.16v.16h.16c.08,0,.08-.08.16-.16Zm0,1.12c-.16-.08-.4-.08-.56-.24v.71h.24a.61.61,0,0,1,.32-.31Zm2.07-3.43H218.2a1.51,1.51,0,0,0-.32.72h.24v.16a3.48,3.48,0,0,1,.56-.32l-.08,1a1,1,0,0,0-.4-.4,1.75,1.75,0,0,1-.24.4c-.16.08-.16.31-.24.39h.16c.16-.16.24-.39.56-.39v.23h.08c.24,0,.4-.39.63-.47.08.08.08.4.32.4a.25.25,0,0,0,.16-.08l.08-.32h-.08v-.16l-.24.24-.24-.24C219.79,78.11,219.71,78,219.79,77.31Zm-1.67,4.94h-.32v-.32Zm.24-1.83-.32-.16v.16a1.14,1.14,0,0,0,.16.48h.16Zm.47-.8h-.39a1.14,1.14,0,0,1-.16.48h.08a.61.61,0,0,1,.32-.16C218.76,79.94,218.83,79.7,218.83,79.62Zm.09-5.17v.24h-.56v-.24Zm-.24,3.18h-.24v-.24Zm.95,5.1-.16-.24a1.51,1.51,0,0,1-.79.24v.08H219a1,1,0,0,0,.64.16Zm-.48-37.26c-.08.08-.16.16-.16.24a.18.18,0,0,1-.16-.16c0-.08.09-.24.09-.32Zm.4,32.4h-.32v-.32Zm3.82,3.34h-.08a1,1,0,0,0-.55-.71c-.08.16-.16.24-.24.4H222l-.08.87a3.89,3.89,0,0,0-1-.08c-.08.08-.15.16-.23.16a.29.29,0,0,0-.24.08v.32h-.16a1,1,0,0,0,.08.48h-.32v.47h-.56v.16h.72a7,7,0,0,1,.56-1,.25.25,0,0,0-.08-.16c.08-.08.08-.16.15-.24H221c.08.24.32.32.64.32.64,0,1.35-.24,1.35-1l.4.24Zm-3.34-3H220v.24H220Zm.08,2.31-.16-.08C220,80.5,220,80.5,220.11,80.5Zm.79.4h-.55c-.08.15-.16.39-.24.55h.24v-.24h.55Zm.64-1.44a1,1,0,0,1-.48-.08.84.84,0,0,1-.55.24v.32l.16.16h.16c.39-.08.31-.16.63-.24A.72.72,0,0,0,221.54,79.46Zm.08-2.15h-.48c.16.08.16.24.24.32h.08v-.08Zm.24,4c-.16-.08-.24-.24-.4-.31a1.14,1.14,0,0,1-.16.47h.48v-.16Zm.4-2.38H222v-.08h-.48l.24.39h.48ZM222,80.42h-.24v.32H222Zm.72-37.58h-.16a.61.61,0,0,1-.48-.15l.08.07A1.36,1.36,0,0,1,222.74,42.84Zm-.32,38.37v.24h-.24v-.24Zm1-1.11h-.16v.32h.08Zm.48-37.81h-.32v-.16a.48.48,0,0,1,.08-.32.29.29,0,0,0,.24.08Zm.32,6.76v.24h-.32v-.24Zm.56-3.34h-.64V45h.48C224.73,45.23,224.73,45.47,224.81,45.71Zm-.16,37.49h-.32c.16,0,.24,0,.32.08Zm.23-5-.23-.16ZM225,38H225v.24l-.15-.16-.08-.16H225Zm.24,41.63-.08-.24-.16.24Zm.4,2.07h-.08a.61.61,0,0,1-.16-.32l-.16-.08a1.88,1.88,0,0,0-.16.64h.08V82h.16c.08,0,.16-.08.24-.08Zm.4-2.86c-.4,0-.32.08-.72,0l.24.39Zm.4-1.44h-.16v-.08h-.64a4.92,4.92,0,0,0-.24.88h.16v.16C226.08,78.11,226.4,78,226.48,77.39Zm1.43,3.51h-.56c.08-.48-.39-1.52-.95-1.52-.32,0-.4.4-.4.72.32.08.64.08.87.16a1.92,1.92,0,0,0-.23.87v.16a9.12,9.12,0,0,1,.87.4,1.29,1.29,0,0,1-.55.56v.08h.55a2.2,2.2,0,0,0,.16-1s.16-.08.16-.16S227.83,80.9,227.91,80.9Zm-.4,1.83h-.64l-.23-.48A5.51,5.51,0,0,0,226,82v.32a3.14,3.14,0,0,0,1,.87c.07-.08.23-.23.31-.23V83C227.35,83,227.51,82.73,227.51,82.73Zm-1.19-4.38h-.16v.24h.08Zm.79-.56a.29.29,0,0,0-.08-.24,2.39,2.39,0,0,0-.31.8H227C227,78.19,227.11,78,227.11,77.79Zm1.36-.24-.4-.16a1.36,1.36,0,0,0-.56-.08.61.61,0,0,0-.16.32h.56a2.43,2.43,0,0,0-.4.56h.4s.08-.32.16-.32.08.08.16.08S228.47,77.63,228.47,77.55Zm-.8,1.36h-.24v.31h.24Zm1.59,4.29L229,83v-.16a.28.28,0,0,1-.16-.08c-.08,0-.08.08-.16.08l-.08.16c-.24,0-.4-.32-.48-.48a1.36,1.36,0,0,1,.56.08c.16-.08.24-.24.32-.32h-.08V82h-.8a8.71,8.71,0,0,1-.48,1.35,4.05,4.05,0,0,0,1,.16A1,1,0,0,0,229.26,83.2Zm-1.19-2H228l-.16.24a1.14,1.14,0,0,0,.16.48h.08Zm.24-21.33V60c-.08-.08-.16-.08-.32-.08Zm.48,20.38-.48-.16a1.61,1.61,0,0,0-.32.64h.4A1.18,1.18,0,0,0,228.79,80.26Zm-.32-2.07h-.32v.24h.32Zm1.75,1.67h-.8v-.64h-.24v.4h-.87v.32c.16.08.4.08.48.16a.53.53,0,0,0,.39.24c.24,0,.48-.08.64-.08h.32ZM230,77.31h-1.51v.08h.08v.16c.24.24.79.72,1.11.72a.08.08,0,0,0,.08-.08A1.15,1.15,0,0,0,230,77.31Zm0,1.6a3.46,3.46,0,0,1-.4-.08c-.24-.24-.87-.24-1.11-.24,0,.08.08.24,0,.4a.54.54,0,0,1,.32.07.43.43,0,0,1,.39-.23,1.51,1.51,0,0,1,.8.39Zm-1-.72h-.23l.23.24Zm.72,2.79c-.16,0-.32-.08-.48-.08s-.08.15-.08.31h.56Zm.4,1a.91.91,0,0,0-.64-.24v.56h.32v.08h.08v-.08l.16-.16Zm3.42-1.51a1.53,1.53,0,0,0-.87-.56c0,.16,0,.48-.24.56a.61.61,0,0,0-.4-.16c-.16-.24-.08-.56-.24-.88h-.08c-.08.08-.24.24-.32.24s.08-.16-.08-.24a2,2,0,0,0-.63.24c.08.08.08.24.16.32.31,0,.71-.16.95,0,0,.16,0,.24-.08.32-.32.16-.72.32-.87.64H231c.08,0,.16.15.24.15s.24-.15.32-.15l.08.39h.48v.4h-1l-.16-.16a.24.24,0,0,0-.15-.08v.48h.15c.08,0,.16-.08.16.08h-.31a1.11,1.11,0,0,1-1,.8l.32.16c.08.07.16.23.32.23a1.2,1.2,0,0,0,.63-.47l.48.24v-.24a.42.42,0,0,0-.32-.16c.08-.08,0-.24,0-.32a3.62,3.62,0,0,1,1.28-.24v-.56h.32c0-.32-.08-.4.07-.71,0,.08.32.16.32.24s-.16.07-.16.07c.16,0,.24-.07.32-.07S233.56,80.58,233.56,80.42Zm-3-53.18V27h-.08v.24Zm.87,50.07c-.24.16-.48,0-.71,0a.77.77,0,0,0,.39.32s.16-.08.16,0c0-.08.08-.16.08-.24h.08Zm.4,3.11v.08a.29.29,0,0,1-.24-.08Zm.16,2.39c-.08-.08-.24,0-.32-.08V83h.08v-.16Zm.16-5.42a.08.08,0,0,0-.08-.08c-.16.16-.16.08-.32.32h.32v-.08C232.13,77.47,232.13,77.47,232.13,77.39Zm.16,1.52-.24-.08c0,.08.08.16.08.23l.16.16Zm-.16,2.3h-.08V80.9A.45.45,0,0,0,232.13,81.21Zm1-3.34h-.39v.32h.39Z"/><circle class="cls-2" cx="116.65" cy="173.21" r="82.79"/><polyline class="cls-2" points="169.19 123.06 116.65 173.21 66.5 161.27"/></g></svg>
